<?xml version="1.0" standalone="no"?>
<!DOCTYPE svg PUBLIC "-//W3C//DTD SVG 20010904//EN"
 "http://www.w3.org/TR/2001/REC-SVG-20010904/DTD/svg10.dtd">
<svg version="1.0" xmlns="http://www.w3.org/2000/svg"
 width="512.000000pt" height="512.000000pt" viewBox="0 0 512.000000 512.000000"
 preserveAspectRatio="xMidYMid meet">
<metadata>
Created by potrace 1.16, written by Peter Selinger 2001-2019
</metadata>
<g transform="translate(0.000000,512.000000) scale(0.100000,-0.100000)"
fill="#000000" stroke="none">
<path d="M1254 4635 c11 -8 45 -24 75 -36 70 -25 130 -60 156 -89 l20 -23 -43
22 c-45 23 -118 30 -160 17 -45 -15 -62 -75 -61 -226 0 -77 6 -163 14 -200 8
-36 12 -47 10 -25 -3 22 -8 105 -11 185 -7 165 2 221 42 246 50 33 152 5 265
-73 48 -32 331 -257 394 -312 l30 -26 -30 33 -29 33 43 -16 c24 -8 58 -15 75
-15 76 0 151 -41 181 -101 21 -40 19 -167 -5 -280 -23 -108 -25 -236 -4 -294
7 -22 11 -29 8 -15 -18 76 -16 199 5 299 24 119 27 247 7 294 -15 36 -46 67
-91 91 l-30 16 50 -1 c28 0 155 3 283 7 128 3 293 3 367 -1 l134 -7 -51 -27
c-92 -47 -110 -99 -73 -210 21 -65 29 -62 10 4 -21 68 -19 117 6 149 29 37 90
66 141 66 24 1 72 7 108 15 36 7 66 12 68 11 1 -2 -32 -30 -74 -62 -90 -69
-94 -73 -114 -99 -8 -11 5 -2 30 20 25 23 92 74 150 115 58 40 166 122 240
180 222 176 311 223 387 205 69 -18 86 -98 64 -310 -12 -122 -36 -211 -82
-302 -30 -60 -36 -80 -28 -95 13 -25 20 -18 36 35 6 23 25 80 42 127 39 110
52 197 53 346 1 100 -2 127 -18 160 -36 74 -122 81 -227 19 l-42 -26 45 42
c25 23 72 55 105 71 33 16 49 26 35 22 -50 -13 -117 -56 -190 -123 -103 -93
-294 -246 -347 -276 -23 -14 -82 -35 -131 -45 -99 -22 -116 -24 -108 -11 14
22 -552 39 -697 21 -53 -7 -141 -13 -195 -14 -91 -1 -101 1 -162 31 -58 29
-206 144 -405 316 -38 33 -99 73 -135 89 -140 63 -155 69 -136 53z"/>
<path d="M3820 4615 c-19 -7 -28 -14 -20 -14 8 0 29 6 45 14 39 17 21 18 -25
0z"/>
<path d="M3887 4410 c10 -143 -38 -428 -95 -560 -10 -25 -22 -76 -26 -113 -9
-78 -31 -144 -38 -111 -2 10 -4 -15 -4 -56 -1 -70 -1 -71 6 -24 4 28 13 61 21
75 7 13 19 49 25 79 l12 55 1 -50 c1 -34 -6 -61 -19 -83 -12 -19 -16 -31 -10
-27 29 18 42 69 36 142 -6 66 -4 82 28 175 57 169 90 425 67 528 -8 39 -9 35
-4 -30z"/>
<path d="M1552 4381 c92 -62 273 -217 355 -304 34 -36 60 -67 59 -69 -2 -1 6
-11 16 -20 40 -39 10 19 -44 84 -72 87 -413 358 -450 358 -5 0 23 -22 64 -49z"/>
<path d="M3499 4342 c-46 -37 -120 -97 -164 -132 -98 -79 -187 -166 -204 -200
-7 -14 31 18 85 71 55 53 158 145 229 204 147 121 151 125 144 125 -3 0 -43
-30 -90 -68z"/>
<path d="M1276 4309 c-15 -75 8 -289 39 -354 7 -16 25 -64 39 -105 14 -41 26
-67 26 -57 0 9 4 17 8 17 18 0 21 -14 7 -41 -19 -37 -19 -83 1 -150 9 -30 20
-79 24 -109 l7 -55 1 60 c1 36 -6 82 -18 115 -24 69 -25 97 -2 141 l18 36 -28
28 c-54 55 -109 256 -111 413 -1 50 -2 92 -3 92 -1 0 -4 -14 -8 -31z"/>
<path d="M1312 4230 c0 -14 2 -19 5 -12 2 6 2 18 0 25 -3 6 -5 1 -5 -13z"/>
<path d="M1540 4185 c0 -9 6 -12 15 -9 8 4 15 7 15 9 0 2 -7 5 -15 9 -9 3 -15
0 -15 -9z"/>
<path d="M3550 4190 c-13 -8 -13 -10 2 -10 9 0 20 5 23 10 8 13 -5 13 -25 0z"/>
<path d="M1538 4128 c6 -6 18 -8 28 -6 14 3 12 5 -9 10 -19 3 -25 2 -19 -4z"/>
<path d="M1603 4113 c9 -2 23 -2 30 0 6 3 -1 5 -18 5 -16 0 -22 -2 -12 -5z"/>
<path d="M3483 4113 c9 -2 25 -2 35 0 9 3 1 5 -18 5 -19 0 -27 -2 -17 -5z"/>
<path d="M2005 4080 c10 -11 20 -20 23 -20 3 0 -3 9 -13 20 -10 11 -20 20 -23
20 -3 0 3 -9 13 -20z"/>
<path d="M1595 4080 c-4 -6 5 -10 20 -10 15 0 24 4 20 10 -3 6 -12 10 -20 10
-8 0 -17 -4 -20 -10z"/>
<path d="M1690 4040 c0 -6 11 -8 28 -4 39 10 40 14 4 14 -18 0 -32 -5 -32 -10z"/>
<path d="M3388 4043 c6 -2 18 -2 25 0 6 3 1 5 -13 5 -14 0 -19 -2 -12 -5z"/>
<path d="M1555 4031 c3 -5 -3 -12 -12 -14 -29 -7 48 -7 92 0 36 6 38 7 15 14
-37 10 -102 10 -95 0z"/>
<path d="M3450 4030 c32 -10 106 -12 96 -3 -4 4 -33 8 -64 9 -40 1 -50 -1 -32
-6z"/>
<path d="M1271 4014 c0 -11 3 -14 6 -6 3 7 2 16 -1 19 -3 4 -6 -2 -5 -13z"/>
<path d="M2080 4026 c0 -2 8 -10 18 -17 15 -13 16 -12 3 4 -13 16 -21 21 -21
13z"/>
<path d="M1550 3991 c0 -5 7 -12 16 -15 21 -8 21 -8 21 9 0 8 -9 15 -19 15
-10 0 -18 -4 -18 -9z"/>
<path d="M2680 3970 c11 -19 30 -55 41 -80 29 -67 93 -190 96 -186 6 6 -117
252 -138 276 l-21 25 22 -35z"/>
<path d="M3498 3993 c12 -2 32 -2 45 0 12 2 2 4 -23 4 -25 0 -35 -2 -22 -4z"/>
<path d="M1281 3974 c0 -11 3 -14 6 -6 3 7 2 16 -1 19 -3 4 -6 -2 -5 -13z"/>
<path d="M2420 3951 c-33 -47 -148 -293 -154 -331 -5 -26 0 -19 17 25 34 85
126 275 149 308 11 15 17 27 14 27 -2 0 -14 -13 -26 -29z"/>
<path d="M3435 3960 c3 -5 8 -10 11 -10 2 0 4 5 4 10 0 6 -5 10 -11 10 -5 0
-7 -4 -4 -10z"/>
<path d="M1587 3953 c-15 -4 -17 -12 -14 -39 3 -19 2 -34 -2 -34 -4 0 -8 -6
-9 -12 -6 -53 -28 -108 -44 -108 -29 0 -35 -63 -8 -100 12 -16 24 -30 28 -30
4 1 21 12 37 25 28 23 24 32 -10 25 -5 -1 -4 4 3 11 6 7 12 22 12 32 0 16 3
17 15 7 8 -6 20 -10 27 -7 8 4 7 6 -4 6 -54 3 25 40 88 42 24 1 21 4 -20 16
-63 19 -48 35 33 37 34 0 61 2 61 3 0 1 -12 9 -26 16 l-27 14 33 6 c17 4 37 4
44 1 6 -4 -1 6 -16 21 -34 36 -117 46 -166 21 -38 -20 -39 -20 -39 0 0 9 14
25 31 35 24 15 27 19 11 18 -11 -1 -28 -3 -38 -6z"/>
<path d="M3480 3946 c7 -7 13 -7 20 0 6 6 3 10 -10 10 -13 0 -16 -4 -10 -10z"/>
<path d="M1291 3942 c-1 -7 10 -39 24 -72 20 -47 25 -77 25 -140 0 -61 5 -90
20 -120 11 -22 20 -52 20 -69 0 -56 -29 -181 -64 -273 -49 -133 -70 -280 -63
-443 3 -71 13 -156 22 -189 9 -32 15 -59 13 -61 -2 -1 -40 -15 -86 -30 -46
-15 -81 -29 -79 -31 2 -2 37 7 77 21 40 14 79 25 85 25 11 0 71 -137 64 -144
-9 -8 -210 -123 -284 -163 -44 -23 -76 -43 -71 -43 9 0 67 30 275 144 47 25
88 46 92 46 15 0 31 -73 25 -113 -5 -32 -22 -56 -79 -117 -40 -43 -81 -92 -91
-111 -23 -42 -21 -39 39 36 44 54 111 125 120 125 1 0 -10 -50 -26 -112 -15
-62 -33 -143 -39 -180 -7 -37 -16 -68 -21 -68 -6 0 -8 -4 -5 -8 2 -4 -2 -50
-10 -102 -7 -52 -14 -122 -14 -155 0 -55 -4 -66 -45 -128 -59 -87 -50 -87 11
1 27 37 84 114 127 172 129 170 127 177 -3 15 -40 -49 -74 -92 -77 -95 -15
-16 34 308 49 327 5 7 7 16 4 21 -2 4 12 81 33 170 27 119 42 166 56 176 18
13 22 10 53 -45 18 -33 34 -68 35 -78 1 -11 4 -18 8 -15 4 2 22 -19 39 -46 18
-28 35 -48 38 -46 2 3 -9 27 -27 53 l-31 48 36 31 c30 25 232 158 303 198 9 5
-20 -29 -64 -75 -45 -46 -96 -104 -114 -129 -32 -44 -32 -44 10 5 106 124 258
255 295 255 7 0 22 -8 34 -18 l22 -18 -77 -114 c-83 -122 -145 -245 -164 -322
-18 -77 -11 -88 9 -13 26 100 59 171 134 282 101 151 105 155 144 141 37 -14
38 -17 13 -66 -62 -122 -85 -281 -57 -392 19 -73 66 -157 110 -198 24 -21 22
-18 -7 18 -124 148 -136 364 -31 573 31 61 51 61 117 -2 117 -110 244 -168
343 -158 67 7 98 23 215 113 l96 73 22 -82 c11 -45 25 -104 30 -132 7 -38 9
-42 10 -19 0 17 -10 76 -24 130 -14 54 -25 100 -25 101 0 2 17 10 37 18 36 15
38 15 55 -7 24 -31 120 -229 147 -303 11 -33 30 -94 41 -135 15 -54 19 -62 15
-30 -10 77 -72 246 -137 373 -35 67 -64 124 -66 128 -1 3 9 11 23 17 21 10 30
9 49 -3 24 -16 134 -136 178 -195 35 -46 97 -156 100 -178 2 -9 8 -22 14 -29
20 -21 55 -152 63 -235 l8 -83 1 65 c1 36 -5 94 -14 130 -18 79 -85 223 -146
314 -66 98 -197 236 -280 297 -40 29 -65 43 -55 31 10 -11 36 -33 58 -48 45
-31 48 -40 15 -56 -22 -9 -30 -6 -72 31 -26 22 -54 41 -63 40 -12 0 -11 -2 4
-9 11 -4 35 -24 54 -43 l33 -35 -48 -8 c-96 -14 -249 29 -321 90 -41 34 -43
72 -8 114 14 17 25 39 25 49 0 27 31 53 62 53 13 0 35 11 48 25 l24 26 -31 30
-31 31 -136 1 c-135 1 -136 1 -164 -26 l-29 -28 -11 23 c-6 13 -11 19 -11 13
-2 -27 43 -77 83 -95 25 -10 50 -28 56 -39 6 -12 8 -21 5 -21 -4 0 8 -18 26
-41 27 -35 31 -45 23 -67 -11 -32 -84 -83 -159 -111 -63 -24 -189 -39 -198
-24 -4 6 8 30 25 54 l30 44 -44 -49 c-44 -49 -44 -49 -81 -37 -20 7 -37 16
-37 21 0 5 21 27 48 50 54 48 38 43 -26 -7 l-42 -35 -31 19 c-26 17 -28 21
-15 32 8 7 46 23 83 37 37 13 58 24 45 24 -12 0 -50 -12 -85 -26 -34 -14 -67
-27 -72 -28 -14 -2 -105 -56 -105 -61 0 -6 33 6 48 18 7 5 15 7 19 3 8 -7 18
0 -107 -76 -89 -54 -228 -146 -303 -200 -12 -8 -18 -10 -14 -3 4 6 -9 39 -29
73 -34 59 -35 62 -17 75 51 39 190 110 283 145 215 83 265 103 279 116 17 16
-213 -69 -339 -124 -48 -22 -123 -60 -165 -86 -61 -37 -80 -44 -87 -34 -36 53
-59 99 -54 107 25 40 543 181 666 181 38 0 59 -4 55 -10 -3 -5 1 -10 9 -10 8
0 18 4 21 10 10 16 -43 23 -133 17 -93 -5 -386 -79 -541 -136 -47 -17 -89 -27
-93 -23 -10 10 -58 125 -54 129 2 2 45 14 97 27 52 13 86 25 75 25 -10 1 -44
-5 -75 -13 -122 -30 -107 -38 -125 62 -33 180 -14 424 46 587 45 122 60 200
55 284 -2 40 -8 76 -13 80 -5 3 -10 44 -12 90 -2 66 -9 98 -31 150 -16 36 -31
73 -34 81 -3 10 -6 10 -6 2z m1421 -1207 c14 -31 -3 -58 -24 -37 -32 32 -78 0
-78 -54 0 -28 -4 -35 -17 -32 -10 2 -24 17 -32 33 -8 16 -16 25 -18 18 -5 -13
-43 -5 -43 9 0 5 -9 21 -20 35 -38 49 -31 53 100 53 119 0 121 0 132 -25z
m-743 -316 c-7 -4 -17 -5 -22 -2 -5 3 -3 9 4 14 7 4 17 5 22 2 5 -3 3 -9 -4
-14z m636 -23 c43 -30 148 -66 210 -74 l66 -7 -96 -69 c-114 -81 -165 -100
-254 -91 -80 7 -117 23 -186 77 -31 24 -57 41 -59 38 -3 -3 -16 6 -31 20 l-26
24 71 12 c39 7 103 28 143 47 77 38 131 45 162 23z m-1193 -128 c-9 -9 -12 -4
-11 23 0 32 1 33 11 11 8 -17 8 -26 0 -34z"/>
<path d="M1614 3924 c-18 -14 -18 -14 6 -3 31 14 36 19 24 19 -6 0 -19 -7 -30
-16z"/>
<path d="M3335 3905 c-22 -8 -41 -15 -42 -15 -2 0 -3 -4 -3 -10 0 -5 14 -10
31 -10 20 0 28 -4 23 -11 -10 -16 44 -2 62 16 18 18 18 31 -2 39 -20 8 -22 8
-69 -9z"/>
<path d="M3430 3872 c0 -6 -21 -21 -46 -33 -61 -31 -64 -40 -7 -23 25 8 59 14
75 14 15 0 28 4 28 10 0 5 -7 6 -17 3 -10 -4 -14 -2 -10 4 4 6 0 16 -8 23 -9
8 -15 8 -15 2z"/>
<path d="M2851 3840 c0 -3 9 -34 20 -70 28 -89 36 -245 16 -330 -17 -72 -15
-93 3 -33 21 68 24 224 6 305 -15 62 -43 144 -45 128z"/>
<path d="M3518 3823 c7 -3 16 -2 19 1 4 3 -2 6 -13 5 -11 0 -14 -3 -6 -6z"/>
<path d="M1678 3803 c7 -3 16 -2 19 1 4 3 -2 6 -13 5 -11 0 -14 -3 -6 -6z"/>
<path d="M3438 3803 c7 -3 16 -2 19 1 4 3 -2 6 -13 5 -11 0 -14 -3 -6 -6z"/>
<path d="M2621 3784 c0 -11 3 -14 6 -6 3 7 2 16 -1 19 -3 4 -6 -2 -5 -13z"/>
<path d="M3433 3778 c-36 -17 -27 -23 26 -20 38 3 48 7 44 18 -6 16 -38 17
-70 2z"/>
<path d="M2461 3764 c0 -11 3 -14 6 -6 3 7 2 16 -1 19 -3 4 -6 -2 -5 -13z"/>
<path d="M3734 3705 c-1 -51 0 -56 9 -32 6 18 6 41 0 60 -7 28 -9 24 -9 -28z"/>
<path d="M2611 3740 c-1 -8 -14 -43 -31 -77 -16 -35 -27 -63 -24 -63 10 0 66
130 61 142 -4 9 -6 8 -6 -2z"/>
<path d="M2471 3724 c0 -11 3 -14 6 -6 3 7 2 16 -1 19 -3 4 -6 -2 -5 -13z"/>
<path d="M3508 3723 c7 -3 16 -2 19 1 4 3 -2 6 -13 5 -11 0 -14 -3 -6 -6z"/>
<path d="M2480 3695 c0 -5 5 -17 10 -25 5 -8 10 -10 10 -5 0 6 -5 17 -10 25
-5 8 -10 11 -10 5z"/>
<path d="M3490 3696 c0 -2 7 -7 16 -10 8 -3 12 -2 9 4 -6 10 -25 14 -25 6z"/>
<path d="M2500 3641 c0 -6 4 -13 10 -16 6 -3 7 1 4 9 -7 18 -14 21 -14 7z"/>
<path d="M2530 3581 c0 -6 4 -12 8 -15 5 -3 9 1 9 9 0 8 -4 15 -9 15 -4 0 -8
-4 -8 -9z"/>
<path d="M3754 3495 c3 -75 9 -105 40 -183 85 -217 103 -408 59 -632 -14 -75
-88 -260 -103 -260 -4 0 -35 14 -69 30 -164 81 -460 161 -591 158 l-75 -1 85
-8 c105 -9 283 -49 403 -90 113 -39 237 -95 237 -107 0 -5 -9 -29 -19 -53 -43
-97 -21 -402 50 -681 10 -42 16 -84 12 -94 -5 -13 -3 -15 7 -9 8 5 11 4 6 -3
-6 -10 54 -225 61 -218 2 2 -16 91 -41 197 -38 163 -56 258 -90 466 -2 14 1
20 8 16 6 -4 4 1 -4 11 -11 14 -15 48 -15 140 0 104 3 128 22 169 12 26 27 47
32 47 6 0 66 -29 134 -65 68 -36 128 -65 133 -65 5 0 -43 28 -106 61 -169 90
-161 83 -147 119 6 16 15 30 20 30 4 0 5 5 2 10 -3 6 -1 10 5 10 6 0 8 5 5 10
-3 6 -1 10 5 10 7 0 10 7 6 15 -3 8 -2 15 3 15 4 0 8 6 9 13 0 6 11 44 23 82
16 54 22 104 26 225 6 189 -8 278 -73 451 -28 77 -48 150 -54 198 l-9 76 3
-90z"/>
<path d="M1910 3385 c-30 -7 -73 -21 -95 -31 -22 -9 -62 -20 -90 -24 l-50 -8
56 -1 c66 -1 82 -12 97 -67 16 -55 49 -102 100 -141 58 -44 110 -57 207 -49
86 7 124 -6 126 -42 1 -38 18 24 18 70 2 105 -73 224 -172 272 -66 33 -127 39
-197 21z m185 -70 c0 -28 -29 -25 -33 3 -3 19 0 23 15 20 10 -2 18 -12 18 -23z
m-152 -28 c-8 -42 15 -104 52 -136 42 -37 86 -40 130 -11 38 25 74 28 54 4
-40 -49 -152 -60 -210 -21 -69 47 -99 128 -62 169 23 25 41 23 36 -5z"/>
<path d="M3077 3389 c-87 -21 -174 -84 -208 -152 -47 -92 -62 -195 -34 -233
14 -19 14 -19 15 3 0 12 12 31 27 43 25 20 35 21 118 15 69 -5 100 -3 133 9
81 29 140 96 170 189 16 49 19 52 55 55 37 3 53 22 19 22 -10 0 -45 11 -78 24
-68 28 -163 39 -217 25z m130 -53 c24 -21 28 -32 27 -73 -1 -96 -73 -163 -175
-163 -66 0 -112 26 -140 80 -18 32 -18 35 -2 44 13 7 22 3 38 -19 69 -98 141
-111 192 -36 28 41 32 131 8 151 -8 7 -15 19 -15 26 0 22 36 16 67 -10z m-107
-16 c0 -13 -7 -20 -20 -20 -13 0 -20 7 -20 20 0 13 7 20 20 20 13 0 20 -7 20
-20z"/>
<path d="M3519 3218 c28 -14 54 -37 72 -67 16 -25 29 -41 29 -37 0 36 -93 126
-130 126 -8 0 5 -10 29 -22z"/>
<path d="M1573 3211 c-37 -23 -80 -92 -88 -142 -5 -25 -1 -20 13 19 21 57 50
94 97 123 17 11 26 19 20 19 -5 0 -24 -9 -42 -19z"/>
<path d="M3620 3095 c0 -5 5 -17 10 -25 5 -8 10 -10 10 -5 0 6 -5 17 -10 25
-5 8 -10 11 -10 5z"/>
<path d="M1471 3014 c0 -11 3 -14 6 -6 3 7 2 16 -1 19 -3 4 -6 -2 -5 -13z"/>
<path d="M1457 2968 c-4 -14 -19 -41 -34 -60 -23 -27 -23 -30 -4 -13 27 24 54
72 48 88 -2 7 -7 0 -10 -15z"/>
<path d="M3660 2985 c0 -5 5 -17 10 -25 5 -8 10 -10 10 -5 0 6 -5 17 -10 25
-5 8 -10 11 -10 5z"/>
<path d="M3688 2925 c6 -11 21 -29 34 -40 22 -19 22 -19 -2 10 -40 48 -43 51
-32 30z"/>
<path d="M1590 2915 c0 -29 77 -128 115 -147 11 -5 3 4 -18 22 -21 18 -51 55
-67 84 -17 28 -30 47 -30 41z"/>
<path d="M3510 2852 c0 -19 -61 -82 -99 -101 -20 -11 -83 -30 -141 -44 -58
-14 -123 -30 -145 -35 -33 -8 -21 -10 70 -9 61 0 85 3 55 5 l-55 4 99 28 c55
16 120 42 145 57 43 27 90 87 77 100 -3 4 -6 1 -6 -5z"/>
<path d="M1762 2704 c3 -3 41 -11 84 -18 l79 -14 -70 -2 c-38 -1 -92 -5 -120
-10 -35 -6 -18 -7 55 -3 177 9 309 20 255 22 -27 1 -93 8 -145 16 -100 15
-147 19 -138 9z"/>
<path d="M2120 2670 c0 -5 7 -10 16 -10 8 0 12 5 9 10 -3 6 -10 10 -16 10 -5
0 -9 -4 -9 -10z"/>
<path d="M2190 2670 c0 -5 5 -10 11 -10 5 0 7 5 4 10 -3 6 -8 10 -11 10 -2 0
-4 -4 -4 -10z"/>
<path d="M2915 2670 c-3 -5 1 -10 10 -10 9 0 13 5 10 10 -3 6 -8 10 -10 10 -2
0 -7 -4 -10 -10z"/>
<path d="M2984 2672 c5 -8 76 -4 76 4 0 2 -18 4 -41 4 -22 0 -38 -4 -35 -8z"/>
<path d="M3383 2653 c9 -2 23 -2 30 0 6 3 -1 5 -18 5 -16 0 -22 -2 -12 -5z"/>
<path d="M1633 2643 c9 -2 25 -2 35 0 9 3 1 5 -18 5 -19 0 -27 -2 -17 -5z"/>
<path d="M1573 2633 c9 -2 23 -2 30 0 6 3 -1 5 -18 5 -16 0 -22 -2 -12 -5z"/>
<path d="M1518 2623 c6 -2 18 -2 25 0 6 3 1 5 -13 5 -14 0 -19 -2 -12 -5z"/>
<path d="M2280 2590 c0 -5 5 -10 10 -10 6 0 10 5 10 10 0 6 -4 10 -10 10 -5 0
-10 -4 -10 -10z"/>
<path d="M2810 2590 c0 -5 5 -10 11 -10 5 0 7 5 4 10 -3 6 -8 10 -11 10 -2 0
-4 -4 -4 -10z"/>
<path d="M2970 2593 c0 -5 26 -17 58 -27 31 -10 63 -23 70 -29 7 -5 25 -11 40
-12 68 -5 271 -135 376 -239 73 -73 98 -102 143 -169 14 -20 28 -35 31 -33 9
9 -87 133 -159 205 -78 78 -285 221 -353 245 -23 7 -70 24 -106 36 -93 32
-100 33 -100 23z"/>
<path d="M2180 2580 c0 -5 5 -10 10 -10 6 0 10 5 10 10 0 6 -4 10 -10 10 -5 0
-10 -4 -10 -10z"/>
<path d="M2240 2579 c0 -5 5 -7 10 -4 6 3 10 8 10 11 0 2 -4 4 -10 4 -5 0 -10
-5 -10 -11z"/>
<path d="M2860 2580 c0 -5 5 -10 10 -10 6 0 10 5 10 10 0 6 -4 10 -10 10 -5 0
-10 -4 -10 -10z"/>
<path d="M2915 2580 c3 -5 12 -7 20 -3 21 7 19 13 -6 13 -11 0 -18 -4 -14 -10z"/>
<path d="M2065 2560 c3 -5 10 -10 16 -10 5 0 9 5 9 10 0 6 -7 10 -16 10 -8 0
-12 -4 -9 -10z"/>
<path d="M3023 2490 c56 -30 67 -43 47 -55 -17 -11 -11 -22 28 -48 20 -15 51
-36 67 -49 19 -14 25 -16 16 -5 -7 9 -36 33 -63 53 -39 29 -46 39 -37 50 18
22 169 -88 292 -215 126 -129 225 -274 332 -487 41 -82 74 -144 75 -138 0 23
-153 315 -219 417 -119 182 -338 390 -491 467 -77 38 -118 47 -47 10z"/>
<path d="M2260 2502 c0 -5 7 -9 15 -9 8 0 15 4 15 9 0 4 -7 8 -15 8 -8 0 -15
-4 -15 -8z"/>
<path d="M2815 2490 c3 -5 8 -10 11 -10 2 0 4 5 4 10 0 6 -5 10 -11 10 -5 0
-7 -4 -4 -10z"/>
<path d="M2888 2493 c7 -3 16 -2 19 1 4 3 -2 6 -13 5 -11 0 -14 -3 -6 -6z"/>
<path d="M3160 2474 c30 -14 61 -30 69 -37 12 -9 13 -9 7 1 -9 14 -99 62 -118
62 -7 0 12 -12 42 -26z"/>
<path d="M3398 2493 c7 -3 16 -2 19 1 4 3 -2 6 -13 5 -11 0 -14 -3 -6 -6z"/>
<path d="M3510 2460 c8 -5 20 -10 25 -10 6 0 3 5 -5 10 -8 5 -19 10 -25 10 -5
0 -3 -5 5 -10z"/>
<path d="M4060 2250 c8 -5 20 -10 25 -10 6 0 3 5 -5 10 -8 5 -19 10 -25 10 -5
0 -3 -5 5 -10z"/>
<path d="M1805 2089 c-9 -17 -15 -33 -13 -35 3 -2 12 12 21 31 21 43 13 47 -8
4z"/>
<path d="M1449 2073 c-13 -16 -12 -17 4 -4 9 7 17 15 17 17 0 8 -8 3 -21 -13z"/>
<path d="M2242 2035 c-82 -69 -81 -183 3 -343 20 -39 52 -88 71 -109 l35 -38
-35 48 c-51 69 -103 183 -116 255 -14 79 -1 130 46 177 40 41 38 46 -4 10z"/>
<path d="M1382 1994 c-23 -29 -45 -61 -48 -71 -3 -11 2 -9 13 7 10 14 27 35
38 46 22 24 48 65 43 69 -2 1 -22 -22 -46 -51z"/>
<path d="M1771 2009 c-6 -18 -11 -37 -10 -43 0 -6 7 7 15 28 8 22 12 41 10 43
-2 2 -9 -10 -15 -28z"/>
<path d="M2346 1977 c-76 -99 -60 -230 46 -379 25 -35 56 -72 69 -83 12 -11 1
7 -26 40 -26 33 -64 94 -84 135 -32 66 -36 84 -36 152 0 70 3 80 32 122 37 53
36 62 -1 13z"/>
<path d="M1410 1954 c0 -40 50 -199 90 -279 21 -44 60 -103 87 -131 26 -28 34
-34 17 -14 -42 50 -109 164 -129 220 -9 25 -27 86 -40 135 -13 50 -24 80 -25
69z"/>
<path d="M1590 1961 c0 -6 4 -13 10 -16 6 -3 7 1 4 9 -7 18 -14 21 -14 7z"/>
<path d="M3460 1965 c0 -5 5 -17 10 -25 5 -8 10 -10 10 -5 0 6 -5 17 -10 25
-5 8 -10 11 -10 5z"/>
<path d="M1752 1920 c0 -19 2 -27 5 -17 2 9 2 25 0 35 -3 9 -5 1 -5 -18z"/>
<path d="M3279 1913 c-13 -16 -12 -17 4 -4 16 13 21 21 13 21 -2 0 -10 -8 -17
-17z"/>
<path d="M1520 1879 c-12 -23 -20 -43 -18 -45 3 -2 14 17 26 41 27 56 20 60
-8 4z"/>
<path d="M3484 1903 c21 -67 65 -186 65 -177 1 13 -57 185 -65 193 -4 3 -3 -4
0 -16z"/>
<path d="M2922 1859 c-1 -25 -7 -71 -13 -103 -6 -32 -8 -60 -6 -63 9 -8 28
133 24 173 -4 39 -4 39 -5 -7z"/>
<path d="M1660 1846 c0 -2 8 -10 18 -17 15 -13 16 -12 3 4 -13 16 -21 21 -21
13z"/>
<path d="M1793 1790 c0 -36 2 -50 4 -32 2 17 2 47 0 65 -2 17 -4 3 -4 -33z"/>
<path d="M1486 1805 c-3 -9 -6 -22 -5 -28 0 -7 5 -1 10 12 5 13 8 26 5 28 -2
2 -6 -3 -10 -12z"/>
<path d="M1716 1777 c27 -38 51 -38 41 -1 -4 15 -5 13 -6 -6 -1 -24 -2 -24
-32 10 l-30 35 27 -38z"/>
<path d="M3213 1765 c0 -22 2 -30 4 -17 2 12 2 30 0 40 -3 9 -5 -1 -4 -23z"/>
<path d="M2777 1743 c-2 -4 -8 -26 -12 -47 -3 -22 -18 -62 -31 -88 -13 -26
-22 -48 -19 -48 9 0 53 94 65 139 10 39 9 64 -3 44z"/>
<path d="M1800 1689 c-1 -23 -1 -23 -15 -5 -13 17 -15 17 -15 4 0 -9 9 -20 20
-23 11 -4 18 -11 15 -16 -4 -5 -2 -9 4 -9 6 0 8 13 4 33 -8 41 -13 47 -13 16z"/>
<path d="M2871 1623 c-10 -26 -10 -27 4 -9 8 11 15 23 15 28 0 15 -7 8 -19
-19z"/>
<path d="M3563 1615 c0 -22 2 -30 4 -17 2 12 2 30 0 40 -3 9 -5 -1 -4 -23z"/>
<path d="M1781 1624 c0 -11 3 -14 6 -6 3 7 2 16 -1 19 -3 4 -6 -2 -5 -13z"/>
<path d="M3422 1620 c0 -14 2 -19 5 -12 2 6 2 18 0 25 -3 6 -5 1 -5 -13z"/>
<path d="M3551 1550 c-1 -14 -12 -51 -25 -82 -13 -32 -20 -55 -15 -53 14 9 50
118 46 139 -4 18 -5 17 -6 -4z"/>
<path d="M1421 1544 c0 -11 3 -14 6 -6 3 7 2 16 -1 19 -3 4 -6 -2 -5 -13z"/>
<path d="M1885 1520 c10 -11 20 -20 23 -20 3 0 -3 9 -13 20 -10 11 -20 20 -23
20 -3 0 3 -9 13 -20z"/>
<path d="M1412 1450 c-3 -120 41 -239 146 -398 68 -105 240 -269 340 -326 29
-17 8 3 -35 34 -119 85 -255 238 -341 383 -65 109 -92 185 -101 282 -8 72 -8
75 -9 25z"/>
<path d="M1752 1450 c0 -19 2 -27 5 -17 2 9 2 25 0 35 -3 9 -5 1 -5 -18z"/>
<path d="M1372 1435 c0 -16 2 -22 5 -12 2 9 2 23 0 30 -3 6 -5 -1 -5 -18z"/>
<path d="M1685 1440 c10 -11 20 -20 23 -20 3 0 -3 9 -13 20 -10 11 -20 20 -23
20 -3 0 3 -9 13 -20z"/>
<path d="M1762 1390 c0 -14 2 -19 5 -12 2 6 2 18 0 25 -3 6 -5 1 -5 -13z"/>
<path d="M1381 1380 c0 -14 7 -43 14 -65 l14 -40 -6 45 c-3 25 -9 54 -14 65
-7 18 -8 18 -8 -5z"/>
<path d="M3365 1353 c-18 -73 -90 -165 -190 -241 l-30 -23 34 18 c52 28 116
88 149 140 30 49 58 121 49 129 -2 3 -8 -8 -12 -23z"/>
<path d="M1775 1335 c8 -45 80 -185 115 -225 30 -35 30 -34 -3 15 -41 59 -73
121 -99 190 -10 28 -16 37 -13 20z"/>
<path d="M2975 1282 c-73 -39 -155 -92 -155 -99 0 -5 16 4 55 31 16 12 66 40
110 63 44 23 76 42 70 42 -5 0 -41 -16 -80 -37z"/>
<path d="M1411 1254 c0 -11 3 -14 6 -6 3 7 2 16 -1 19 -3 4 -6 -2 -5 -13z"/>
<path d="M2132 1130 c0 -14 2 -19 5 -12 2 6 2 18 0 25 -3 6 -5 1 -5 -13z"/>
<path d="M2742 1074 c-103 -90 -208 -271 -219 -378 l-6 -57 -23 57 c-12 31
-42 88 -65 128 -23 39 -59 103 -80 141 -70 127 -40 52 45 -119 47 -92 93 -193
102 -224 10 -31 27 -90 39 -130 l22 -74 6 129 c10 206 71 377 181 506 31 37
55 67 54 67 -2 0 -27 -21 -56 -46z"/>
<path d="M2144 1075 c5 -34 46 -148 51 -143 2 2 -10 41 -27 88 -16 47 -27 71
-24 55z"/>
<path d="M2291 1084 c0 -11 3 -14 6 -6 3 7 2 16 -1 19 -3 4 -6 -2 -5 -13z"/>
<path d="M2819 943 c-13 -16 -12 -17 4 -4 9 7 17 15 17 17 0 8 -8 3 -21 -13z"/>
<path d="M2213 890 c34 -77 147 -329 176 -394 18 -37 34 -66 37 -64 5 5 -99
241 -170 387 -46 94 -71 136 -43 71z"/>
<path d="M2501 894 c0 -11 3 -14 6 -6 3 7 2 16 -1 19 -3 4 -6 -2 -5 -13z"/>
<path d="M2779 893 c-13 -16 -12 -17 4 -4 16 13 21 21 13 21 -2 0 -10 -8 -17
-17z"/>
<path d="M2511 764 c0 -11 3 -14 6 -6 3 7 2 16 -1 19 -3 4 -6 -2 -5 -13z"/>
<path d="M2719 698 c-32 -63 -79 -192 -79 -212 1 -6 16 30 34 79 18 50 45 114
60 143 14 28 24 52 21 52 -2 0 -19 -28 -36 -62z"/>
<path d="M2631 454 c0 -11 3 -14 6 -6 3 7 2 16 -1 19 -3 4 -6 -2 -5 -13z"/>
<path d="M2622 400 c0 -14 2 -19 5 -12 2 6 2 18 0 25 -3 6 -5 1 -5 -13z"/>
</g>
</svg>