<?xml version="1.0" standalone="no"?>
<!DOCTYPE svg PUBLIC "-//W3C//DTD SVG 20010904//EN"
 "http://www.w3.org/TR/2001/REC-SVG-20010904/DTD/svg10.dtd">
<svg version="1.0" xmlns="http://www.w3.org/2000/svg"
 width="512.000000pt" height="512.000000pt" viewBox="0 0 512.000000 512.000000"
 preserveAspectRatio="xMidYMid meet">
<metadata>
Created by potrace 1.16, written by Peter Selinger 2001-2019
</metadata>
<g transform="translate(0.000000,512.000000) scale(0.100000,-0.100000)"
fill="#000000" stroke="none">
<path d="M2167 4380 c-15 -12 -32 -40 -38 -63 -18 -62 -15 -201 5 -290 11 -47
15 -93 11 -116 -3 -21 -1 -58 5 -83 11 -41 9 -50 -13 -94 -14 -27 -31 -70 -38
-94 -13 -48 -19 -260 -7 -260 4 0 11 -12 14 -27 4 -16 17 -49 30 -74 l23 -46
-40 -18 c-22 -10 -42 -23 -46 -27 -3 -5 13 0 36 11 22 12 44 21 48 21 4 0 21
-16 36 -35 l28 -35 -40 -52 c-73 -99 -124 -222 -145 -357 -14 -83 -19 -95 -86
-197 -85 -128 -216 -391 -259 -519 -65 -194 -82 -453 -41 -610 40 -151 127
-300 222 -378 l41 -34 -19 -26 c-10 -15 -25 -27 -32 -27 -22 0 -62 32 -88 69
-20 30 -24 32 -24 14 0 -27 43 -79 81 -99 26 -13 29 -20 29 -63 0 -33 6 -56
20 -73 10 -14 17 -28 14 -31 -13 -12 76 -27 164 -27 l92 0 0 -38 c0 -81 101
-122 265 -107 83 8 122 23 152 59 29 34 54 33 80 -3 27 -36 85 -51 195 -51
142 0 201 30 214 107 l6 39 83 11 c46 6 100 19 118 28 89 42 167 146 167 223
0 37 -20 90 -51 133 -26 37 -38 29 -79 -50 -31 -62 -81 -114 -123 -130 -31
-12 -126 -15 -151 -5 -28 11 -18 30 42 84 117 107 184 226 216 382 14 66 15
108 7 275 -9 190 -28 301 -61 363 -7 12 0 40 24 96 79 190 111 472 72 650 -8
38 -20 103 -26 144 -6 41 -13 83 -16 94 -5 14 -3 16 7 10 8 -4 2 7 -13 26
l-27 34 31 38 c16 21 35 38 42 38 6 0 28 -11 49 -25 20 -14 37 -23 37 -21 0 3
-18 17 -39 32 l-39 25 30 62 c43 86 58 148 58 242 0 85 -17 168 -50 243 -18
41 -19 46 -4 75 12 23 15 46 10 89 -4 37 0 81 9 121 17 72 19 206 5 259 -14
51 -35 68 -79 68 -48 0 -87 -28 -206 -149 -75 -77 -98 -94 -140 -106 -61 -17
-324 -19 -403 -2 -52 10 -57 14 -149 123 -134 159 -193 196 -246 154z m81 -24
c31 -17 94 -81 176 -181 85 -102 92 -104 333 -105 119 0 213 4 230 11 15 5 78
59 138 118 61 60 125 116 144 125 40 21 75 14 93 -17 19 -32 16 -237 -4 -308
-9 -34 -12 -62 -7 -70 14 -22 10 -71 -10 -107 -17 -33 -17 -35 6 -83 42 -88
63 -226 47 -308 -5 -25 -12 -31 -33 -32 -25 -2 -25 -2 -3 -6 20 -4 23 -9 17
-31 -3 -15 -11 -29 -16 -30 -5 -2 -7 -7 -5 -11 9 -14 -60 -116 -77 -115 -9 1
-14 -3 -11 -8 7 -11 -24 -48 -41 -48 -7 0 -20 9 -30 21 -11 11 -46 38 -80 61
-59 40 -60 41 -23 35 20 -3 65 -17 100 -31 34 -14 54 -19 44 -11 -10 8 -49 24
-85 36 -82 27 -81 27 -74 44 3 9 20 16 42 17 l36 1 -37 4 c-21 2 -38 8 -38 13
0 5 -2 15 -6 23 -4 11 7 16 43 21 66 8 108 36 123 81 7 20 9 39 6 42 -3 4 -6
-1 -6 -10 0 -33 -48 -73 -108 -92 l-60 -18 -34 27 c-49 37 -56 32 -14 -8 51
-47 47 -59 -16 -53 l-53 6 53 -11 c49 -10 52 -13 52 -40 0 -23 -4 -29 -16 -24
-8 3 -13 2 -10 -3 8 -13 -18 -21 -46 -14 -15 4 -8 -5 22 -25 25 -17 59 -45 75
-63 28 -29 28 -31 7 -26 -12 3 -20 1 -16 -4 3 -5 -1 -9 -8 -9 -20 0 -80 87
-65 94 11 6 -9 3 -75 -11 -51 -10 -158 46 -158 83 0 22 43 84 59 84 19 0 51
29 51 46 0 24 -37 34 -124 34 -76 0 -86 -2 -96 -21 -9 -16 -8 -25 6 -40 9 -10
25 -21 35 -24 26 -9 52 -62 45 -91 -12 -46 -126 -86 -181 -63 -17 7 -33 12
-37 11 -17 -4 -7 9 15 19 17 7 14 8 -17 3 -37 -5 -39 -4 -25 12 12 16 12 17
-3 12 -10 -4 -19 -1 -22 8 -4 11 6 14 47 15 l52 1 -52 10 c-66 12 -69 27 -5
30 l47 1 -42 4 c-50 5 -53 16 -15 57 l27 29 -32 -22 c-18 -12 -33 -26 -33 -31
0 -5 -15 -3 -32 5 -18 7 -55 16 -82 20 -34 5 -57 16 -73 33 -13 14 -23 21 -23
15 0 -23 51 -53 120 -70 69 -17 75 -20 77 -45 1 -23 -3 -28 -30 -33 -87 -16
-175 -39 -199 -51 -38 -20 -46 -18 -63 15 -14 27 -13 30 3 34 13 4 12 5 -4 6
-18 1 -24 12 -38 66 -30 121 -14 260 40 353 25 43 25 43 8 89 -14 36 -15 53
-7 83 8 30 6 53 -8 107 -23 88 -25 249 -4 300 23 56 45 64 93 39z m600 -928
c3 -13 -3 -16 -25 -15 -23 2 -31 -4 -43 -30 -19 -41 -25 -41 -37 0 -8 28 -13
32 -41 31 -35 -2 -35 -3 -26 21 10 24 167 18 172 -7z m-380 -141 c2 -12 -27
-31 -107 -71 l-109 -55 -32 36 -32 35 42 19 c62 28 194 60 225 54 6 -1 11 -9
13 -18z m-29 -84 c-24 -27 -46 -49 -49 -51 -4 -1 -22 4 -40 12 l-34 14 80 40
c43 22 81 38 83 36 2 -2 -16 -25 -40 -51z m464 -5 c23 1 53 3 65 4 17 2 31 -7
49 -29 l25 -33 -28 -11 c-16 -6 -54 -15 -84 -19 -30 -5 -73 -16 -95 -24 -51
-19 -89 -20 -151 -2 -40 12 -175 36 -199 36 -3 0 6 22 21 50 22 41 30 48 45
40 32 -18 112 -11 164 13 l50 23 48 -24 c32 -17 62 -25 90 -24z m221 16 c38
-28 46 -38 35 -46 -11 -7 -9 -8 5 -4 11 4 26 0 38 -10 17 -16 17 -18 2 -35
-16 -18 -20 -16 -85 49 -38 37 -69 70 -69 75 0 16 27 5 74 -29z m-632 -41
c-27 -50 -28 -51 -57 -39 l-30 13 48 48 c60 61 79 51 39 -22z m-142 -19 l39
-16 -15 -29 -15 -29 -46 31 c-43 30 -45 33 -28 46 23 16 17 16 65 -3z m797
-43 c21 -26 21 -28 3 -39 -16 -10 -21 -7 -34 20 -9 17 -16 35 -16 40 0 17 26
6 47 -21z m-850 -14 l51 -32 -23 -55 c-13 -30 -24 -62 -24 -70 0 -8 9 8 20 35
33 82 39 84 114 47 63 -31 94 -38 35 -7 -28 15 -29 16 -15 48 9 21 20 31 32
30 50 -4 155 -24 211 -40 59 -17 65 -17 125 0 34 10 90 24 124 32 34 7 71 18
82 24 16 9 21 6 30 -21 16 -44 14 -53 -11 -67 -23 -11 -23 -11 2 -5 55 13 80
16 80 8 1 -5 7 -31 15 -59 16 -60 20 -33 4 31 -10 40 -10 46 7 59 17 12 21 10
37 -13 34 -50 85 -158 104 -218 37 -121 15 -419 -43 -592 -25 -75 -154 -334
-154 -310 0 7 9 50 20 96 11 46 20 93 19 105 -1 36 -58 -163 -64 -223 -3 -30
-8 -68 -11 -85 -7 -44 8 -23 75 104 58 113 59 114 54 65 -6 -55 -46 -217 -123
-499 -95 -345 -120 -449 -126 -527 -6 -69 -9 -78 -27 -78 -13 0 -5 -8 24 -23
50 -27 89 -78 88 -116 -1 -24 -2 -24 -10 7 -5 17 -11 32 -13 32 -1 0 -1 -24 2
-54 4 -47 2 -55 -17 -65 -20 -11 -21 -9 -21 31 0 26 -8 57 -21 77 -26 44 -32
36 -13 -18 26 -76 2 -121 -64 -121 -29 0 -30 1 -34 60 -3 38 -10 67 -21 77
-15 15 -15 14 -5 -19 11 -37 4 -103 -12 -113 -19 -12 -89 16 -113 44 -34 41
-42 124 -22 246 8 54 22 145 30 204 7 58 22 133 33 167 16 51 17 62 5 70 -20
13 55 104 144 176 70 56 129 120 152 166 18 35 6 26 -24 -18 -24 -35 -143
-140 -158 -140 -3 0 3 23 14 50 31 81 21 81 -22 -2 -22 -42 -71 -112 -108
-155 -38 -43 -74 -89 -81 -103 l-14 -25 -7 25 c-8 24 -8 23 -6 -5 1 -16 -5
-56 -12 -89 -7 -32 -11 -70 -8 -84 6 -34 -19 -93 -37 -86 -24 9 -36 110 -26
229 17 209 13 318 -15 401 -25 76 -71 174 -81 174 -2 0 0 -9 6 -20 6 -11 8
-20 5 -20 -10 0 -55 106 -65 152 -9 42 -9 41 -6 -17 2 -33 6 -69 10 -80 4 -11
-13 2 -38 28 -25 27 -46 46 -46 43 0 -25 48 -92 94 -131 30 -26 66 -70 82 -98
24 -44 28 -66 32 -153 2 -56 1 -137 -3 -181 l-8 -78 -13 87 c-12 83 -63 252
-85 287 -12 18 -12 20 20 -96 29 -107 40 -203 51 -450 9 -189 14 -234 34 -300
43 -139 41 -173 -14 -200 -24 -12 -25 -11 -32 33 -3 24 -16 59 -28 77 -12 18
-18 23 -14 12 4 -11 10 -45 12 -76 l4 -56 -32 -7 c-66 -13 -78 -9 -89 29 -5
20 -8 53 -5 73 4 37 4 37 -12 -8 -8 -25 -13 -55 -11 -68 3 -18 0 -22 -19 -22
-29 0 -64 33 -64 59 0 11 5 32 10 47 16 42 2 41 -16 -1 -8 -21 -14 -49 -11
-62 3 -15 1 -21 -5 -15 -5 5 -11 25 -15 45 -4 29 1 51 26 101 17 35 31 79 31
98 0 53 -44 313 -115 678 -36 184 -68 376 -72 425 -8 89 -8 88 -11 -62 -1 -84
-6 -153 -11 -153 -11 0 -53 55 -79 105 -27 51 -27 40 -1 -30 11 -31 43 -83 71
-116 27 -33 53 -72 59 -87 12 -37 98 -544 99 -582 0 -27 -39 43 -82 148 -24
57 -44 98 -46 93 -2 -6 10 -58 27 -115 17 -57 31 -108 31 -114 0 -6 -13 -13
-29 -17 -16 -3 -43 -17 -62 -31 -56 -41 -83 -33 -159 45 -150 155 -233 427
-187 608 17 65 57 153 86 188 10 13 7 12 -12 -4 -15 -14 -38 -47 -52 -75 -30
-60 -32 -39 -6 69 30 124 77 248 150 395 52 105 165 300 174 300 1 0 1 -41 -1
-90 -4 -95 6 -159 33 -224 23 -55 27 -40 8 29 -44 159 -1 478 88 665 36 77 96
169 109 169 3 1 28 -14 57 -32z m161 7 c2 -1 -16 -48 -24 -62 -1 -1 -15 5 -32
15 -30 17 -30 18 -15 44 15 24 19 26 42 16 14 -6 27 -12 29 -13z m646 -11 c14
-29 15 -38 4 -44 -21 -14 -24 -11 -36 28 -19 62 4 74 32 16z m162 -67 c22 -83
17 -96 -16 -37 -16 29 -35 60 -41 67 -9 11 -8 19 7 35 16 18 19 18 27 3 5 -9
16 -40 23 -68z m-5 -1196 c14 -111 6 -192 -31 -300 -15 -47 -27 -86 -25 -88 2
-2 20 30 40 70 l37 73 -6 -70 c-4 -38 -12 -90 -18 -115 -16 -65 -72 -184 -115
-242 -34 -47 -150 -144 -160 -134 -3 2 5 40 17 83 71 256 202 799 207 858 l7
70 18 -58 c10 -33 23 -99 29 -147z m-591 -565 c0 -8 -4 -15 -10 -15 -5 0 -7 7
-4 15 4 8 8 15 10 15 2 0 4 -7 4 -15z m-42 -85 c-7 -10 -14 -18 -15 -16 -6 6
9 36 18 36 5 0 4 -9 -3 -20z m752 -82 c39 -64 19 -171 -42 -224 -25 -22 -74
-54 -83 -54 -3 0 1 10 10 23 8 13 18 45 22 72 l6 48 -33 -6 -32 -7 34 38 c19
21 45 62 58 90 13 29 27 52 32 52 5 0 17 -15 28 -32z m-1213 -114 c38 -28 43
-90 13 -139 -12 -19 -24 -35 -27 -35 -3 0 -3 29 0 65 4 36 4 65 1 65 -12 0
-34 -73 -34 -113 0 -43 -1 -45 -34 -50 -47 -7 -74 1 -82 26 -10 32 -6 104 7
129 11 21 11 22 -4 10 -23 -19 -40 -79 -34 -118 5 -29 3 -34 -13 -34 -10 0
-31 11 -47 24 -53 46 -29 139 48 179 48 25 167 20 206 -9z m433 12 c0 -3 -4
-8 -10 -11 -5 -3 -10 -1 -10 4 0 6 5 11 10 11 6 0 10 -2 10 -4z"/>
<path d="M2184 4304 c-37 -56 -37 -225 0 -335 10 -30 13 -55 8 -69 -8 -22 6
-100 18 -100 16 1 60 52 60 70 0 24 53 60 89 60 23 0 24 1 6 20 -24 27 -47 32
-81 20 -28 -10 -28 -9 -9 6 15 11 37 14 83 12 34 -2 62 -2 62 -1 0 12 -78 56
-121 67 l-54 15 45 0 c48 1 116 -25 139 -52 7 -10 20 -17 29 -17 31 0 -32 51
-113 92 -74 36 -77 39 -40 35 22 -3 49 -8 60 -12 15 -6 14 -3 -5 11 -26 19
-49 45 -50 55 0 4 10 9 23 13 18 5 36 -9 104 -82 46 -48 83 -81 83 -74 0 14
-235 268 -261 283 -30 16 -58 10 -75 -17z"/>
<path d="M3280 4303 c-43 -16 -215 -174 -252 -232 -43 -68 -33 -71 15 -5 52
70 134 147 147 139 6 -3 6 -15 0 -29 -5 -13 -6 -27 -3 -30 4 -3 2 -6 -3 -6 -6
0 -19 -7 -30 -15 -17 -13 -15 -13 18 0 21 8 50 15 65 15 24 -1 21 -4 -24 -26
-29 -14 -74 -46 -100 -70 -50 -47 -43 -49 15 -5 26 19 48 25 95 28 59 2 60 2
19 -7 -46 -10 -122 -48 -122 -62 0 -4 24 -8 54 -8 37 0 60 -5 73 -17 10 -10
14 -15 9 -10 -14 10 -74 9 -97 -3 -27 -15 -24 -30 6 -30 27 0 84 -25 86 -38 0
-4 2 -15 4 -24 2 -10 -2 -18 -8 -18 -6 0 4 -11 23 -24 l34 -23 18 39 c13 28
15 45 8 63 -7 17 -5 37 6 67 9 25 18 92 21 158 4 104 3 118 -16 148 -20 31
-31 36 -61 25z"/>
<path d="M2899 3937 c44 -51 51 -64 51 -101 0 -23 -7 -52 -16 -64 -8 -12 -10
-22 -5 -22 16 0 41 55 41 90 0 26 -12 44 -61 93 l-62 62 52 -58z"/>
<path d="M2627 3947 c-77 -66 -94 -118 -56 -172 12 -16 18 -21 13 -10 -4 11
-9 39 -12 62 -4 39 -1 46 48 98 60 63 62 69 7 22z"/>
<path d="M2690 3903 c0 -7 12 -25 28 -41 15 -15 20 -19 11 -7 -9 11 -21 29
-27 40 -6 11 -12 14 -12 8z"/>
<path d="M2811 3899 c-1 -9 -10 -24 -20 -33 -19 -17 -20 -17 -24 6 -3 13 -4 6
-4 -14 1 -21 4 -38 7 -38 11 0 52 70 47 82 -4 9 -6 8 -6 -3z"/>
<path d="M2418 3793 c7 -3 16 -2 19 1 4 3 -2 6 -13 5 -11 0 -14 -3 -6 -6z"/>
<path d="M3028 3793 c12 -2 32 -2 45 0 12 2 2 4 -23 4 -25 0 -35 -2 -22 -4z"/>
<path d="M2366 3691 c-76 -25 -88 -38 -35 -37 32 1 44 -4 53 -19 49 -87 99
-116 169 -97 31 9 40 7 61 -9 31 -24 39 -12 27 42 -27 118 -136 166 -275 120z
m124 -14 c0 -7 -4 -17 -9 -22 -4 -6 -4 -25 1 -43 11 -42 37 -40 52 4 10 27 14
30 34 23 50 -19 9 -89 -52 -89 -26 0 -41 8 -65 35 -35 41 -38 57 -14 85 20 22
53 27 53 7z"/>
<path d="M2986 3695 c-21 -7 -51 -25 -66 -40 -31 -29 -56 -104 -46 -132 7 -17
8 -17 18 0 9 17 18 18 77 12 59 -6 70 -4 101 17 19 13 46 43 59 67 23 42 25
43 65 37 41 -6 41 -6 14 9 -31 17 -133 45 -163 45 -11 -1 -37 -7 -59 -15z m81
-11 c-3 -3 -12 -4 -19 -1 -8 3 -5 6 6 6 11 1 17 -2 13 -5z m-87 -62 c0 -46 48
-56 57 -12 4 25 10 30 34 30 38 0 38 -23 0 -61 -21 -20 -39 -29 -63 -29 -36 0
-82 26 -73 41 4 5 1 9 -5 9 -8 0 -8 6 0 20 14 25 50 27 50 2z"/>
<path d="M3238 3403 c12 -2 32 -2 45 0 12 2 2 4 -23 4 -25 0 -35 -2 -22 -4z"/>
<path d="M2168 3393 c12 -2 32 -2 45 0 12 2 2 4 -23 4 -25 0 -35 -2 -22 -4z"/>
<path d="M3198 3363 c6 -2 18 -2 25 0 6 3 1 5 -13 5 -14 0 -19 -2 -12 -5z"/>
<path d="M3248 3353 c7 -3 16 -2 19 1 4 3 -2 6 -13 5 -11 0 -14 -3 -6 -6z"/>
<path d="M2363 3343 c15 -2 39 -2 55 0 15 2 2 4 -28 4 -30 0 -43 -2 -27 -4z"/>
<path d="M2243 3333 c9 -2 25 -2 35 0 9 3 1 5 -18 5 -19 0 -27 -2 -17 -5z"/>
<path d="M2198 3323 c7 -3 16 -2 19 1 4 3 -2 6 -13 5 -11 0 -14 -3 -6 -6z"/>
<path d="M2943 3313 c20 -2 54 -2 75 0 20 2 3 4 -38 4 -41 0 -58 -2 -37 -4z"/>
<path d="M3168 3296 c40 -8 86 -19 104 -25 17 -6 33 -9 36 -7 8 8 -102 37
-158 42 -51 4 -50 3 18 -10z"/>
<path d="M2243 3053 c-36 -46 -53 -78 -24 -43 34 40 63 80 58 80 -3 0 -18 -17
-34 -37z"/>
<path d="M2180 2960 c-6 -11 -8 -20 -6 -20 3 0 10 9 16 20 6 11 8 20 6 20 -3
0 -10 -9 -16 -20z"/>
<path d="M2156 2915 c-9 -26 -7 -32 5 -12 6 10 9 21 6 23 -2 3 -7 -2 -11 -11z"/>
<path d="M2292 2895 c0 -16 2 -22 5 -12 2 9 2 23 0 30 -3 6 -5 -1 -5 -18z"/>
<path d="M3163 2845 c0 -38 2 -53 4 -32 2 20 2 52 0 70 -2 17 -4 1 -4 -38z"/>
<path d="M2141 2864 c0 -11 3 -14 6 -6 3 7 2 16 -1 19 -3 4 -6 -2 -5 -13z"/>
<path d="M2128 2798 c-16 -133 58 -269 169 -307 87 -30 195 -128 234 -213 16
-36 29 -26 29 20 0 39 -30 115 -50 127 -7 4 -5 -5 4 -23 27 -52 18 -56 -27
-16 -23 22 -71 60 -107 86 -36 26 -76 64 -89 83 -28 42 -39 40 -16 -4 22 -43
12 -39 -41 15 -63 65 -86 115 -93 204 -6 73 -7 74 -13 28z"/>
<path d="M3223 2565 c0 -95 2 -123 9 -105 12 31 12 164 -1 205 -6 21 -8 -8 -8
-100z"/>
<path d="M3153 2494 c-1 -33 -8 -76 -17 -97 -8 -21 -10 -35 -5 -31 31 19 49
121 30 169 -5 12 -8 -2 -8 -41z"/>
<path d="M2866 2500 c4 -33 0 -55 -14 -80 -25 -45 -51 -52 -46 -13 2 15 1 20
-2 10 -5 -15 -10 -11 -33 21 -16 21 -41 46 -57 57 -25 16 -23 12 13 -29 44
-50 60 -97 48 -138 -7 -21 -6 -22 11 -8 98 74 121 126 89 195 -13 30 -14 30
-9 -15z"/>
<path d="M2145 2266 c17 -78 75 -164 128 -189 39 -19 87 -23 87 -7 0 6 -7 10
-15 10 -54 0 -135 75 -183 169 -18 36 -22 39 -17 17z"/>
<path d="M2665 2175 c46 -126 56 -174 53 -237 l-4 -66 76 68 c99 89 158 154
170 186 17 43 10 51 -10 13 -10 -19 -26 -41 -35 -49 -14 -12 -15 -10 -5 14 5
15 10 39 9 54 -1 25 -2 25 -9 -6 -9 -37 -47 -96 -88 -136 l-29 -26 4 32 c3 28
2 30 -7 13 -5 -11 -15 -33 -22 -50 -12 -30 -12 -30 -15 -5 -7 47 -26 95 -61
155 -18 33 -31 51 -27 40z"/>
<path d="M2966 1757 c-22 -40 -32 -66 -23 -58 18 14 72 119 66 125 -2 3 -22
-28 -43 -67z"/>
<path d="M2702 1685 c0 -16 2 -22 5 -12 2 9 2 23 0 30 -3 6 -5 -1 -5 -18z"/>
<path d="M2672 1543 c-12 -47 -20 -88 -18 -90 5 -6 48 156 44 168 -2 5 -13
-30 -26 -78z"/>
<path d="M1956 1585 c4 -11 9 -72 13 -135 6 -96 8 -109 15 -77 12 52 2 154
-18 197 -9 19 -13 26 -10 15z"/>
<path d="M2635 1410 c-4 -17 -5 -34 -2 -36 2 -3 7 10 11 27 8 42 0 50 -9 9z"/>
<path d="M2001 1105 c-30 -14 -52 -28 -49 -31 3 -3 34 9 69 25 35 16 57 30 49
30 -8 1 -39 -10 -69 -24z"/>
<path d="M3139 1288 c-13 -29 -50 -89 -82 -133 l-58 -80 50 53 c46 48 131 196
119 207 -2 3 -15 -19 -29 -47z"/>
<path d="M2039 3163 c-13 -16 -12 -17 4 -4 16 13 21 21 13 21 -2 0 -10 -8 -17
-17z"/>
<path d="M1994 3128 l-19 -23 23 19 c21 18 27 26 19 26 -2 0 -12 -10 -23 -22z"/>
</g>
</svg>