<?xml version="1.0" standalone="no"?>
<!DOCTYPE svg PUBLIC "-//W3C//DTD SVG 20010904//EN"
 "http://www.w3.org/TR/2001/REC-SVG-20010904/DTD/svg10.dtd">
<svg version="1.0" xmlns="http://www.w3.org/2000/svg"
 width="512.000000pt" height="512.000000pt" viewBox="0 0 512.000000 512.000000"
 preserveAspectRatio="xMidYMid meet">
<metadata>
Created by potrace 1.16, written by Peter Selinger 2001-2019
</metadata>
<g transform="translate(0.000000,512.000000) scale(0.100000,-0.100000)"
fill="#000000" stroke="none">
<path d="M555 5073 c-27 -26 -42 -44 -32 -40 10 4 37 8 60 9 38 1 39 2 9 5
l-33 4 26 35 c14 19 25 34 23 34 -2 -1 -25 -22 -53 -47z"/>
<path d="M711 5080 c-6 -22 -17 -40 -22 -40 -6 0 -8 -7 -5 -16 3 -9 -4 -25
-19 -40 -13 -13 -21 -24 -17 -25 4 0 -3 -4 -16 -10 -13 -5 -21 -13 -18 -18 3
-5 -4 -11 -17 -15 -22 -6 -22 -6 8 -31 17 -13 26 -24 20 -25 -5 0 9 -19 32
-42 53 -56 103 -127 103 -147 0 -9 -8 -3 -19 15 -30 49 -43 50 -16 2 15 -26
25 -59 25 -84 0 -22 9 -88 19 -146 25 -134 28 -192 12 -212 -7 -9 -23 -48 -35
-88 -18 -58 -22 -95 -20 -177 1 -71 5 -106 14 -111 18 -11 3 -30 -18 -24 -13
4 -14 3 -4 -4 10 -7 6 -22 -22 -68 -20 -32 -36 -62 -36 -67 0 -4 21 3 48 17
26 13 58 26 72 30 14 4 -12 -11 -56 -32 -80 -39 -82 -41 -103 -96 -11 -31 -28
-89 -38 -129 l-17 -72 -7 55 c-10 71 -33 138 -67 198 -27 46 -31 63 -21 92 30
84 72 217 84 265 41 161 58 471 31 573 -16 59 -53 127 -103 189 -18 23 -29 44
-24 47 5 4 26 -18 47 -46 50 -70 51 -71 51 -53 0 8 -3 15 -7 15 -9 0 -65 83
-63 92 3 8 -18 5 -33 -4 -6 -4 -20 0 -30 10 -10 9 -29 16 -41 14 -23 -3 -76
20 -105 46 -29 25 -21 50 32 102 28 27 50 54 50 60 0 6 -25 10 -59 10 -32 0
-73 3 -90 6 -26 6 -31 4 -31 -14 0 -11 16 -31 35 -46 35 -27 46 -64 27 -93
-15 -24 -83 -44 -141 -42 -49 3 -101 -11 -101 -27 0 -3 10 -2 23 2 12 4 46 6
75 5 30 -1 76 5 103 14 49 17 50 16 93 -9 25 -15 60 -26 80 -26 48 0 52 -14
14 -43 -59 -43 -119 -60 -206 -56 -68 4 -86 8 -130 36 l-52 32 0 -59 c0 -65
-2 -64 84 -76 l49 -7 -34 -14 c-43 -18 -99 -61 -99 -75 0 -7 12 0 28 14 68 64
130 70 153 16 14 -35 6 -459 -11 -502 -7 -21 -4 -43 15 -101 18 -53 25 -95 25
-152 0 -87 -24 -178 -43 -166 -7 3 -9 3 -5 -2 11 -11 -20 -59 -51 -78 -14 -9
-20 -17 -13 -17 20 0 63 36 54 45 -4 5 0 6 9 2 12 -4 21 10 40 61 32 91 32
199 0 303 -19 63 -21 83 -13 110 6 19 14 113 17 209 7 195 -3 307 -31 327 -22
16 -21 17 47 37 59 17 169 84 193 117 13 19 15 18 55 -28 119 -140 140 -269
96 -604 -18 -138 -34 -199 -89 -356 l-43 -122 22 -19 c35 -30 71 -119 89 -214
16 -84 16 -89 -4 -145 -11 -32 -35 -78 -52 -103 -18 -25 -24 -38 -14 -31 10 8
38 43 63 78 25 35 49 61 53 58 22 -13 70 -117 88 -188 l20 -78 -23 -23 c-40
-40 -63 -177 -47 -275 7 -39 6 -60 -3 -78 -20 -39 -29 -137 -15 -177 9 -28 8
-46 -4 -88 -9 -29 -18 -74 -21 -100 -6 -49 -31 -76 -82 -92 l-23 -7 0 146 c0
232 -57 467 -145 601 -18 28 -71 86 -118 129 -94 85 -90 77 -107 241 -8 67
-21 131 -35 167 -13 31 -20 55 -15 52 5 -3 18 -1 28 4 13 7 23 6 33 -2 7 -7 5
-2 -4 10 -10 11 -26 20 -35 19 -9 -2 -25 7 -35 18 l-18 21 11 -24 c8 -16 9
-26 2 -33 -7 -7 -6 -17 3 -32 43 -67 61 -231 57 -508 -1 -71 -31 -174 -63
-219 -10 -14 -16 -29 -12 -32 3 -4 -2 -19 -12 -34 l-18 -28 28 25 c85 78 121
271 79 423 -10 34 195 -191 222 -245 23 -46 62 -164 120 -366 8 -29 14 -77 12
-105 l-3 -52 -17 30 c-23 41 -22 27 2 -30 28 -66 27 -85 -5 -55 l-26 24 14
-34 c8 -19 17 -52 20 -73 l6 -39 -39 60 c-49 76 -67 88 -29 20 30 -56 38 -86
14 -54 -17 23 -20 14 -5 -15 7 -12 8 -43 4 -82 -5 -44 -9 -56 -15 -42 -4 13
-6 4 -5 -25 1 -25 7 -54 14 -66 9 -17 7 -39 -9 -105 -12 -46 -24 -112 -29
-147 -7 -53 -15 -71 -52 -116 -23 -29 -44 -51 -45 -47 -1 3 -4 32 -8 63 -4 36
-15 69 -30 90 -13 18 -42 63 -65 100 -22 38 -43 68 -46 68 -3 0 23 -53 56
-119 60 -115 62 -119 55 -174 -4 -31 -11 -54 -16 -51 -5 3 -9 12 -9 20 0 30
-68 160 -104 199 -37 40 -39 34 -5 -16 35 -50 88 -165 103 -225 27 -103 15
-326 -20 -381 -8 -12 -39 -34 -69 -48 -91 -43 -95 -55 -95 -252 l0 -168 208 0
208 0 44 35 c25 19 87 69 137 112 123 103 163 113 196 48 16 -30 18 -52 14
-155 -3 -77 -11 -137 -22 -168 -10 -26 -19 -47 -21 -45 -2 2 6 46 16 98 24
113 25 178 6 225 -13 30 -20 35 -49 35 -40 0 -91 -31 -166 -103 -64 -62 -111
-124 -111 -146 0 -21 49 -42 80 -34 l25 6 -27 -22 c-16 -12 -28 -27 -28 -32 0
-6 12 -1 27 11 17 13 29 17 33 10 4 -6 11 -10 16 -9 5 1 20 1 34 0 25 -2 25
-2 -5 -16 l-30 -13 38 5 c24 4 37 2 37 -6 0 -6 -5 -11 -11 -11 -5 0 -7 -5 -3
-12 5 -8 2 -9 -12 -4 -10 4 -15 4 -11 0 4 -4 -1 -13 -11 -21 -15 -11 -13 -12
11 -3 40 14 54 12 31 -5 -10 -8 -15 -15 -10 -15 5 0 2 -8 -5 -17 -13 -17 -13
-17 12 -1 l25 16 -2 -34 c-4 -42 14 -54 38 -24 25 31 23 54 -14 108 l-31 47
38 -35 38 -35 -23 33 c-22 29 -28 34 -46 31 -4 0 -10 4 -13 9 -3 5 -21 17 -38
26 -40 20 -42 32 -7 40 99 25 164 -111 123 -257 -9 -33 -7 -44 18 -95 25 -52
28 -66 28 -174 0 -118 9 -155 18 -75 7 67 -11 209 -33 259 l-20 46 21 47 c14
32 19 57 15 80 -4 18 2 68 13 116 40 171 36 307 -10 356 -45 47 -74 33 -274
-131 -44 -36 -84 -66 -89 -66 -4 0 -5 12 -2 26 9 33 -4 325 -14 319 -10 -6 18
84 40 128 23 47 13 47 -24 -1 -17 -22 -26 -29 -23 -17 74 270 97 331 123 321
11 -4 14 7 12 62 l-1 67 -7 -50 c-6 -45 -7 -46 -10 -15 -4 57 0 81 26 154 14
38 23 71 21 73 -3 2 -14 -11 -26 -29 -11 -18 -21 -29 -21 -25 0 12 41 90 58
110 24 27 1 20 -31 -10 -34 -32 -30 -22 24 57 31 45 40 67 45 120 l7 65 -33
-30 -33 -30 21 31 c22 32 44 103 23 74 -9 -11 -10 -6 -7 25 3 22 8 67 11 100
3 33 17 84 31 114 13 30 22 56 19 59 -2 3 -14 -15 -25 -39 -23 -51 -27 -31 -5
30 10 30 12 49 5 67 -12 30 -11 118 0 154 6 20 8 15 9 -25 2 -57 30 -129 58
-143 25 -14 53 3 48 29 -3 14 1 20 13 18 30 -3 35 1 23 15 -9 11 -6 12 16 8
24 -4 26 -2 15 9 -7 8 -27 19 -45 26 -31 11 -31 11 23 12 31 1 61 -4 68 -11
26 -26 19 0 -8 30 -21 23 -38 32 -61 32 -48 0 -27 12 28 16 34 2 58 -3 83 -17
l35 -21 -30 27 -30 27 38 -7 c21 -3 46 -9 54 -12 13 -5 15 -1 9 23 -7 28 -7
28 13 10 57 -51 -2 57 -95 174 -132 168 -197 188 -230 73 -16 -56 -16 -82 1
-233 4 -40 4 -42 -5 -15 -17 50 -23 176 -11 239 22 119 82 138 179 57 63 -53
172 -175 172 -193 0 -6 -6 -6 -15 2 -24 20 -28 6 -5 -15 19 -17 42 -19 233
-20 151 -1 219 2 237 11 27 13 102 90 160 162 39 49 87 82 119 82 16 0 26 -10
37 -36 8 -20 13 -43 11 -52 -4 -13 -5 -11 -6 4 0 11 -10 29 -20 38 -30 28 -77
1 -159 -92 -83 -94 -118 -145 -128 -186 l-7 -28 27 17 c14 10 26 13 26 8 0 -5
19 -7 43 -5 37 3 40 2 24 -10 -15 -11 -9 -13 45 -11 62 2 62 2 17 -7 -40 -7
-89 -25 -89 -33 0 -2 16 -1 36 1 24 3 34 1 30 -6 -3 -6 0 -13 6 -16 7 -4 4 -5
-7 -3 -11 2 -26 -2 -33 -9 -10 -11 -2 -12 41 -8 l52 4 -32 -15 c-40 -18 -42
-24 -5 -17 25 5 26 4 13 -12 -13 -16 -12 -17 15 -10 26 6 28 6 16 -9 -11 -13
-8 -18 24 -33 35 -17 37 -17 50 1 17 23 18 59 3 87 -17 31 -2 33 15 1 16 -27
16 -27 10 31 -4 34 -3 61 3 65 13 8 25 111 13 111 -5 0 -11 -10 -13 -22 l-4
-23 -2 23 c0 12 -4 22 -9 22 -12 0 -179 -47 -193 -55 -8 -3 -5 1 6 10 25 20
96 41 169 50 l56 7 0 57 c0 65 -16 129 -38 154 -9 10 -29 17 -51 17 -33 0 -46
-10 -151 -120 -63 -66 -128 -124 -145 -130 -21 -8 -53 -8 -116 1 -64 9 -106
10 -161 2 -100 -14 -125 -8 -142 31 -7 17 -62 80 -121 140 -96 96 -110 115
-128 170 -28 88 -27 249 2 330 26 73 26 82 0 33 -35 -67 -32 -33 6 59 20 49
51 104 68 123 52 55 -3 20 -80 -52 l-67 -62 54 63 c30 35 54 68 52 73 -1 5 2
18 8 29 8 14 5 27 -10 52 -11 19 -21 44 -23 56 -2 12 -6 25 -10 28 -4 4 -7 32
-7 63 0 42 -3 52 -11 41 -8 -12 -9 -9 -5 13 4 15 9 53 11 85 6 69 29 142 56
176 16 20 18 30 10 45 -6 11 -11 39 -11 63 0 24 -7 68 -16 98 -23 83 -20 271
4 321 14 28 16 41 8 50 -6 6 3 4 21 -5 41 -21 46 -20 33 3 -5 11 -10 41 -10
67 l0 48 38 -35 37 -34 -36 40 c-25 27 -38 52 -41 77 -2 20 0 34 4 32 4 -3 8
-1 8 4 0 5 -10 14 -22 20 -18 8 -19 11 -6 11 11 1 15 6 12 15 -4 9 3 16 18 19
l23 4 -22 2 c-13 0 -23 8 -23 16 0 11 -13 15 -53 15 l-54 0 -12 -40z m-376
-10 c-3 -5 -14 -10 -24 -10 -10 0 -22 -10 -26 -22 l-8 -23 -4 23 c-4 18 -9 21
-29 16 -14 -4 -24 -2 -24 4 0 10 27 15 98 20 13 1 21 -2 17 -8z m402 -36 c-3
-3 -12 -4 -19 -1 -8 3 -5 6 6 6 11 1 17 -2 13 -5z m-51 -140 c18 -14 18 -14
-6 -3 -31 14 -36 19 -24 19 6 0 19 -7 30 -16z m64 -40 c0 -2 -9 0 -20 6 -11 6
-20 13 -20 16 0 2 9 0 20 -6 11 -6 20 -13 20 -16z m-59 -31 c13 -16 12 -17 -3
-4 -17 13 -22 21 -14 21 2 0 10 -8 17 -17z m95 -1899 c18 -14 18 -14 -6 -3
-31 14 -36 19 -24 19 6 0 19 -7 30 -16z m1001 -81 c-2 -16 -4 -3 -4 27 0 30 2
43 4 28 2 -16 2 -40 0 -55z m-999 43 c15 -8 47 -36 72 -63 l45 -48 -45 42
c-25 22 -61 50 -80 62 -39 24 -33 29 8 7z m921 0 c-2 -2 -15 -9 -29 -15 -24
-11 -24 -11 -6 3 16 13 49 24 35 12z m-32 -47 c-21 -11 -41 -26 -44 -34 -3 -8
-9 -13 -13 -10 -5 3 -11 1 -15 -5 -3 -5 -12 -10 -18 -10 -7 0 0 11 15 24 15
13 24 27 20 32 -4 4 -2 5 3 2 6 -4 24 0 40 7 46 21 54 16 12 -6z m-861 -29
c23 -11 49 -29 59 -40 13 -14 1 -11 -41 12 -33 18 -77 35 -99 39 l-40 6 39 2
c22 0 59 -8 82 -19z m904 11 c-27 -16 -83 -24 -76 -12 4 6 11 9 15 7 4 -3 13
-1 21 5 8 5 24 9 35 9 16 -1 17 -2 5 -9z m-950 -42 c0 -6 6 -9 13 -6 19 7 103
-31 91 -42 -12 -11 -134 -20 -128 -9 3 4 33 8 67 9 60 1 61 1 32 14 -16 7 -52
17 -80 21 -39 5 -46 9 -30 15 28 11 35 11 35 -2z m963 -49 c4 0 7 -4 7 -9 0
-6 -12 -6 -32 0 -18 5 -51 10 -73 10 -38 1 -38 2 -10 8 17 4 46 3 65 -1 19 -4
38 -8 43 -8z m44 -22 c-3 -7 -5 -2 -5 12 0 14 2 19 5 13 2 -7 2 -19 0 -25z
m-1087 -76 c0 -4 -4 -12 -9 -17 -5 -6 -11 -19 -14 -30 -3 -14 -5 -10 -6 11 0
17 2 34 6 37 9 10 23 9 23 -1z m-276 -576 c-6 -25 -24 -37 -24 -15 0 15 21 52
26 46 3 -3 2 -16 -2 -31z m346 -1211 c15 -18 9 -131 -9 -178 -11 -28 -11 -28
-43 -11 -23 12 -47 15 -90 11 -63 -6 -68 5 -12 23 33 11 67 10 105 -5 10 -4
16 0 16 9 0 26 -57 30 -122 8 -55 -19 -57 -19 -35 -2 28 21 85 40 126 41 l29
1 -30 10 c-24 7 -42 5 -84 -11 -72 -27 -52 -8 24 23 57 24 65 37 10 16 -15 -6
-24 -6 -20 -1 3 5 26 17 51 27 43 16 45 18 23 26 -19 7 -21 11 -9 18 23 15 56
12 70 -5z"/>
<path d="M708 843 c6 -2 18 -2 25 0 6 3 1 5 -13 5 -14 0 -19 -2 -12 -5z"/>
<path d="M1555 5068 c-8 -28 -15 -61 -14 -72 1 -12 7 2 14 29 6 28 17 60 24
73 7 13 8 22 2 22 -6 0 -17 -23 -26 -52z"/>
<path d="M1710 5118 c0 -10 78 -267 84 -276 3 -5 -8 -16 -24 -25 -16 -10 -63
-57 -104 -106 -41 -48 -90 -101 -109 -118 -34 -30 -37 -31 -147 -31 -62 0
-145 -4 -184 -7 l-72 -7 -120 119 c-66 66 -129 125 -141 131 -11 6 41 -50 115
-124 l136 -135 196 6 195 7 60 63 c33 35 89 95 125 133 39 42 77 73 95 78 36
9 75 -12 87 -46 8 -25 8 -25 -9 -4 -43 51 -92 35 -175 -55 -63 -67 -99 -124
-122 -189 -15 -41 -14 -42 4 -32 10 5 29 10 42 10 21 0 20 -2 -10 -21 -35 -23
-38 -38 -4 -20 12 6 45 11 74 10 l53 -1 -40 -13 c-22 -7 -32 -13 -21 -14 16
-1 17 -3 5 -18 -13 -15 -12 -15 8 -5 34 19 38 14 13 -13 l-24 -25 35 6 c28 6
32 4 22 -7 -15 -16 -17 -33 -3 -24 6 3 19 3 31 0 16 -5 18 -9 8 -21 -14 -16
-5 -28 26 -38 40 -12 74 86 40 114 -8 7 -15 18 -15 24 0 6 11 -1 24 -15 16
-19 25 -44 29 -87 4 -33 15 -75 26 -93 11 -19 27 -61 36 -94 8 -33 18 -68 21
-78 4 -14 3 -17 -6 -12 -9 6 -12 -9 -9 -61 1 -38 2 -88 1 -112 l-2 -43 -37 5
-38 6 33 -10 c17 -6 32 -12 32 -14 0 -12 -32 -76 -38 -76 -4 0 -38 16 -76 35
-72 37 -92 41 -116 25 -11 -8 -7 -9 14 -4 22 5 27 4 21 -6 -5 -9 -2 -10 15 -5
17 5 21 4 15 -6 -6 -9 -4 -11 8 -6 8 3 30 -2 49 -11 60 -31 60 -32 46 -50 -12
-15 -11 -15 4 -4 14 11 18 11 26 -5 14 -26 31 -161 37 -288 2 -60 9 -124 14
-141 7 -27 4 -40 -19 -81 -61 -106 -72 -206 -39 -337 9 -37 16 -46 33 -46 15
0 17 3 8 9 -19 12 -44 116 -45 186 -1 62 27 141 73 205 17 24 19 33 9 51 -6
12 -17 101 -25 198 -7 97 -16 187 -19 199 -3 14 -2 21 4 18 5 -3 11 0 14 8 3
8 -1 13 -10 12 -22 -2 -41 30 -26 45 8 8 16 6 31 -9 18 -18 21 -18 35 -4 14
14 18 14 41 -1 13 -9 46 -42 73 -74 26 -32 71 -81 100 -110 64 -62 103 -73
268 -73 113 0 127 -4 103 -28 -6 -6 -9 -14 -7 -17 3 -2 24 22 48 56 23 33 72
93 107 134 36 41 63 75 60 75 -3 0 -29 -9 -58 -21 -92 -36 -98 -39 -98 -34 0
3 17 12 38 21 94 40 133 53 127 44 -8 -14 8 -13 22 1 7 7 20 8 30 5 15 -6 14
-9 -12 -20 -40 -17 -137 -123 -197 -216 l-49 -75 23 -10 c13 -5 26 -13 29 -17
10 -14 51 40 55 72 2 17 0 29 -4 26 -5 -3 -9 1 -9 9 0 10 4 12 12 5 12 -10 25
-4 25 12 0 5 -4 7 -9 3 -5 -3 -13 -1 -16 5 -4 6 -2 9 3 8 6 -2 32 19 58 47 30
31 49 44 52 36 2 -7 -14 -32 -37 -55 -46 -47 -54 -67 -16 -42 27 18 75 38 75
32 0 -2 -20 -14 -45 -26 -25 -12 -45 -26 -45 -32 0 -6 7 -7 18 -3 9 4 31 9 47
11 l30 3 -30 -8 c-58 -15 -92 -43 -131 -106 l-18 -30 27 24 c15 14 30 22 33
18 4 -3 16 0 28 8 11 8 29 15 40 15 14 0 8 -7 -19 -21 -22 -12 -46 -21 -52
-22 -7 0 -21 -10 -30 -21 -18 -21 -18 -21 5 -2 12 11 22 14 22 8 0 -7 7 -12
16 -12 8 0 12 -5 8 -11 -4 -8 0 -7 15 1 12 6 27 9 34 6 8 -3 8 -5 -2 -5 -11
-1 -11 -4 -1 -16 7 -8 16 -12 21 -9 5 3 9 -6 9 -20 0 -16 10 -32 30 -46 l30
-21 9 23 c9 21 10 22 10 2 1 -11 10 -54 21 -95 25 -93 25 -187 1 -260 -24 -71
-49 -119 -61 -119 -6 0 -10 -9 -10 -20 0 -10 -8 -24 -17 -29 -10 -6 -13 -11
-7 -11 39 -1 110 132 128 242 l12 71 17 -44 c16 -43 24 -170 10 -155 -6 6 -23
-47 -37 -114 -2 -8 -8 -26 -13 -40 -8 -18 -7 -30 3 -45 8 -11 14 -24 14 -30 0
-5 -4 -4 -9 4 -8 12 -12 12 -25 2 -9 -8 -16 -20 -16 -27 0 -8 -23 4 -54 30
-30 24 -64 47 -75 51 -12 3 -21 11 -21 16 0 5 -10 10 -22 10 -18 1 -17 3 7 9
17 4 44 5 60 3 l30 -3 -30 14 c-16 7 -68 19 -115 26 -47 7 -89 18 -95 23 -6 6
3 7 28 3 20 -3 54 -8 75 -11 l37 -4 -40 13 c-29 9 -41 19 -43 35 -3 20 -8 22
-43 19 -64 -6 -56 18 11 33 33 7 56 17 53 23 -4 5 1 7 11 3 9 -4 14 -3 11 2
-3 5 3 12 13 15 10 4 32 20 48 38 l29 31 -35 -25 c-49 -36 -110 -65 -163 -79
-42 -10 -46 -13 -36 -32 10 -18 9 -19 -10 -14 -11 3 -21 1 -21 -4 0 -5 11 -9
24 -9 29 0 43 -36 17 -43 -14 -4 -14 -5 2 -6 16 -1 25 -21 9 -21 -4 0 -8 -9
-9 -20 -1 -11 2 -20 7 -20 5 0 36 -32 70 -70 43 -51 60 -78 59 -98 -1 -27 -1
-27 -10 5 -13 44 -136 173 -160 168 -11 -2 -19 0 -19 6 0 5 -15 9 -32 8 l-33
0 31 -12 c17 -7 46 -28 63 -48 26 -31 29 -38 17 -48 -12 -10 -17 -9 -24 6 -5
10 -7 24 -4 32 3 8 0 11 -6 7 -6 -3 -13 -2 -17 4 -3 5 -17 10 -30 10 -33 0
-122 35 -146 56 -26 24 -24 38 14 81 18 21 41 59 51 85 21 58 40 76 61 58 13
-11 15 -9 15 13 0 24 2 25 34 15 53 -17 99 -3 140 42 20 22 36 49 36 60 0 19
49 40 95 40 13 0 16 3 9 10 -8 8 -25 8 -57 0 -31 -6 -55 -7 -72 0 -102 39
-218 -26 -250 -139 -32 -115 -27 -110 -111 -108 -79 2 -91 -6 -56 -41 10 -10
28 -35 42 -56 l23 -39 -36 -33 c-46 -43 -81 -52 -117 -30 -33 19 -54 21 -44 4
4 -6 3 -8 -3 -5 -5 3 -17 -7 -27 -24 -9 -16 -13 -29 -7 -29 5 0 5 -12 -2 -30
-10 -26 -13 -28 -19 -13 -14 37 -6 59 37 104 42 44 49 64 19 52 -8 -3 -17 3
-20 12 -5 13 -15 16 -43 11 l-36 -5 40 14 c22 7 54 14 70 15 25 2 23 4 -15 11
-25 5 -67 7 -95 4 -42 -4 -46 -3 -25 6 14 6 62 9 107 7 51 -2 76 0 66 6 -19
10 -198 14 -208 4 -4 -4 -1 -24 8 -45 l15 -37 -37 -18 c-20 -10 -27 -15 -16
-12 56 18 61 17 79 -24 l18 -40 35 37 35 36 -35 -43 c-35 -43 -35 -44 -22 -83
8 -22 11 -37 6 -34 -5 2 -11 -12 -14 -33 -25 -196 -39 -261 -73 -329 -19 -40
-40 -73 -45 -73 -6 0 -8 -3 -5 -8 2 -4 -2 -16 -11 -27 -14 -19 -14 -19 -13 10
1 17 1 35 0 40 -1 6 -1 46 -1 90 2 84 -16 170 -47 231 -17 33 -17 41 -4 91 14
55 10 103 -8 103 -6 0 -6 -9 1 -22 7 -17 5 -37 -9 -78 l-19 -55 28 -55 c31
-62 49 -147 49 -229 l0 -56 -20 25 -20 25 11 -30 c19 -53 28 -119 18 -132 -7
-8 -5 -21 5 -41 8 -16 13 -32 10 -35 -4 -3 3 -18 14 -34 10 -15 29 -48 40 -73
12 -25 33 -61 48 -80 27 -34 27 -34 -12 4 -21 22 -73 61 -114 88 -41 26 -79
51 -85 56 -5 4 -18 6 -29 4 -10 -2 -16 0 -12 6 6 10 -43 36 -52 27 -3 -3 1 -5
9 -5 12 0 11 -2 -1 -11 -12 -8 -10 -9 9 -4 15 5 21 3 17 -3 -4 -7 8 -15 29
-21 49 -13 182 -97 202 -127 9 -14 19 -50 22 -82 5 -39 11 -56 20 -54 7 1 10
-2 6 -8 -3 -6 -11 -8 -16 -5 -5 4 -9 2 -9 -3 0 -5 -87 -12 -192 -15 l-193 -6
-45 36 -45 36 50 -52 c51 -54 112 -99 71 -52 l-19 21 69 2 c148 6 304 3 304
-5 0 -13 62 49 137 135 108 124 173 146 189 61 9 -48 -2 -180 -21 -258 -13
-50 -14 -69 -5 -85 15 -28 4 -115 -17 -136 -14 -14 -13 -20 10 -67 32 -64 46
-125 47 -198 l0 -56 88 -6 c48 -4 107 -13 132 -22 25 -8 32 -12 15 -9 -115 22
-247 31 -243 17 4 -14 -21 -73 -30 -73 -5 0 -8 -10 -8 -22 1 -16 15 -32 44
-51 24 -15 82 -66 130 -114 l87 -86 -86 81 c-94 87 -165 139 -176 128 -4 -4
-1 -17 6 -29 11 -18 11 -20 0 -10 -7 7 -17 13 -21 13 -19 0 -4 -23 53 -77 34
-32 70 -71 82 -88 11 -16 -12 5 -52 48 -40 42 -77 77 -81 77 -11 0 -7 -37 14
-116 12 -47 15 -95 12 -195 -4 -127 -6 -140 -49 -267 -34 -98 -44 -141 -40
-167 l6 -35 120 0 120 0 -6 69 c-7 81 5 178 27 222 14 28 14 30 -1 18 -14 -12
-15 -11 -10 6 21 69 16 77 -13 23 -17 -32 -32 -58 -34 -58 -5 0 12 89 24 125
5 17 32 68 60 115 28 47 48 91 45 98 -3 8 0 10 7 6 7 -5 9 -2 5 9 -24 63 -18
183 9 173 8 -3 14 -3 14 -1 0 9 -105 58 -160 76 -30 10 -48 18 -39 18 23 1
127 -36 167 -60 40 -23 50 -16 54 36 4 67 8 94 26 197 29 159 60 208 175 283
27 17 28 17 53 -6 l24 -23 -47 -50 -48 -50 54 47 c29 26 58 47 64 47 7 0 -5
11 -26 25 -20 14 -37 30 -37 35 0 28 138 88 253 110 32 7 56 14 53 17 -9 9
-127 -17 -190 -43 -32 -13 -74 -36 -93 -50 l-35 -26 -35 33 c-37 35 -36 22 1
-20 l21 -23 -25 -17 c-13 -9 -49 -36 -80 -60 -36 -30 -46 -35 -28 -15 33 36
67 155 57 199 -4 17 -7 48 -8 69 l-1 39 -21 -19 -22 -19 22 42 c24 48 28 81 5
43 l-15 -25 5 30 c3 17 10 66 17 110 14 101 40 171 79 214 30 33 31 34 17 70
-16 40 -33 140 -18 106 8 -19 9 -18 22 8 10 23 10 32 1 45 -43 58 -54 103 -50
202 4 120 -14 106 -20 -15 -3 -55 1 -97 12 -134 9 -30 16 -78 16 -107 0 -28 7
-70 15 -93 14 -42 14 -43 -19 -92 -41 -59 -50 -86 -71 -209 -9 -52 -19 -97
-22 -100 -3 -3 -3 42 0 100 4 73 14 130 32 185 31 95 42 235 27 344 -13 87 1
233 24 269 24 36 57 47 96 31 18 -7 94 -75 168 -150 139 -142 162 -156 225
-146 26 4 35 2 38 -11 4 -15 5 -15 6 1 1 15 13 17 111 17 81 0 110 -3 110 -12
0 -10 2 -10 8 -1 5 7 29 17 55 22 65 12 140 81 270 250 52 68 82 87 122 77 62
-16 96 -208 61 -345 -19 -73 -20 -98 -6 -103 17 -5 14 -94 -4 -119 -21 -31
-20 -43 9 -103 28 -58 48 -177 40 -239 -3 -23 -16 -80 -27 -125 -16 -64 -26
-86 -42 -92 -18 -7 -18 -9 -3 -9 14 -1 16 -5 8 -19 -5 -10 -8 -43 -5 -72 5
-50 4 -53 -13 -39 -17 13 -17 12 1 -8 16 -19 64 -212 83 -334 15 -101 -77
-318 -252 -589 -59 -91 -117 -185 -129 -210 -36 -71 -89 -210 -83 -216 3 -4
33 47 66 112 33 66 103 184 156 264 122 183 207 355 238 479 l23 94 23 -53
c37 -85 54 -185 46 -270 l-7 -75 -19 35 c-11 19 -17 25 -14 13 6 -24 25 -133
25 -147 0 -6 -6 -2 -13 8 -12 16 -14 9 -14 -55 0 -41 -5 -85 -11 -99 l-11 -25
-1 30 c-2 26 -4 23 -16 -20 -8 -27 -23 -95 -34 -150 -11 -55 -23 -111 -26
-123 -3 -14 -1 -21 5 -18 5 4 15 41 22 83 l12 77 12 -35 c7 -18 15 -55 19 -81
l7 -48 125 0 c68 0 124 4 124 9 0 4 11 25 25 45 21 31 22 35 6 26 -45 -24 -41
-5 12 56 43 50 41 50 -30 2 -29 -20 -44 -25 -49 -17 -4 7 -3 9 4 5 6 -3 20 7
32 24 12 16 41 42 66 56 24 14 42 30 39 34 -6 10 79 40 112 40 13 0 23 -4 23
-8 0 -5 -5 -57 -11 -116 -6 -59 -8 -119 -5 -132 6 -22 11 -24 72 -24 64 0 66
1 60 23 -30 103 -38 141 -43 198 -3 36 -1 74 4 83 6 11 2 48 -13 114 -38 166
-48 234 -46 320 2 132 45 205 106 182 22 -8 32 -22 24 -33 -2 -2 9 -18 25 -36
15 -18 24 -37 21 -43 -3 -5 2 -16 12 -24 17 -14 17 -15 2 -10 -10 3 -18 1 -18
-4 0 -6 9 -10 20 -10 11 0 33 -13 50 -28 l29 -28 -42 -21 c-23 -11 -55 -32
-72 -46 -42 -35 -84 -74 -65 -60 9 7 42 24 74 38 74 33 110 28 44 -5 -26 -13
-50 -30 -53 -37 -5 -15 3 -12 46 20 24 17 28 18 64 3 21 -9 40 -14 43 -11 3 2
-10 11 -29 19 l-34 15 33 7 c28 6 32 11 32 38 0 39 -20 72 -104 166 -36 41
-66 78 -66 83 0 4 -15 17 -32 28 -29 18 -30 20 -8 14 21 -5 22 -4 7 5 -10 6
-31 9 -46 5 -24 -5 -32 -16 -50 -63 -29 -75 -38 -199 -20 -288 7 -38 12 -72
11 -76 -1 -4 4 -34 12 -67 13 -56 12 -64 -8 -118 -20 -54 -23 -58 -56 -61 -62
-6 -109 -22 -137 -48 l-28 -25 -12 83 c-7 46 -17 108 -22 139 -13 79 8 178 43
201 8 6 8 8 -1 8 -6 0 -21 -16 -33 -36 -31 -49 -37 -139 -16 -238 9 -43 16
-100 16 -127 0 -44 -3 -51 -26 -59 -18 -7 -25 -16 -22 -28 4 -13 -3 -22 -24
-31 -25 -11 -28 -17 -23 -41 4 -17 2 -31 -6 -36 -14 -8 -9 60 21 306 10 85 22
196 25 245 13 187 56 368 115 485 44 86 194 341 251 427 87 129 324 358 443
428 39 23 59 45 41 45 -9 0 -110 -64 -113 -72 -2 -5 -9 -5 -14 -2 -6 4 -8 3
-5 -3 7 -11 -40 -60 -48 -51 -4 3 4 14 17 24 23 19 23 20 20 234 -2 198 -1
219 19 275 16 44 23 93 27 190 4 83 8 119 13 100 6 -27 7 -25 8 15 l0 45 -25
-40 c-14 -22 -41 -74 -61 -115 -29 -62 -36 -90 -40 -163 -3 -48 -8 -85 -11
-82 -3 2 -15 29 -27 59 -20 50 -21 56 -6 82 26 48 21 157 -10 231 -27 65 -131
244 -138 237 -2 -2 22 -48 53 -102 68 -120 96 -195 96 -260 0 -64 -18 -115
-37 -108 -8 3 -11 1 -8 -4 3 -6 -5 -10 -19 -10 l-26 0 35 -47 c19 -27 48 -65
65 -87 20 -25 30 -50 31 -75 1 -20 2 -115 4 -212 l2 -176 -27 -16 c-15 -9 -58
-45 -97 -81 l-70 -65 -6 82 c-4 46 -18 121 -32 167 -14 46 -25 91 -25 101 0
10 -5 21 -11 24 -7 5 -8 -5 -3 -30 l7 -37 -26 26 c-18 18 -37 26 -59 26 l-33
0 26 -18 c76 -50 109 -122 116 -251 5 -90 4 -95 -11 -76 -16 19 -16 19 -5 -7
7 -15 16 -25 20 -22 5 3 9 -6 9 -20 0 -14 -25 -61 -57 -108 -31 -46 -94 -146
-140 -223 l-83 -140 0 76 c0 81 -18 191 -30 184 -4 -2 -28 41 -54 97 -25 55
-48 99 -51 97 -2 -3 4 -32 14 -64 65 -207 45 -425 -54 -590 -34 -57 -110 -144
-118 -135 -2 3 -17 37 -35 76 -23 50 -32 86 -32 123 0 56 -27 188 -39 196 -5
2 -2 -23 5 -58 7 -34 13 -78 12 -97 0 -32 -5 -14 -42 174 l-6 30 40 -39 c54
-53 51 -38 -5 26 -45 50 -46 52 -43 112 l3 62 30 -2 c27 -2 28 -1 10 9 -11 6
-21 12 -23 13 -1 1 7 36 18 76 41 147 36 284 -13 393 -23 50 -23 51 -5 91 11
24 17 60 17 90 -1 32 8 77 26 125 23 65 27 93 30 210 l3 135 -8 -135 c-8 -133
-24 -198 -65 -270 -19 -33 -18 -17 1 45 20 62 22 212 5 282 -24 99 -87 130
-151 77 -17 -15 -58 -62 -90 -104 -53 -69 -174 -190 -192 -190 -8 0 20 123 44
188 26 70 101 181 185 273 100 110 114 130 49 69 -89 -84 -185 -207 -222 -285
-19 -38 -42 -110 -53 -158 -11 -49 -22 -91 -25 -95 -4 -3 -70 -6 -147 -6
l-141 0 -58 176 c-32 96 -63 185 -69 197 -7 12 -21 70 -32 129 -12 58 -36 145
-56 192 -19 47 -37 92 -40 100 -3 8 16 -5 42 -30 43 -40 41 -37 -18 34 -37 43
-78 103 -92 132 -30 62 -50 188 -37 235 4 18 4 62 -1 97 -8 60 -6 66 15 91 23
26 23 26 1 7 -18 -14 -23 -16 -23 -5 0 8 -7 28 -16 44 -34 62 -74 146 -74 154
0 5 10 12 23 14 18 4 18 4 -6 6 -22 1 -31 9 -42 35 -35 83 -28 233 16 323 20
41 20 45 5 83 -18 45 -21 106 -7 115 6 3 4 23 -6 48 -23 63 -29 233 -10 279
35 83 80 67 271 -97 l127 -110 163 0 c114 0 167 -4 178 -12 12 -10 20 -7 44
20 16 17 19 23 7 13 -20 -17 -29 -17 -125 -5 -76 9 -121 9 -173 1 -83 -12 -88
-10 -229 116 -120 107 -188 148 -224 136 -44 -15 -65 -72 -64 -173 1 -47 7
-110 15 -139 8 -29 12 -73 9 -98 -2 -24 1 -64 8 -89 11 -41 10 -50 -10 -97
-16 -37 -24 -80 -28 -144 -5 -90 11 -194 28 -194 5 0 8 -20 7 -45 -2 -39 1
-45 18 -46 11 0 -18 -13 -65 -28 -96 -31 -152 -58 -201 -97 l-34 -26 32 30
c17 17 28 34 25 38 -4 4 -2 4 4 1 6 -4 19 -1 28 6 15 11 12 12 -21 12 -54 -2
-78 -12 -93 -41 -15 -27 -97 -88 -103 -76 -3 4 -7 41 -11 82 -4 41 -13 122
-21 180 -25 194 -26 214 -9 199 16 -13 15 -3 -7 81 -6 19 -13 87 -16 151 -6
119 8 221 43 313 12 32 13 51 3 116 -6 43 -9 103 -7 133 l3 56 -45 -51 c-25
-28 -53 -64 -62 -82 -10 -17 -18 -26 -18 -20 0 15 43 139 69 197 26 60 9 52
-24 -11 l-24 -47 0 35 c0 34 9 86 24 143 l7 27 -121 0 -121 0 0 -55 c0 -54
-26 -140 -52 -174 -7 -9 -3 -7 9 6 12 13 28 41 34 63 18 60 29 31 29 -76 0
-84 -3 -97 -33 -158 -18 -36 -28 -61 -21 -56 6 6 24 38 39 72 27 60 28 66 22
187 -5 108 -4 122 9 110 27 -28 56 -133 62 -224 3 -67 10 -97 24 -118 11 -15
24 -57 29 -94 5 -37 16 -89 24 -116 24 -82 29 -212 11 -297 -9 -41 -19 -111
-23 -156 l-6 -81 -96 5 c-53 2 -99 7 -102 11 -4 3 -10 22 -13 41 -3 19 -3 29
0 23 3 -7 10 -13 15 -13 6 0 6 7 0 19 -6 10 -8 21 -5 24 11 10 -27 141 -53
186 -28 48 -27 28 -4 261 4 41 4 120 -1 175 -10 119 -25 147 -84 155 l-39 5
-41 132 c-35 114 -54 164 -54 141z m139 -382 c-10 -9 -69 -36 -69 -32 0 7 52
35 64 36 5 0 7 -2 5 -4z m-20 -60 c-2 -2 -20 -11 -40 -19 -29 -12 -36 -12 -36
-1 0 7 4 11 8 9 4 -3 18 -1 31 4 24 10 44 14 37 7z m58 -43 c-3 -10 -5 -2 -5
17 0 19 2 27 5 18 2 -10 2 -26 0 -35z m-147 23 c0 -2 -8 -10 -17 -17 -16 -13
-17 -12 -4 4 13 16 21 21 21 13z m4 -41 c-24 -18 -20 -18 40 0 27 8 51 13 54
10 3 -2 -4 -7 -14 -11 -59 -19 -124 -51 -129 -63 -3 -9 0 -11 10 -7 8 3 15 1
15 -4 0 -12 -20 -13 -39 -1 -9 6 -10 11 -2 15 6 4 9 11 6 16 -5 9 53 60 69 60
6 0 1 -7 -10 -15z m51 -60 c-36 -10 -53 -11 -60 -3 -7 7 -6 9 2 4 6 -3 22 -2
35 3 12 6 34 10 48 9 15 0 5 -5 -25 -13z m-40 -45 c-27 -12 -43 -12 -25 0 8 5
22 9 30 9 10 0 8 -3 -5 -9z m420 -573 c23 -3 -70 -41 -150 -61 l-49 -13 54
-18 c62 -20 151 -67 170 -91 8 -8 -10 0 -38 19 -28 18 -84 45 -123 58 -68 23
-70 25 -65 53 3 16 6 38 6 50 0 21 2 22 88 14 48 -4 96 -9 107 -11z m615 -300
c0 -2 -17 -19 -37 -38 l-38 -34 34 38 c33 34 41 42 41 34z m96 -283 c-4 -20
-10 -34 -12 -31 -3 3 -2 21 2 41 3 21 9 35 11 32 3 -3 2 -21 -1 -42z m-121 6
c-3 -5 -11 -10 -16 -10 -6 0 -7 5 -4 10 3 6 11 10 16 10 6 0 7 -4 4 -10z m217
-231 c6 -4 12 -18 14 -31 1 -12 18 -64 38 -114 19 -50 42 -129 50 -175 8 -46
28 -124 44 -174 49 -148 48 -172 -3 -65 -26 52 -55 133 -66 180 -26 112 -56
205 -85 260 -19 37 -74 227 -74 257 0 4 16 -23 35 -61 19 -39 40 -73 47 -77z
m-332 -53 c0 -32 -36 -75 -77 -93 -28 -11 -38 -11 -60 -1 -41 20 -50 42 -30
72 10 14 21 26 26 26 8 0 26 -66 23 -82 -1 -5 7 -8 18 -8 14 0 25 10 33 29 12
27 16 31 37 31 6 0 10 11 10 25 0 14 5 25 10 25 6 0 10 -11 10 -24z m-12 -343
c-10 -2 -28 -2 -40 0 -13 2 -5 4 17 4 22 1 32 -1 23 -4z m51 -58 c15 -15 15
-16 -1 -9 -29 10 -21 -2 22 -34 29 -21 37 -31 26 -35 -8 -3 -20 1 -26 9 -7 8
-9 14 -5 14 12 0 -36 35 -80 58 l-40 21 44 -4 c24 -2 51 -11 60 -20z m-57
-141 l37 -69 3 -170 3 -170 -33 -95 c-19 -52 -40 -129 -47 -170 -19 -107 -48
-217 -53 -201 -4 12 -101 -193 -102 -216 0 -6 -4 -14 -10 -18 -5 -3 -7 15 -5
47 l5 53 -15 -55 c-9 -30 -18 -62 -21 -70 -3 -9 -20 22 -38 72 -19 48 -43 105
-55 128 -17 33 -21 58 -21 135 0 82 -3 98 -20 115 -26 26 -54 25 -96 -1 l-33
-20 -61 121 c-80 160 -97 232 -81 349 7 47 17 108 23 134 l10 49 19 -31 c24
-40 30 -39 18 1 -20 70 -3 152 25 126 7 -7 11 -20 9 -28 -4 -12 -2 -12 9 1 12
15 20 12 78 -38 96 -83 118 -88 214 -47 131 56 156 68 156 75 0 4 3 15 7 25 5
13 3 15 -8 9 -12 -8 -12 -6 0 8 7 9 17 14 22 11 21 -13 6 19 -27 58 -34 41
-34 41 7 -3 24 -25 61 -77 81 -115z m-272 126 c28 -11 65 -20 83 -20 l32 -1
-33 -28 c-19 -16 -53 -34 -76 -41 -48 -13 -84 -3 -145 44 -31 23 -32 26 -13
26 12 0 39 9 59 20 21 11 39 20 40 20 1 0 25 -9 53 -20z m-237 -15 c-3 -9 -8
-14 -10 -11 -3 3 -2 9 2 15 9 16 15 13 8 -4z m843 -7 l19 -23 -25 20 c-14 11
-27 21 -29 22 -2 2 0 3 6 3 5 0 18 -10 29 -22z m69 2 c10 -11 16 -20 13 -20
-3 0 -13 9 -23 20 -10 11 -16 20 -13 20 3 0 13 -9 23 -20z m-24 -37 c13 -16
12 -17 -3 -4 -10 7 -18 15 -18 17 0 8 8 3 21 -13z m1987 -46 c-6 -49 -56 -167
-71 -167 -13 0 0 134 14 138 5 2 7 8 3 13 -3 5 0 9 5 9 6 0 11 6 11 13 0 15
20 37 33 37 5 0 7 -19 5 -43z m-2228 -384 c0 -14 -5 -11 -20 12 -26 39 -26 65
0 32 11 -14 20 -33 20 -44z m2060 -410 c-112 -107 -139 -126 -94 -68 31 42
171 165 187 165 5 0 -37 -44 -93 -97z m-2521 -209 c26 -69 26 -102 0 -261 -20
-122 -29 -159 -29 -117 0 10 -11 42 -23 69 -22 47 -23 53 -10 95 9 27 12 67
10 100 -6 60 11 182 24 174 4 -2 17 -29 28 -60z m349 -110 c-15 -14 -137 -91
-132 -82 4 6 34 28 68 49 57 36 77 47 64 33z m-241 -66 c-3 -8 -6 -5 -6 6 -1
11 2 17 5 13 3 -3 4 -12 1 -19z m-3 -78 c-2 -80 -14 -91 -14 -13 0 48 5 73 14
73 1 0 0 -27 0 -60z m14 -369 c41 -11 76 -22 80 -25 9 -9 -12 -7 -45 4 -16 6
-63 17 -104 24 -50 9 -63 14 -39 15 19 0 68 -8 108 -18z m2192 15 c0 -2 -7 -7
-16 -10 -8 -3 -12 -2 -9 4 6 10 25 14 25 6z m-2317 -43 c-7 -2 -21 -2 -30 0
-10 3 -4 5 12 5 17 0 24 -2 18 -5z m-22 -120 c13 -16 12 -17 -3 -4 -17 13 -22
21 -14 21 2 0 10 -8 17 -17z"/>
<path d="M1699 4583 c-13 -15 -12 -15 9 -4 23 12 28 21 13 21 -5 0 -15 -7 -22
-17z"/>
<path d="M2043 3913 c9 -2 23 -2 30 0 6 3 -1 5 -18 5 -16 0 -22 -2 -12 -5z"/>
<path d="M2500 3040 c0 -17 17 -47 23 -40 2 3 -2 16 -10 30 -7 14 -13 18 -13
10z"/>
<path d="M2564 2563 c-2 -22 -1 -23 12 -6 13 17 14 17 7 -1 -5 -14 -3 -17 6
-11 10 6 11 2 6 -16 -4 -17 -3 -20 3 -10 8 11 12 10 21 -5 18 -32 12 -5 -8 35
-22 43 -45 49 -47 14z"/>
<path d="M2495 2139 c-104 -69 -145 -102 -161 -128 -15 -23 -13 -23 17 5 19
18 73 59 122 93 74 53 97 72 85 71 -2 0 -30 -19 -63 -41z"/>
<path d="M2862 5073 c-6 -29 -9 -59 -6 -68 8 -21 -19 -19 -38 3 -9 9 -20 31
-26 47 -9 26 -11 27 -11 7 -1 -13 4 -32 9 -42 9 -16 8 -18 -6 -13 -9 3 -22 20
-30 37 -10 24 -13 26 -14 10 0 -11 6 -28 13 -37 15 -21 96 -44 155 -43 23 1
42 -2 42 -6 0 -3 13 -9 28 -13 33 -7 122 -63 172 -108 31 -28 30 -27 -5 11
-22 24 -66 59 -99 79 -57 35 -58 36 -38 52 22 17 62 96 61 121 0 8 -9 -5 -20
-30 -21 -46 -65 -100 -82 -100 -6 0 -8 29 -4 73 5 70 5 71 -8 32 -7 -22 -14
-52 -14 -67 -1 -21 -6 -28 -20 -28 -27 0 -35 16 -41 80 l-6 55 -12 -52z m23
-73 c3 -5 1 -10 -4 -10 -6 0 -11 5 -11 10 0 6 2 10 4 10 3 0 8 -4 11 -10z"/>
<path d="M3374 5103 c27 -98 58 -194 61 -191 6 6 -50 208 -58 208 -5 0 -6 -8
-3 -17z"/>
<path d="M3530 5063 c29 -95 54 -153 64 -153 12 0 0 175 -14 197 -10 16 -11
15 -6 -7 3 -14 8 -56 11 -95 l5 -70 -19 40 c-11 22 -25 64 -32 93 -7 28 -16
52 -20 52 -4 0 1 -26 11 -57z"/>
<path d="M4095 5103 c35 -92 40 -181 19 -366 -6 -57 -7 -58 -65 -98 -40 -27
-60 -36 -63 -27 -22 75 -35 179 -26 202 15 42 12 44 -11 8 -20 -31 -20 -34 -5
-73 24 -59 31 -173 16 -244 -8 -33 -14 -85 -15 -115 0 -31 -7 -70 -14 -87 -11
-28 -10 -39 9 -90 33 -87 37 -187 11 -316 l-21 -108 55 -150 c69 -190 79 -243
72 -377 -6 -121 -30 -212 -83 -312 -31 -59 -32 -62 -8 -35 54 63 99 206 111
354 l6 85 34 -39 c53 -61 89 -131 127 -246 58 -171 69 -263 62 -484 -6 -149
-4 -201 7 -240 8 -27 24 -90 37 -140 12 -49 36 -116 52 -148 17 -32 34 -70 38
-85 l8 -27 1 25 c0 14 -6 36 -14 50 -22 38 -18 56 16 70 24 10 42 11 78 2 52
-12 77 -11 106 6 19 11 19 11 -6 12 -15 0 -31 6 -36 13 -10 12 -25 94 -68 354
-14 89 -36 181 -51 220 -27 69 -92 193 -100 193 -3 0 -3 -3 -1 -7 22 -39 89
-193 102 -235 8 -29 24 -126 35 -215 11 -89 27 -194 35 -233 8 -39 15 -73 15
-76 0 -2 -23 -4 -50 -4 -28 0 -64 -7 -80 -15 -38 -20 -41 -10 -33 123 6 119
-5 205 -39 298 -11 32 -21 79 -20 104 0 25 -5 131 -10 235 -8 143 -8 216 1
295 20 168 25 176 31 45 5 -103 10 -129 34 -185 15 -36 46 -114 67 -175 21
-60 39 -103 39 -95 0 28 -22 95 -74 225 l-51 130 0 152 c0 83 -3 149 -7 147
-12 -8 41 119 58 138 22 24 10 23 -29 -3 -18 -11 -5 5 28 35 60 56 67 73 17
38 -54 -37 -53 -34 2 20 45 44 56 60 56 86 0 25 -6 35 -22 41 -21 8 -19 10 17
17 35 7 37 8 15 14 -32 8 -43 57 -37 170 3 59 12 104 29 147 24 59 25 65 11
115 -8 32 -15 121 -17 223 l-4 170 8 -130 c12 -171 24 -263 37 -276 7 -7 12 7
17 48 5 45 3 67 -10 92 -23 46 -17 245 9 284 36 55 81 35 230 -101 l79 -72
126 7 c70 3 129 8 132 10 3 3 -51 3 -119 2 l-124 -4 -14 39 c-20 61 -57 102
-141 157 -42 29 -81 55 -86 60 -14 12 72 117 116 142 57 33 46 42 -13 11 -28
-16 -64 -46 -82 -68 -38 -50 -53 -67 -42 -46 21 40 60 82 102 111 40 28 44 34
30 44 -9 7 -13 16 -9 20 4 5 2 5 -4 2 -6 -4 -21 4 -33 17 -21 23 -22 24 -4 29
15 4 14 5 -4 6 -13 0 -28 10 -35 21 -9 14 -25 20 -53 22 -37 1 -37 2 -7 5 37
5 37 5 17 43 -15 28 -19 30 -79 30 l-64 0 -4 -45 -3 -45 50 5 c55 6 51 0 -7
-10 -34 -5 -38 -9 -38 -36 0 -27 3 -30 23 -24 l22 7 -22 -16 c-19 -14 -20 -20
-11 -54 14 -51 18 -55 36 -39 22 19 106 67 117 67 5 0 -18 -16 -51 -36 -78
-47 -97 -65 -84 -78 5 -5 10 -19 11 -31 0 -11 3 -14 6 -7 2 6 10 12 16 12 6 0
24 15 40 33 l29 32 -26 -35 c-15 -19 -42 -65 -60 -102 -30 -60 -34 -79 -41
-185 -4 -65 -13 -131 -20 -148 -6 -16 -50 -82 -96 -145 -140 -191 -192 -311
-210 -480 -20 -188 -27 -220 -55 -262 -24 -34 -29 -37 -35 -21 -4 10 -8 46 -8
81 -1 65 -17 149 -31 157 -5 3 -2 -20 7 -51 8 -31 13 -70 11 -87 -2 -24 -12
-3 -45 94 -27 80 -40 134 -36 151 5 27 6 27 34 13 15 -8 32 -15 36 -15 4 1 -9
10 -30 21 -25 13 -37 25 -33 34 3 8 10 52 16 98 12 90 3 174 -27 249 -12 31
-13 47 -4 83 6 24 11 65 11 90 0 66 28 166 53 194 30 32 117 81 145 81 22 0
22 -1 7 -36 -23 -55 -19 -53 24 14 58 89 74 142 77 252 4 121 10 152 35 185
12 14 18 29 15 33 -4 3 -11 0 -15 -7 -6 -9 -11 -10 -15 -2 -5 7 -44 11 -103
11 -87 0 -95 -2 -88 -17z m548 -100 c-7 -2 -19 -2 -25 0 -7 3 -2 5 12 5 14 0
19 -2 13 -5z m-73 -18 c-46 -18 -64 -17 -25 0 17 8 37 14 45 14 8 0 -1 -7 -20
-14z m137 -41 c-3 -3 -12 -4 -19 -1 -8 3 -5 6 6 6 11 1 17 -2 13 -5z m-21 -30
c-16 -9 -40 -28 -54 -43 -13 -14 -19 -18 -12 -8 20 27 -3 20 -56 -19 -45 -32
-46 -33 -14 -4 34 31 135 89 155 89 6 0 -3 -7 -19 -15z m-219 -1130 c-3 -3
-12 -4 -19 -1 -8 3 -5 6 6 6 11 1 17 -2 13 -5z m-47 -39 c-46 -18 -64 -17 -25
0 17 8 37 14 45 14 8 0 -1 -7 -20 -14z m-43 -1387 c3 -53 2 -109 -2 -125 -6
-25 -10 -18 -31 57 -25 85 -35 245 -18 272 14 22 45 -104 51 -204z"/>
<path d="M5075 5103 c-36 -9 -34 -17 6 -46 l39 -28 0 26 c0 21 -4 25 -19 20
-11 -3 -22 -1 -26 5 -4 6 4 10 19 10 14 0 26 5 26 10 0 10 -11 11 -45 3z"/>
<path d="M4883 5033 c9 -2 25 -2 35 0 9 3 1 5 -18 5 -19 0 -27 -2 -17 -5z"/>
<path d="M2975 5019 c-4 -6 -5 -12 -2 -15 2 -3 7 2 10 11 7 17 1 20 -8 4z"/>
<path d="M660 5000 c-6 -11 -8 -20 -6 -20 3 0 10 9 16 20 6 11 8 20 6 20 -3 0
-10 -9 -16 -20z"/>
<path d="M4808 5013 c7 -3 16 -2 19 1 4 3 -2 6 -13 5 -11 0 -14 -3 -6 -6z"/>
<path d="M4023 4970 c0 -25 2 -35 4 -22 2 12 2 32 0 45 -2 12 -4 2 -4 -23z"/>
<path d="M4748 5003 c7 -3 16 -2 19 1 4 3 -2 6 -13 5 -11 0 -14 -3 -6 -6z"/>
<path d="M3682 4895 c-1 -60 -5 -121 -7 -135 l-6 -25 11 24 c6 14 9 72 7 135
l-3 111 -2 -110z"/>
<path d="M490 4980 c34 -11 60 -11 35 0 -11 5 -29 8 -40 8 -16 0 -15 -2 5 -8z"/>
<path d="M4868 4983 c12 -2 30 -2 40 0 9 3 -1 5 -23 4 -22 0 -30 -2 -17 -4z"/>
<path d="M10 4935 c-11 -13 -10 -14 4 -9 9 3 16 10 16 15 0 13 -6 11 -20 -6z"/>
<path d="M465 4930 c27 -12 43 -12 25 0 -8 5 -22 9 -30 9 -10 0 -8 -3 5 -9z"/>
<path d="M5110 4929 c0 -5 -21 -19 -47 -31 -38 -17 -58 -19 -112 -14 -48 5
-63 4 -55 -4 6 -6 40 -12 75 -13 70 -1 149 30 149 58 0 8 -2 15 -5 15 -3 0 -5
-5 -5 -11z"/>
<path d="M4070 4909 c0 -8 -14 -43 -30 -79 -19 -41 -23 -56 -12 -41 23 28 57
120 48 128 -3 4 -6 0 -6 -8z"/>
<path d="M4004 4860 c-7 -30 -10 -57 -9 -59 6 -6 26 80 23 97 -2 9 -8 -8 -14
-38z"/>
<path d="M426 4891 c-4 -5 3 -7 14 -4 23 6 26 13 6 13 -8 0 -17 -4 -20 -9z"/>
<path d="M554 4888 c3 -17 144 -153 151 -146 3 3 -17 30 -44 60 -28 31 -48 58
-45 61 3 3 -8 13 -25 21 -36 19 -40 20 -37 4z"/>
<path d="M520 4867 c0 -2 15 -14 33 -27 20 -15 27 -17 18 -6 -13 16 -51 41
-51 33z"/>
<path d="M1131 4858 c-1 -30 37 -121 89 -208 63 -108 65 -96 3 18 -26 48 -57
114 -70 147 -12 33 -22 52 -22 43z"/>
<path d="M4856 4854 c-4 -9 -4 -19 -1 -22 3 -3 5 0 5 7 0 7 15 -2 33 -19 39
-38 139 -88 190 -97 32 -5 37 -3 37 14 0 17 -11 22 -59 32 -36 7 -81 26 -117
49 -33 21 -64 41 -70 45 -7 4 -15 0 -18 -9z"/>
<path d="M1271 4844 c-1 -21 19 -88 24 -82 2 2 -3 26 -10 53 -8 28 -14 41 -14
29z"/>
<path d="M4470 4795 c-8 -9 -8 -15 -2 -15 12 0 26 19 19 26 -2 2 -10 -2 -17
-11z"/>
<path d="M610 4797 c0 -2 15 -16 33 -33 l32 -29 -29 33 c-28 30 -36 37 -36 29z"/>
<path d="M804 4769 c-15 -17 -18 -36 -18 -107 0 -48 4 -125 8 -170 l8 -84 21
18 c12 10 16 12 10 4 -18 -19 -16 -65 3 -106 22 -45 28 -48 64 -29 26 13 29
19 19 31 -10 12 -9 13 6 8 13 -5 16 -4 11 4 -4 7 -15 12 -24 12 -15 1 -15 2 1
11 13 7 26 6 47 -5 38 -18 39 -9 3 21 -23 18 -25 22 -10 23 10 0 32 -7 50 -15
31 -16 31 -16 11 2 -12 10 -30 23 -40 30 -17 10 -14 12 21 13 31 1 35 3 20 9
-11 5 -24 6 -29 3 -5 -3 -6 0 -2 7 4 7 17 9 29 6 19 -5 19 -4 -3 10 l-25 15
30 -6 c17 -4 38 -11 47 -15 30 -16 42 -10 24 10 -22 25 -11 44 20 38 l24 -4
-27 36 c-58 78 -197 220 -228 235 -43 21 -48 20 -71 -5z m16 -53 c0 -2 -8 -10
-17 -17 -16 -13 -17 -12 -4 4 13 16 21 21 21 13z m66 -12 c18 -14 18 -14 -6
-3 -31 14 -36 19 -24 19 6 0 19 -7 30 -16z m69 -62 c-2 -2 4 -12 13 -21 10 -9
13 -13 7 -9 -7 4 -41 19 -76 33 -35 14 -50 23 -34 19 17 -3 35 -7 42 -8 7 -1
16 -5 19 -9 4 -4 12 -7 17 -7 6 0 0 12 -14 28 l-24 27 27 -24 c16 -14 26 -26
23 -29z m16 -52 c43 -22 47 -27 24 -27 -8 0 -15 4 -15 8 0 6 -55 27 -115 43
-11 3 0 3 23 0 24 -2 61 -14 83 -24z m-86 -14 c49 -13 119 -45 101 -46 -12 0
-166 51 -166 56 0 6 12 5 65 -10z m122 -61 c0 -8 -23 -8 -71 -3 -100 12 -104
17 -10 15 48 -1 81 -6 81 -12z m-69 -22 c-10 -2 -26 -2 -35 0 -10 3 -2 5 17 5
19 0 27 -2 18 -5z m25 -30 c-13 -2 -35 -2 -50 0 -16 2 -5 4 22 4 28 0 40 -2
28 -4z"/>
<path d="M2803 4778 c-45 -57 -42 -205 4 -312 13 -30 15 -40 5 -44 -6 -2 -12
-18 -12 -35 1 -31 1 -31 16 12 15 41 14 46 -5 92 -31 70 -38 186 -17 244 30
77 45 68 216 -128 41 -48 76 -93 78 -101 2 -8 10 -17 18 -20 12 -5 12 -2 0 22
-19 35 -198 245 -228 266 -27 19 -62 21 -75 4z"/>
<path d="M3814 4752 c-62 -45 -201 -207 -217 -254 -5 -15 -1 -18 26 -18 30 1
31 2 13 15 -18 14 -17 16 20 62 21 26 73 83 114 125 98 101 132 105 159 18
l11 -35 -5 35 c-6 38 -40 80 -65 80 -9 0 -35 -13 -56 -28z"/>
<path d="M4450 4759 c0 -5 5 -7 10 -4 6 3 10 8 10 11 0 2 -4 4 -10 4 -5 0 -10
-5 -10 -11z"/>
<path d="M3590 4687 c-80 -127 -89 -152 -18 -52 38 54 72 115 66 120 -2 2 -24
-28 -48 -68z"/>
<path d="M3942 4595 c-1 -46 -9 -84 -20 -107 -14 -26 -15 -35 -6 -31 21 8 35
76 31 146 l-3 62 -2 -70z"/>
<path d="M40 4600 c-22 -22 -40 -45 -40 -52 0 -6 1 -9 3 -7 2 2 23 25 47 52
52 57 45 62 -10 7z"/>
<path d="M368 4515 c6 -146 -11 -208 -74 -271 -24 -25 -36 -41 -27 -35 33 17
82 75 99 116 22 55 28 177 11 245 -14 55 -14 55 -9 -55z"/>
<path d="M22 4515 c-13 -19 -22 -40 -20 -46 2 -7 14 4 27 24 29 48 23 67 -7
22z"/>
<path d="M4145 4520 c-10 -11 -16 -22 -14 -24 2 -2 12 7 22 20 22 29 17 32 -8
4z"/>
<path d="M2981 4517 c25 -20 79 -44 79 -36 0 5 -16 17 -35 25 -31 13 -54 19
-44 11z"/>
<path d="M4658 4503 c6 -2 18 -2 25 0 6 3 1 5 -13 5 -14 0 -19 -2 -12 -5z"/>
<path d="M4757 4482 c4 -18 2 -21 -13 -16 -11 3 -4 -3 14 -15 18 -12 35 -21
38 -21 6 0 -9 28 -30 55 -15 20 -15 20 -9 -3z"/>
<path d="M4663 4473 c9 -2 23 -2 30 0 6 3 -1 5 -18 5 -16 0 -22 -2 -12 -5z"/>
<path d="M4642 4440 c-18 -4 -36 -10 -39 -13 -6 -7 59 2 102 13 l30 8 -30 0
c-16 0 -45 -4 -63 -8z"/>
<path d="M1412 4410 c0 -19 2 -27 5 -17 2 9 2 25 0 35 -3 9 -5 1 -5 -18z"/>
<path d="M3895 4425 c5 -11 9 -32 9 -47 1 -35 16 -25 16 11 0 16 -8 35 -17 42
-15 13 -16 12 -8 -6z"/>
<path d="M1271 4404 c0 -11 3 -14 6 -6 3 7 2 16 -1 19 -3 4 -6 -2 -5 -13z"/>
<path d="M3422 4400 c0 -14 2 -19 5 -12 2 6 2 18 0 25 -3 6 -5 1 -5 -13z"/>
<path d="M4697 4411 c23 -4 50 -14 60 -21 16 -13 16 -13 -1 8 -14 17 -29 22
-60 21 l-41 -2 42 -6z"/>
<path d="M3232 4370 c0 -14 2 -19 5 -12 2 6 2 18 0 25 -3 6 -5 1 -5 -13z"/>
<path d="M4596 4379 c2 -4 23 -5 47 -3 39 4 40 3 12 -6 -16 -6 -41 -19 -55
-30 l-25 -20 28 0 c16 0 26 4 23 9 -9 14 51 34 84 27 38 -7 38 -1 0 19 -30 15
-123 19 -114 4z"/>
<path d="M90 4370 c-8 -5 -10 -10 -5 -10 6 0 17 5 25 10 8 5 11 10 5 10 -5 0
-17 -5 -25 -10z"/>
<path d="M1262 4360 c0 -14 2 -19 5 -12 2 6 2 18 0 25 -3 6 -5 1 -5 -13z"/>
<path d="M5101 4364 c0 -11 3 -14 6 -6 3 7 2 16 -1 19 -3 4 -6 -2 -5 -13z"/>
<path d="M1421 4354 c0 -11 3 -14 6 -6 3 7 2 16 -1 19 -3 4 -6 -2 -5 -13z"/>
<path d="M3414 4322 c2 -29 9 -59 16 -65 10 -9 11 -9 5 2 -4 7 -11 36 -16 65
l-8 51 3 -53z"/>
<path d="M53 4345 c0 -8 4 -12 9 -9 5 3 6 10 3 15 -9 13 -12 11 -12 -6z"/>
<path d="M88 4313 c-27 -14 -46 -28 -44 -30 6 -6 96 40 96 49 0 11 2 11 -52
-19z"/>
<path d="M4922 4320 c0 -14 2 -19 5 -12 2 6 2 18 0 25 -3 6 -5 1 -5 -13z"/>
<path d="M1507 4281 c-5 -29 -6 -56 -3 -58 7 -8 18 61 14 88 -2 15 -7 3 -11
-30z"/>
<path d="M3502 4283 c-1 -28 -5 -60 -8 -70 -5 -17 -5 -17 6 0 6 9 9 41 7 70
l-3 52 -2 -52z"/>
<path d="M4981 4314 c0 -11 3 -14 6 -6 3 7 2 16 -1 19 -3 4 -6 -2 -5 -13z"/>
<path d="M1182 4290 c0 -19 2 -27 5 -17 2 9 2 25 0 35 -3 9 -5 1 -5 -18z"/>
<path d="M3153 4265 c0 -27 2 -38 4 -22 2 15 2 37 0 50 -2 12 -4 0 -4 -28z"/>
<path d="M140 4291 c19 -13 0 -47 -23 -43 -13 2 -12 -5 6 -47 27 -60 39 -47
35 36 -2 40 -7 58 -18 60 -13 4 -13 3 0 -6z"/>
<path d="M4913 4255 c0 -22 2 -30 4 -17 2 12 2 30 0 40 -3 9 -5 -1 -4 -23z"/>
<path d="M4971 4274 c0 -11 3 -14 6 -6 3 7 2 16 -1 19 -3 4 -6 -2 -5 -13z"/>
<path d="M1559 4253 l-24 -28 28 24 c25 23 32 31 24 31 -2 0 -14 -12 -28 -27z"/>
<path d="M4630 4261 c14 -11 30 -21 35 -21 11 0 -7 14 -40 31 -13 7 -12 3 5
-10z"/>
<path d="M3065 4254 c6 -5 23 -20 40 -34 29 -24 29 -24 10 -2 -11 13 -29 28
-40 34 -11 6 -15 6 -10 2z"/>
<path d="M1181 4234 c0 -11 3 -14 6 -6 3 7 2 16 -1 19 -3 4 -6 -2 -5 -13z"/>
<path d="M1134 4221 c21 -23 26 -26 26 -11 0 5 -10 15 -22 21 -23 12 -23 12
-4 -10z"/>
<path d="M3549 4223 c-13 -16 -12 -17 4 -4 16 13 21 21 13 21 -2 0 -10 -8 -17
-17z"/>
<path d="M517 4160 c-10 -68 -40 -136 -74 -172 -15 -16 -21 -28 -15 -28 37 0
107 155 100 222 -3 27 -5 23 -11 -22z"/>
<path d="M1555 4187 c-51 -28 -87 -95 -83 -152 3 -44 21 -51 26 -10 3 22 7 24
30 18 40 -10 95 -7 121 6 28 15 61 69 61 98 0 20 4 22 33 18 23 -4 15 2 -28
19 -75 31 -109 32 -160 3z m65 -7 c0 -5 -5 -10 -11 -10 -5 0 -7 5 -4 10 3 6 8
10 11 10 2 0 4 -4 4 -10z m40 -47 c0 -30 20 -21 21 10 1 16 3 17 6 5 5 -21
-15 -61 -27 -53 -6 3 -7 0 -4 -8 6 -16 -35 -37 -71 -37 -48 0 -84 62 -52 89
11 9 17 3 30 -29 29 -76 81 -61 75 21 -2 37 0 45 10 37 6 -6 12 -21 12 -35z"/>
<path d="M4872 4190 c0 -14 2 -19 5 -12 2 6 2 18 0 25 -3 6 -5 1 -5 -13z"/>
<path d="M4901 4194 c0 -11 3 -14 6 -6 3 7 2 16 -1 19 -3 4 -6 -2 -5 -13z"/>
<path d="M1015 4178 c-11 -7 -40 -18 -65 -24 l-45 -13 35 -1 c31 -1 37 -6 55
-43 12 -24 34 -50 54 -61 29 -17 40 -18 85 -9 29 7 55 7 60 2 6 -5 15 -4 23 2
10 9 15 6 23 -12 9 -21 10 -20 5 9 -9 60 -42 120 -77 142 -37 23 -120 27 -153
8z m38 -50 l-2 -43 8 38 c9 42 16 53 26 38 3 -6 1 -11 -4 -11 -15 0 -14 -83 1
-98 24 -24 -19 -13 -46 13 -28 26 -35 72 -14 93 23 23 34 13 31 -30z m119 5
c25 -23 23 -37 -13 -67 -38 -32 -56 -34 -35 -4 9 12 16 37 16 55 0 37 6 40 32
16z"/>
<path d="M2946 4159 c-74 -24 -78 -28 -23 -22 l44 5 7 -40 c4 -26 17 -52 38
-73 31 -31 34 -31 100 -26 37 3 68 2 68 -2 0 -5 9 -11 20 -14 14 -4 20 0 20
11 0 36 -22 93 -47 123 -52 61 -120 72 -227 38z m107 -34 c-32 -66 18 -130 51
-66 9 16 16 39 16 51 0 28 18 25 32 -5 10 -21 8 -29 -10 -48 -12 -13 -19 -28
-15 -33 5 -5 4 -6 -1 -2 -5 4 -17 3 -27 -2 -39 -21 -109 40 -109 95 0 20 30
41 62 44 17 1 17 -1 1 -34z"/>
<path d="M3023 4133 c-15 -5 -18 -33 -4 -33 5 0 11 9 14 20 3 11 4 20 4 19 -1
0 -8 -3 -14 -6z"/>
<path d="M3534 4164 c-17 -8 -40 -32 -52 -52 -24 -44 -33 -113 -14 -119 6 -3
12 3 12 12 0 13 6 15 38 8 20 -4 50 -6 66 -5 38 2 94 46 102 80 12 55 11 55
67 50 60 -6 41 2 -58 26 -86 20 -121 20 -161 0z m136 -19 c9 -11 9 -22 0 -50
-22 -65 -108 -97 -150 -55 -25 25 -25 44 -3 70 17 19 18 19 33 -23 30 -81 81
-51 67 39 -5 31 -3 34 17 34 13 0 29 -7 36 -15z"/>
<path d="M4845 4140 c10 -11 20 -20 23 -20 3 0 -3 9 -13 20 -10 11 -20 20 -23
20 -3 0 3 -9 13 -20z"/>
<path d="M4705 4091 c-30 -12 -42 -20 -29 -20 16 -1 23 -9 28 -31 12 -62 96
-105 160 -81 36 14 37 14 29 -6 -5 -12 -2 -15 9 -10 17 6 32 -21 42 -73 3 -14
3 7 2 45 -4 83 -30 142 -74 168 -46 26 -109 29 -167 8z m78 -41 c-5 -39 8 -70
29 -70 5 0 17 18 25 40 18 45 27 49 43 21 24 -46 -27 -81 -90 -62 -57 17 -82
77 -42 100 33 19 40 13 35 -29z"/>
<path d="M0 3998 c0 -32 3 -39 10 -28 8 12 10 10 10 -10 0 -15 -5 -31 -11 -37
-6 -6 -10 -16 -7 -23 7 -22 72 34 87 75 8 22 19 43 24 46 10 7 -42 19 -84 19
-27 0 -29 -2 -29 -42z m48 26 c24 -7 29 -33 12 -65 -14 -25 -26 -24 -33 4 -3
12 -9 32 -12 45 -8 23 -4 25 33 16z"/>
<path d="M4620 3966 c0 -21 59 -83 88 -91 33 -10 26 8 -11 25 -17 8 -42 30
-54 49 -15 21 -23 28 -23 17z"/>
<path d="M3784 3955 c-9 -22 -73 -58 -119 -66 -30 -5 -19 -6 40 -6 44 0 65 2
46 4 l-34 4 31 19 c27 17 61 60 47 60 -3 0 -8 -7 -11 -15z"/>
<path d="M2930 3925 c19 -19 36 -35 39 -35 3 0 -10 16 -29 35 -19 19 -36 35
-39 35 -3 0 10 -16 29 -35z"/>
<path d="M3226 3920 c4 -34 13 -52 37 -75 60 -57 70 -72 58 -93 -21 -40 -145
-81 -176 -58 -15 11 -23 7 -59 -33 -66 -73 -75 -92 -12 -27 56 59 78 69 56 24
l-11 -23 18 23 19 23 44 -34 c67 -50 104 -67 152 -67 47 0 121 30 155 62 22
21 23 21 45 2 13 -10 17 -12 11 -4 -22 24 -14 35 10 14 13 -10 8 -4 -11 15
-25 24 -36 30 -42 21 -14 -23 -116 7 -162 48 -27 23 -22 43 25 86 l42 39 -35
10 c-19 5 -60 7 -91 4 l-56 -5 -11 47 -11 46 5 -45z m152 -59 c23 -2 12 -21
-12 -21 -18 0 -26 -7 -29 -22 l-4 -23 -8 23 c-4 12 -16 22 -26 22 -18 0 -33
13 -24 22 4 3 51 3 103 -1z m9 -162 c26 -12 68 -24 93 -28 l45 -7 -47 -28
c-60 -35 -112 -49 -153 -42 -40 8 -131 65 -119 75 11 9 96 35 107 33 4 -1 7 3
7 8 0 15 13 12 67 -11z"/>
<path d="M1270 3932 c-17 -6 -11 -33 13 -53 28 -23 35 -23 39 -1 2 9 7 -7 11
-36 9 -63 3 -74 -62 -107 -67 -33 -107 -40 -127 -21 -8 9 -19 16 -24 16 -16 0
-137 -126 -154 -160 -18 -37 -12 -30 36 38 13 18 45 51 73 73 43 35 51 38 61
25 6 -9 14 -16 18 -16 4 0 18 -13 31 -28 57 -68 180 -109 249 -82 29 10 106
78 106 92 0 5 -15 -5 -32 -22 -40 -37 -105 -70 -139 -70 -13 0 -49 12 -79 26
-91 42 -131 94 -72 94 15 0 47 11 71 25 53 31 65 31 133 1 31 -14 72 -28 92
-31 20 -4 41 -15 47 -24 8 -13 9 -12 4 6 -3 12 -1 25 6 29 7 4 9 3 5 -4 -3 -6
-1 -14 5 -18 8 -4 9 -3 5 4 -4 7 -3 12 2 12 16 0 102 -101 127 -149 13 -26 24
-42 25 -38 1 21 -45 91 -95 145 -53 58 -56 59 -98 55 -50 -6 -132 24 -167 62
-20 21 -21 26 -9 59 7 20 18 36 24 36 13 0 61 48 54 54 -5 5 -166 12 -179 8z
m155 -22 c-8 -12 -145 -11 -145 1 0 5 34 9 76 9 47 0 73 -4 69 -10z"/>
<path d="M957 3888 c-6 -4 15 -7 48 -7 64 1 65 5 2 11 -20 2 -43 0 -50 -4z"/>
<path d="M1638 3883 c7 -3 16 -2 19 1 4 3 -2 6 -13 5 -11 0 -14 -3 -6 -6z"/>
<path d="M868 3873 c12 -2 32 -2 45 0 12 2 2 4 -23 4 -25 0 -35 -2 -22 -4z"/>
<path d="M1681 3876 c2 -2 49 -6 104 -8 65 -4 86 -3 60 3 -39 8 -172 12 -164
5z"/>
<path d="M2980 3870 c85 -18 116 -21 100 -11 -9 5 -45 12 -80 15 -58 5 -60 4
-20 -4z"/>
<path d="M3813 3873 c9 -2 23 -2 30 0 6 3 -1 5 -18 5 -16 0 -22 -2 -12 -5z"/>
<path d="M803 3863 c9 -2 23 -2 30 0 6 3 -1 5 -18 5 -16 0 -22 -2 -12 -5z"/>
<path d="M3657 3853 c18 -2 50 -2 70 0 21 2 7 4 -32 4 -38 0 -55 -2 -38 -4z"/>
<path d="M998 3843 c12 -2 30 -2 40 0 9 3 -1 5 -23 4 -22 0 -30 -2 -17 -4z"/>
<path d="M938 3833 c7 -3 16 -2 19 1 4 3 -2 6 -13 5 -11 0 -14 -3 -6 -6z"/>
<path d="M1673 3833 c9 -2 25 -2 35 0 9 3 1 5 -18 5 -19 0 -27 -2 -17 -5z"/>
<path d="M4965 3830 c-3 -6 -11 -8 -16 -5 -21 14 -6 -11 32 -52 22 -24 39 -51
37 -60 -8 -41 -120 -81 -151 -54 -11 8 -20 6 -41 -10 -14 -11 -26 -18 -26 -15
0 3 -16 -12 -36 -34 -20 -21 -33 -44 -29 -50 4 -7 29 13 62 50 36 39 59 58 65
52 6 -6 6 -17 -1 -30 -6 -11 -11 -27 -10 -34 0 -7 4 -4 9 7 5 11 9 14 9 8 1
-7 25 -28 53 -48 56 -37 117 -46 172 -25 44 17 28 28 -17 12 -27 -10 -55 -13
-77 -8 -35 7 -130 69 -130 85 0 5 18 11 40 15 22 3 56 14 75 23 36 17 38 17
123 -14 6 -3 12 -1 12 5 0 5 -17 17 -39 25 -58 23 -63 79 -10 107 13 7 19 19
17 33 -3 19 -10 22 -60 25 -32 2 -59 -2 -63 -8z m-165 -214 c0 -2 -8 -10 -17
-17 -16 -13 -17 -12 -4 4 13 16 21 21 21 13z m-48 -58 c-7 -7 -12 -8 -12 -2 0
6 3 14 7 17 3 4 9 5 12 2 2 -3 -1 -11 -7 -17z"/>
<path d="M2908 3823 c23 -2 61 -2 85 0 23 2 4 4 -43 4 -47 0 -66 -2 -42 -4z"/>
<path d="M3613 3823 c9 -2 23 -2 30 0 6 3 -1 5 -18 5 -16 0 -22 -2 -12 -5z"/>
<path d="M78 3813 c12 -2 32 -2 45 0 12 2 2 4 -23 4 -25 0 -35 -2 -22 -4z"/>
<path d="M3718 3813 c12 -2 30 -2 40 0 9 3 -1 5 -23 4 -22 0 -30 -2 -17 -4z"/>
<path d="M950 3800 c0 -5 7 -10 16 -10 8 0 12 5 9 10 -3 6 -10 10 -16 10 -5 0
-9 -4 -9 -10z"/>
<path d="M1018 3803 c7 -3 16 -2 19 1 4 3 -2 6 -13 5 -11 0 -14 -3 -6 -6z"/>
<path d="M1650 3801 c0 -11 72 -41 83 -34 16 10 6 24 -14 18 -16 -5 -19 -4
-14 6 6 9 2 11 -13 7 -12 -4 -22 -2 -22 3 0 5 -4 9 -10 9 -5 0 -10 -4 -10 -9z"/>
<path d="M4590 3800 c-19 -4 17 -5 80 -2 63 3 117 6 119 8 8 7 -163 2 -199 -6z"/>
<path d="M885 3776 c-27 -14 -47 -25 -44 -25 14 -2 99 32 99 40 0 12 3 12 -55
-15z"/>
<path d="M1088 3793 c6 -2 18 -2 25 0 6 3 1 5 -13 5 -14 0 -19 -2 -12 -5z"/>
<path d="M1558 3793 c18 -2 45 -2 60 0 15 2 0 4 -33 4 -33 0 -45 -2 -27 -4z"/>
<path d="M2983 3793 c9 -2 23 -2 30 0 6 3 -1 5 -18 5 -16 0 -22 -2 -12 -5z"/>
<path d="M984 3771 c-56 -21 -114 -49 -114 -57 0 -2 15 3 32 12 18 9 62 27 98
40 36 12 58 23 50 23 -8 0 -38 -9 -66 -18z"/>
<path d="M2928 3783 c6 -2 18 -2 25 0 6 3 1 5 -13 5 -14 0 -19 -2 -12 -5z"/>
<path d="M3600 3786 c0 -9 30 -14 35 -6 4 6 -3 10 -14 10 -12 0 -21 -2 -21 -4z"/>
<path d="M4858 3783 c7 -3 16 -2 19 1 4 3 -2 6 -13 5 -11 0 -14 -3 -6 -6z"/>
<path d="M1749 3762 c-13 -16 -12 -16 5 -2 18 14 19 13 13 -4 -6 -16 -5 -17 8
-6 8 7 15 8 15 3 0 -5 7 -10 15 -10 22 0 19 5 -14 21 -26 14 -30 14 -42 -2z"/>
<path d="M2888 3773 c7 -3 16 -2 19 1 4 3 -2 6 -13 5 -11 0 -14 -3 -6 -6z"/>
<path d="M3670 3770 c14 -4 34 -8 45 -8 16 0 15 2 -5 8 -14 4 -34 8 -45 8 -16
0 -15 -2 5 -8z"/>
<path d="M1005 3741 c-27 -17 -63 -42 -80 -56 -23 -21 -24 -23 -5 -11 14 9 44
29 66 44 23 15 50 32 60 39 38 24 8 12 -41 -16z"/>
<path d="M3000 3749 c-30 -11 -68 -25 -83 -31 -15 -6 -27 -12 -25 -14 2 -2 49
12 103 31 55 19 91 34 80 34 -11 0 -45 -9 -75 -20z"/>
<path d="M4705 3761 c-58 -6 -59 -6 -20 -12 22 -3 50 -2 63 2 13 5 35 7 50 4
23 -4 24 -4 7 4 -11 5 -24 9 -30 9 -5 -1 -37 -4 -70 -7z"/>
<path d="M3600 3756 c0 -2 36 -25 81 -51 95 -55 206 -160 242 -230 14 -27 26
-46 27 -42 0 4 -9 26 -21 49 -27 53 -108 139 -181 193 -31 24 -54 46 -50 50 4
5 1 5 -6 1 -7 -4 -18 -4 -25 1 -16 12 -67 34 -67 29z"/>
<path d="M3748 3753 c7 -3 16 -2 19 1 4 3 -2 6 -13 5 -11 0 -14 -3 -6 -6z"/>
<path d="M819 3748 c-1 -5 -2 -11 -3 -15 -1 -5 -5 -14 -9 -20 -11 -17 7 -17
21 0 7 8 7 18 2 27 -6 8 -10 12 -11 8z"/>
<path d="M1043 3704 c-38 -37 -40 -40 -7 -13 22 19 49 39 60 46 10 6 14 12 7
12 -6 1 -33 -20 -60 -45z"/>
<path d="M1607 3743 c-10 -10 -8 -25 2 -19 5 3 12 -1 15 -10 5 -14 9 -14 23
-3 14 12 25 4 91 -66 42 -44 62 -62 45 -40 -17 22 -43 51 -57 64 -14 13 -23
29 -19 35 3 6 3 8 -2 4 -4 -4 -21 4 -37 17 -30 25 -49 31 -61 18z m38 -12 c3
-5 1 -12 -4 -15 -5 -3 -11 1 -15 9 -6 16 9 21 19 6z"/>
<path d="M3788 3743 c7 -3 16 -2 19 1 4 3 -2 6 -13 5 -11 0 -14 -3 -6 -6z"/>
<path d="M18 3733 c7 -3 16 -2 19 1 4 3 -2 6 -13 5 -11 0 -14 -3 -6 -6z"/>
<path d="M1730 3736 c0 -2 8 -10 18 -17 15 -13 16 -12 3 4 -13 16 -21 21 -21
13z"/>
<path d="M1842 3724 c10 -10 20 -16 22 -13 3 3 -5 11 -17 18 -21 13 -21 12 -5
-5z"/>
<path d="M1979 3718 c-18 -33 8 -399 29 -420 9 -9 12 -8 12 4 0 9 16 31 35 50
l35 33 -22 17 c-28 21 -11 24 19 3 22 -15 37 -8 25 12 -4 6 -23 20 -42 32 -19
11 -28 21 -20 21 8 0 4 6 -10 13 -25 13 -40 47 -21 47 6 0 11 -4 11 -10 0 -5
15 -17 33 -26 17 -9 46 -33 64 -53 34 -40 38 -39 47 4 5 24 -1 42 -30 88 -20
33 -40 54 -46 51 -7 -4 -8 -2 -4 4 8 13 -60 89 -70 79 -3 -3 6 -13 20 -22 14
-10 24 -21 21 -25 -3 -5 3 -13 12 -19 10 -6 14 -11 10 -11 -5 0 0 -12 11 -27
31 -46 32 -50 17 -63 -13 -11 -14 -10 -10 1 4 11 -10 20 -50 33 -30 11 -55 23
-55 27 0 5 12 4 27 -2 18 -7 30 -6 37 1 8 8 6 9 -7 4 -12 -4 -17 -2 -15 7 2
10 -6 13 -27 11 -16 -1 -25 1 -20 5 11 9 14 104 3 96 -5 -2 -8 3 -8 11 0 26
30 18 61 -15 36 -39 145 -200 154 -228 3 -12 11 -21 16 -21 14 0 -27 98 -66
157 -46 70 -127 153 -148 153 -9 0 -22 -10 -28 -22z m8 -80 c-3 -8 -6 -5 -6 6
-1 11 2 17 5 13 3 -3 4 -12 1 -19z m88 -128 c13 -6 15 -9 5 -9 -8 0 -22 4 -30
9 -18 12 -2 12 25 0z"/>
<path d="M3725 3730 c-16 -7 -17 -9 -3 -9 9 -1 20 4 23 9 7 11 7 11 -20 0z"/>
<path d="M4670 3725 c-14 -8 -20 -14 -14 -15 5 0 19 7 30 15 24 18 16 19 -16
0z"/>
<path d="M68 3723 c7 -3 16 -2 19 1 4 3 -2 6 -13 5 -11 0 -14 -3 -6 -6z"/>
<path d="M3033 3695 c-42 -36 -123 -148 -123 -169 0 -6 14 12 30 40 16 28 56
76 89 107 66 63 68 77 4 22z"/>
<path d="M3458 3723 c7 -3 16 -2 19 1 4 3 -2 6 -13 5 -11 0 -14 -3 -6 -6z"/>
<path d="M3761 3726 c10 -9 89 -46 89 -41 0 5 -75 45 -86 45 -4 0 -5 -2 -3 -4z"/>
<path d="M3560 3713 c0 -2 29 -31 63 -66 125 -122 182 -244 175 -374 -3 -62
-8 -78 -37 -120 -20 -29 -25 -40 -13 -29 62 55 79 170 42 287 -25 82 -66 147
-146 229 -35 37 -62 69 -59 72 3 2 -2 5 -10 5 -8 0 -15 -2 -15 -4z"/>
<path d="M4657 3673 c-37 -20 -87 -54 -110 -76 -31 -28 -32 -31 -6 -10 53 44
168 105 181 97 6 -4 8 -3 4 4 -3 5 0 13 6 15 7 3 9 6 3 6 -5 0 -41 -16 -78
-36z"/>
<path d="M4755 3680 c-69 -34 -138 -96 -106 -96 11 0 18 3 16 7 -7 11 40 48
106 84 78 42 67 45 -16 5z"/>
<path d="M34 3676 c11 -9 24 -16 30 -16 12 0 7 5 -24 19 -24 11 -24 11 -6 -3z"/>
<path d="M1811 3665 c15 -17 36 -46 48 -65 11 -19 21 -30 21 -24 0 15 -52 85
-76 104 -10 8 -7 1 7 -15z"/>
<path d="M1700 3655 c13 -14 26 -25 28 -25 3 0 -5 11 -18 25 -13 14 -26 25
-28 25 -3 0 5 -11 18 -25z"/>
<path d="M0 3661 c0 -5 7 -12 16 -15 14 -5 15 -4 4 9 -14 17 -20 19 -20 6z"/>
<path d="M4732 3617 c-27 -28 -37 -44 -27 -44 8 0 15 5 15 11 0 5 14 25 32 43
18 18 30 33 27 33 -3 0 -24 -19 -47 -43z"/>
<path d="M4811 3575 c-12 -20 -18 -41 -15 -47 4 -5 15 9 25 33 24 53 18 61
-10 14z"/>
<path d="M852 3575 c-17 -37 -14 -45 4 -12 9 16 14 31 11 33 -2 2 -9 -7 -15
-21z"/>
<path d="M2759 3563 c-13 -16 -12 -17 4 -4 16 13 21 21 13 21 -2 0 -10 -8 -17
-17z"/>
<path d="M4599 3553 c-13 -16 -12 -17 4 -4 16 13 21 21 13 21 -2 0 -10 -8 -17
-17z"/>
<path d="M1882 3540 c0 -14 2 -19 5 -12 2 6 2 18 0 25 -3 6 -5 1 -5 -13z"/>
<path d="M2076 3551 c-3 -5 1 -12 10 -15 22 -8 25 -4 9 11 -8 7 -16 9 -19 4z"/>
<path d="M3935 3545 c44 -133 56 -229 41 -335 -5 -41 -5 -42 5 -15 19 52 13
202 -10 275 -12 36 -26 72 -32 80 -9 12 -10 11 -4 -5z"/>
<path d="M936 3515 c-9 -26 -7 -32 5 -12 6 10 9 21 6 23 -2 3 -7 -2 -11 -11z"/>
<path d="M2711 3482 c-13 -24 1 -39 17 -19 6 7 7 18 3 26 -7 11 -11 9 -20 -7z"/>
<path d="M1743 3455 c0 -22 2 -30 4 -17 2 12 2 30 0 40 -3 9 -5 -1 -4 -23z"/>
<path d="M915 3440 c-10 -61 18 -144 67 -193 l40 -42 -36 45 c-45 54 -70 135
-61 190 4 22 5 40 2 40 -3 0 -8 -18 -12 -40z"/>
<path d="M1439 3439 c-16 -17 -28 -41 -28 -53 1 -20 2 -20 6 -1 3 11 19 35 36
53 17 17 27 32 23 32 -4 0 -21 -14 -37 -31z"/>
<path d="M2445 3427 c-4 -20 0 -53 9 -83 l16 -49 -7 45 c-4 25 -7 62 -6 83 1
46 -4 48 -12 4z"/>
<path d="M4406 3434 c-16 -41 6 -174 28 -174 3 0 -2 17 -11 37 -10 25 -14 57
-11 95 5 62 4 67 -6 42z"/>
<path d="M2245 3398 l-16 -33 21 24 c11 13 20 27 20 32 0 18 -10 8 -25 -23z"/>
<path d="M1731 3394 c0 -11 3 -14 6 -6 3 7 2 16 -1 19 -3 4 -6 -2 -5 -13z"/>
<path d="M4681 3400 c0 -8 4 -22 9 -30 12 -18 12 -2 0 25 -6 13 -9 15 -9 5z"/>
<path d="M2301 3358 c-18 -58 -21 -101 -12 -153 l9 -50 1 75 c1 41 6 93 11
115 11 49 6 58 -9 13z"/>
<path d="M2377 3373 c-13 -22 -37 -121 -36 -152 0 -26 5 -14 18 44 10 44 21
88 25 98 8 17 2 25 -7 10z"/>
<path d="M1720 3363 c0 -20 -92 -113 -136 -139 -51 -30 -59 -42 -11 -18 71 37
172 142 153 161 -3 3 -6 2 -6 -4z"/>
<path d="M2216 3300 c-9 -23 -18 -69 -21 -103 l-4 -62 10 45 c6 25 17 70 24
100 16 67 13 74 -9 20z"/>
<path d="M4726 3301 c21 -37 81 -89 131 -115 53 -27 51 -18 -3 13 -28 17 -73
54 -99 83 -39 42 -44 46 -29 19z"/>
<path d="M2471 3229 c-15 -84 -11 -122 8 -75 7 16 11 57 9 90 l-3 61 -14 -76z"/>
<path d="M1775 3150 c-16 -17 -63 -50 -105 -74 -41 -24 -84 -53 -94 -65 -11
-12 9 -3 46 21 36 24 84 54 106 67 22 13 50 37 62 53 27 36 21 36 -15 -2z"/>
<path d="M1993 3129 c-60 -23 -69 -37 -19 -31 30 4 34 1 40 -28 3 -18 21 -47
40 -66 30 -30 40 -34 89 -34 50 0 55 -2 50 -20 -3 -11 0 -20 6 -20 6 0 13 12
17 28 3 15 7 32 9 39 8 25 -16 81 -49 112 -45 44 -107 51 -183 20z m100 -21
c-22 -63 12 -138 46 -103 9 9 14 31 13 57 l-2 43 20 -24 c26 -30 25 -56 -1
-82 -45 -45 -130 7 -128 79 0 27 2 32 8 18 7 -18 8 -18 14 -2 4 10 5 22 1 27
-3 5 4 9 16 9 18 0 20 -4 13 -22z"/>
<path d="M3353 3070 c0 -30 2 -43 4 -27 2 15 2 39 0 55 -2 15 -4 2 -4 -28z"/>
<path d="M1037 3060 c22 -30 52 -75 66 -100 25 -44 126 -162 127 -148 0 3 -16
26 -36 50 -20 23 -63 81 -94 128 -32 47 -68 94 -80 105 -14 11 -6 -4 17 -35z"/>
<path d="M1328 3020 c-4 -30 -9 -71 -12 -90 -4 -23 -1 -19 9 15 8 28 14 68 13
90 -3 38 -3 37 -10 -15z"/>
<path d="M1441 2919 c-29 -45 -56 -91 -58 -103 -3 -15 0 -12 12 9 9 16 27 43
39 60 22 28 70 115 64 115 -2 0 -27 -36 -57 -81z"/>
<path d="M3190 2944 c25 -28 61 -64 80 -80 101 -85 88 -68 -40 52 -60 57 -72
65 -40 28z"/>
<path d="M3808 2905 c-32 -30 -94 -81 -138 -115 -44 -33 -80 -63 -80 -66 0
-13 132 89 204 158 45 43 79 77 76 77 -3 0 -31 -24 -62 -54z"/>
<path d="M1967 2927 c3 -12 20 -33 38 -47 32 -24 32 -25 12 -32 -15 -5 -10 -7
16 -5 20 2 37 -1 37 -6 0 -4 5 -5 10 -2 17 10 11 23 -12 31 -35 11 -88 48 -88
61 0 6 -4 14 -9 17 -4 3 -6 -5 -4 -17z"/>
<path d="M2221 2904 c0 -11 3 -14 6 -6 3 7 2 16 -1 19 -3 4 -6 -2 -5 -13z"/>
<path d="M174 2830 c0 -67 -5 -94 -23 -130 l-22 -45 35 37 c40 42 42 56 23
158 l-13 65 0 -85z"/>
<path d="M4941 2814 c0 -11 3 -14 6 -6 3 7 2 16 -1 19 -3 4 -6 -2 -5 -13z"/>
<path d="M1853 2803 c9 -2 25 -2 35 0 9 3 1 5 -18 5 -19 0 -27 -2 -17 -5z"/>
<path d="M4932 2770 c0 -14 2 -19 5 -12 2 6 2 18 0 25 -3 6 -5 1 -5 -13z"/>
<path d="M2485 2770 c22 -5 44 -4 50 1 5 5 -11 9 -40 8 l-50 -1 40 -8z"/>
<path d="M2480 2736 c0 -2 11 -6 25 -8 13 -3 22 -1 19 3 -5 9 -44 13 -44 5z"/>
<path d="M2148 2723 c7 -3 16 -2 19 1 4 3 -2 6 -13 5 -11 0 -14 -3 -6 -6z"/>
<path d="M4923 2685 c0 -27 2 -38 4 -22 2 15 2 37 0 50 -2 12 -4 0 -4 -28z"/>
<path d="M1133 2665 c0 -22 2 -30 4 -17 2 12 2 30 0 40 -3 9 -5 -1 -4 -23z"/>
<path d="M4061 2634 c0 -11 3 -14 6 -6 3 7 2 16 -1 19 -3 4 -6 -2 -5 -13z"/>
<path d="M5041 2635 c-1 -24 42 -120 58 -129 6 -4 2 9 -10 29 -12 19 -27 54
-34 78 -8 23 -14 33 -14 22z"/>
<path d="M1322 2610 c0 -19 2 -27 5 -17 2 9 2 25 0 35 -3 9 -5 1 -5 -18z"/>
<path d="M1180 2625 c0 -5 5 -17 10 -25 5 -8 10 -10 10 -5 0 6 -5 17 -10 25
-5 8 -10 11 -10 5z"/>
<path d="M2526 2615 c4 -8 10 -12 15 -9 11 6 2 24 -11 24 -5 0 -7 -7 -4 -15z"/>
<path d="M1143 2570 c0 -25 2 -35 4 -22 2 12 2 32 0 45 -2 12 -4 2 -4 -23z"/>
<path d="M3829 2541 c-62 -69 -163 -200 -183 -238 -25 -50 -19 -53 12 -5 16
23 32 39 37 35 4 -5 5 -3 2 4 -4 6 9 25 30 43 21 18 31 29 23 25 -8 -4 -4 3
10 14 14 11 21 21 17 21 -11 0 52 90 86 123 16 15 25 27 19 27 -5 0 -29 -22
-53 -49z"/>
<path d="M1242 2560 c0 -14 2 -19 5 -12 2 6 2 18 0 25 -3 6 -5 1 -5 -13z"/>
<path d="M1312 2550 c0 -14 2 -19 5 -12 2 6 2 18 0 25 -3 6 -5 1 -5 -13z"/>
<path d="M2795 2547 c34 -19 215 -210 208 -220 -3 -5 -10 -4 -16 2 -22 22 -30
10 -9 -12 24 -26 20 -37 -12 -37 -37 -1 4 -17 56 -22 46 -5 46 -5 37 20 -30
79 -204 262 -264 276 -20 4 -20 4 0 -7z"/>
<path d="M1361 2550 c0 -3 6 -30 14 -60 10 -40 13 -47 14 -25 0 24 -26 105
-28 85z"/>
<path d="M1046 2504 c-8 -22 -7 -82 2 -87 4 -3 8 19 8 49 2 57 0 64 -10 38z"/>
<path d="M950 2486 c0 -2 8 -10 18 -17 15 -13 16 -12 3 4 -13 16 -21 21 -21
13z"/>
<path d="M1414 2453 c-17 -24 -20 -32 -8 -20 12 9 24 14 29 10 4 -5 5 -2 1 5
-4 7 -2 19 4 27 7 8 10 15 7 15 -2 0 -17 -17 -33 -37z"/>
<path d="M990 2456 c0 -2 8 -10 18 -17 15 -13 16 -12 3 4 -13 16 -21 21 -21
13z"/>
<path d="M1447 2408 c-76 -20 -139 -121 -109 -174 9 -16 10 -15 17 5 6 19 12
22 33 17 85 -21 117 -19 150 9 18 15 36 43 42 66 10 35 14 39 43 40 27 1 20 5
-38 24 -78 27 -84 27 -138 13z m101 -20 c15 -15 15 -68 -1 -89 -7 -8 -24 -23
-39 -33 -23 -15 -31 -16 -55 -4 -37 18 -62 62 -47 85 19 30 31 25 37 -14 4
-21 13 -47 21 -58 12 -17 16 -17 30 -6 9 8 15 20 12 28 -3 8 -1 11 4 8 6 -3
10 1 10 9 0 9 -4 16 -9 16 -5 0 -9 16 -8 35 1 37 21 47 45 23z"/>
<path d="M1520 2360 c0 -21 4 -30 13 -27 6 2 12 14 12 27 0 13 -6 25 -12 28
-9 2 -13 -7 -13 -28z"/>
<path d="M855 2386 c-34 -17 -43 -25 -29 -25 15 -1 26 -13 37 -41 25 -66 95
-95 164 -69 25 9 31 7 52 -18 l24 -28 -7 60 c-7 69 -28 103 -77 127 -47 25
-105 22 -164 -6z m69 -4 c3 -5 -1 -9 -9 -9 -8 0 -15 4 -15 9 0 4 4 8 9 8 6 0
12 -4 15 -8z m-18 -22 c10 0 14 -12 14 -38 0 -21 6 -44 13 -51 10 -11 8 -11
-11 -1 -28 14 -56 75 -46 99 4 11 8 12 11 4 3 -7 11 -13 19 -13z m144 -52 c0
-13 -53 -48 -75 -48 l-22 0 26 54 26 55 22 -27 c13 -15 23 -30 23 -34z"/>
<path d="M896 2335 c4 -8 8 -15 10 -15 2 0 4 7 4 15 0 8 -4 15 -10 15 -5 0 -7
-7 -4 -15z"/>
<path d="M148 2315 c-36 -25 -92 -95 -122 -152 -29 -57 -17 -60 16 -4 17 29
58 82 91 117 32 35 58 64 55 64 -2 0 -20 -11 -40 -25z"/>
<path d="M3487 2215 c3 -27 7 -52 9 -54 7 -8 2 54 -6 79 -6 17 -7 9 -3 -25z"/>
<path d="M344 2196 c12 -30 23 -52 25 -50 5 5 -29 93 -38 99 -5 2 1 -20 13
-49z"/>
<path d="M2974 2231 c3 -5 19 -14 36 -19 37 -14 41 4 4 18 -32 12 -47 13 -40
1z"/>
<path d="M3253 2195 c0 -22 2 -30 4 -17 2 12 2 30 0 40 -3 9 -5 -1 -4 -23z"/>
<path d="M3732 2215 c-7 -8 -9 -15 -4 -15 5 0 15 7 22 15 16 19 -1 19 -18 0z"/>
<path d="M294 2209 c2 -9 14 -47 25 -84 12 -37 22 -84 22 -104 l2 -36 6 35 c8
39 -11 116 -41 170 -10 19 -17 28 -14 19z"/>
<path d="M790 2217 c0 -15 84 -99 114 -114 28 -13 26 -11 -9 19 -22 18 -55 49
-72 68 -18 19 -33 32 -33 27z"/>
<path d="M2888 2203 c-10 -2 -18 -11 -18 -18 0 -12 5 -11 28 1 35 18 72 18
102 -2 l25 -16 -24 21 c-22 20 -69 26 -113 14z"/>
<path d="M2810 2189 c0 -5 5 -7 10 -4 6 3 10 8 10 11 0 2 -4 4 -10 4 -5 0 -10
-5 -10 -11z"/>
<path d="M1621 2130 c-45 -41 -48 -52 -6 -24 19 12 63 65 53 64 -2 -1 -23 -19
-47 -40z"/>
<path d="M2926 2162 c-3 -4 8 -13 25 -19 16 -6 27 -7 24 -2 -10 15 -43 30 -49
21z"/>
<path d="M3312 2130 c0 -19 2 -27 5 -17 2 9 2 25 0 35 -3 9 -5 1 -5 -18z"/>
<path d="M2896 2141 c-4 -5 -2 -12 4 -16 5 -3 10 -3 10 1 0 4 7 -1 16 -12 15
-18 15 -18 4 3 -12 27 -27 36 -34 24z"/>
<path d="M3237 2138 c-3 -7 -12 -30 -21 -50 -9 -21 -14 -38 -12 -38 7 0 47 92
42 97 -2 2 -6 -2 -9 -9z"/>
<path d="M1110 2130 c0 -7 23 -34 51 -60 42 -39 50 -51 47 -76 -2 -24 -13 -34
-57 -56 -55 -28 -104 -35 -130 -19 -9 6 -23 4 -38 -6 -13 -8 -23 -12 -23 -7 0
5 -36 -27 -81 -71 -81 -81 -126 -141 -115 -152 3 -4 6 -2 6 4 0 21 82 113 144
162 35 28 67 51 70 51 4 0 -16 -34 -44 -75 -28 -41 -53 -83 -57 -93 -3 -9 22
24 56 75 34 51 66 95 72 99 6 3 25 -11 42 -31 32 -39 96 -74 136 -75 18 0 22
-4 16 -17 -18 -49 -25 -134 -25 -317 0 -148 -3 -206 -12 -215 -11 -11 -10 -13
3 -8 13 4 12 -4 -6 -51 -13 -32 -25 -72 -29 -91 -5 -29 -4 -32 9 -21 13 11 15
7 15 -29 0 -23 -7 -56 -16 -73 -9 -17 -23 -54 -31 -82 -8 -28 -20 -57 -27 -65
-8 -11 -8 -13 1 -8 7 5 13 -1 16 -15 3 -15 5 -9 6 14 1 42 38 148 51 148 14 0
17 24 10 78 -3 29 -3 55 2 58 4 3 8 10 8 16 0 7 -6 6 -15 -2 -8 -7 -15 -9 -15
-6 0 17 63 156 75 166 10 9 12 29 8 83 -7 96 -19 106 -15 13 3 -53 0 -75 -10
-84 -12 -10 -14 3 -11 81 2 51 3 117 1 147 -9 168 4 250 47 290 23 22 29 23
72 12 44 -10 50 -9 81 14 17 14 32 32 32 40 0 25 43 15 79 -18 l35 -33 -38 48
c-46 58 -39 76 21 57 68 -21 137 -59 193 -106 l55 -46 -56 53 c-51 50 -179
133 -163 107 5 -8 0 -9 -17 -4 -13 5 -37 9 -54 11 -16 1 -39 5 -50 9 -14 5
-13 3 3 -5 36 -19 23 -43 -25 -47 -29 -2 -57 4 -96 22 -69 33 -95 61 -80 85
12 19 6 71 -8 71 -5 0 -9 -7 -9 -15 0 -22 -17 -18 -23 6 -3 11 -12 19 -21 17
-8 -2 -16 2 -18 7 -4 13 122 19 134 7 6 -6 -1 -12 -16 -16 -17 -4 -26 -13 -26
-27 0 -19 2 -19 34 6 40 31 50 50 27 53 -117 13 -142 13 -157 1 -14 -11 -18
-10 -30 6 -9 12 -14 14 -14 5z m182 -210 c34 -16 77 -30 95 -30 24 0 31 -4 27
-14 -10 -26 -70 -47 -114 -40 -31 5 -45 3 -60 -11 -17 -15 -25 -16 -69 -5 -28
6 -66 24 -86 40 l-35 28 43 11 c23 6 60 20 82 30 22 11 43 20 47 20 3 1 35
-12 70 -29z"/>
<path d="M3566 2108 c-3 -18 -2 -46 3 -63 7 -24 8 -18 8 33 0 34 -1 62 -2 62
-2 0 -5 -15 -9 -32z"/>
<path d="M3160 2069 c0 -19 4 -41 9 -48 6 -10 8 1 4 30 -7 55 -13 63 -13 18z"/>
<path d="M75 2039 c-64 -60 -84 -89 -60 -89 9 0 14 4 10 10 -3 5 21 36 55 70
33 33 58 60 56 60 -3 0 -30 -23 -61 -51z"/>
<path d="M265 2082 c4 -8 11 -26 15 -40 7 -22 8 -23 9 -6 1 11 -6 29 -15 40
-8 10 -12 13 -9 6z"/>
<path d="M808 2083 c12 -2 30 -2 40 0 9 3 -1 5 -23 4 -22 0 -30 -2 -17 -4z"/>
<path d="M1550 2080 c-22 -14 -11 -15 65 -9 57 4 61 6 23 7 -25 1 -52 4 -60 7
-7 3 -20 1 -28 -5z"/>
<path d="M878 2073 c7 -3 16 -2 19 1 4 3 -2 6 -13 5 -11 0 -14 -3 -6 -6z"/>
<path d="M3946 2063 c-6 -14 -5 -15 5 -6 7 7 10 15 7 18 -3 3 -9 -2 -12 -12z"/>
<path d="M4101 2054 c0 -11 3 -14 6 -6 3 7 2 16 -1 19 -3 4 -6 -2 -5 -13z"/>
<path d="M3614 2038 l-19 -23 23 19 c12 11 22 21 22 23 0 8 -8 2 -26 -19z"/>
<path d="M840 2041 c-25 -5 -12 -7 45 -7 46 -1 71 2 60 7 -24 9 -57 9 -105 0z"/>
<path d="M1428 2043 c6 -2 18 -2 25 0 6 3 1 5 -13 5 -14 0 -19 -2 -12 -5z"/>
<path d="M1492 2040 c7 -4 51 -10 98 -13 52 -3 71 -2 50 3 -47 11 -164 18
-148 10z"/>
<path d="M300 2031 c0 -6 4 -13 10 -16 6 -3 7 1 4 9 -7 18 -14 21 -14 7z"/>
<path d="M4575 2011 c33 -43 45 -72 55 -136 6 -42 8 -45 9 -15 2 57 -18 109
-56 148 l-35 37 27 -34z"/>
<path d="M768 2023 c6 -2 18 -2 25 0 6 3 1 5 -13 5 -14 0 -19 -2 -12 -5z"/>
<path d="M4112 2000 c0 -14 2 -19 5 -12 2 6 2 18 0 25 -3 6 -5 1 -5 -13z"/>
<path d="M292 1950 c0 -30 2 -48 5 -40 3 8 10 17 14 20 14 10 24 74 11 66 -7
-4 -13 -19 -13 -34 -1 -24 -3 -23 -9 8 -7 31 -7 29 -8 -20z"/>
<path d="M1403 1993 c15 -2 37 -2 50 0 12 2 0 4 -28 4 -27 0 -38 -2 -22 -4z"/>
<path d="M1799 1983 c-13 -16 -12 -17 4 -4 14 11 20 11 35 0 15 -13 16 -12 3
4 -7 9 -17 17 -21 17 -4 0 -14 -8 -21 -17z"/>
<path d="M805 1966 c-95 -25 -209 -65 -203 -72 2 -2 29 6 59 17 30 12 110 34
179 49 70 16 110 29 90 29 -19 0 -75 -11 -125 -23z"/>
<path d="M1058 1983 c6 -2 18 -2 25 0 6 3 1 5 -13 5 -14 0 -19 -2 -12 -5z"/>
<path d="M1513 1975 c5 -5 24 -10 41 -11 17 0 45 -3 61 -7 21 -5 24 -5 10 1
-16 7 -17 10 -5 14 8 3 4 3 -8 1 -13 -2 -21 0 -18 5 3 5 -16 8 -43 8 -31 -1
-44 -4 -38 -11z"/>
<path d="M847 1938 c-83 -29 -66 -31 28 -3 44 13 69 24 55 24 -14 0 -51 -10
-83 -21z"/>
<path d="M3584 1940 c-62 -31 -84 -79 -83 -176 l1 -79 10 48 c7 34 14 47 24
43 8 -3 35 -8 61 -11 80 -10 150 41 155 113 2 30 4 32 43 32 39 0 38 1 -30 25
-85 30 -127 31 -181 5z m140 -59 c-2 -87 -99 -133 -161 -75 -15 14 -22 22 -14
19 10 -6 12 -1 7 22 -9 41 19 55 29 15 16 -67 55 -90 89 -53 14 15 17 33 15
71 -4 46 -2 50 16 48 17 -3 20 -10 19 -47z m-84 25 c0 -3 -4 -8 -10 -11 -5 -3
-10 -1 -10 4 0 6 5 11 10 11 6 0 10 -2 10 -4z"/>
<path d="M4121 1944 c0 -11 3 -14 6 -6 3 7 2 16 -1 19 -3 4 -6 -2 -5 -13z"/>
<path d="M905 1921 c-33 -16 -73 -41 -90 -55 -24 -22 -19 -20 26 8 68 42 125
66 135 58 4 -4 4 -1 0 6 -9 15 -1 17 -71 -17z"/>
<path d="M2975 1929 c-61 -16 -64 -18 -22 -13 43 5 47 3 47 -16 0 -37 32 -91
64 -111 24 -16 46 -19 101 -17 70 3 70 3 73 -25 6 -46 22 -19 22 36 0 142
-103 194 -285 146z m89 -31 c14 23 24 11 14 -16 -9 -22 -8 -36 5 -60 18 -38 9
-41 -21 -9 -24 26 -42 74 -34 95 3 10 7 9 16 -4 9 -12 15 -14 20 -6z m130 -7
c11 -12 15 -27 12 -39 -8 -25 -45 -58 -75 -67 l-24 -7 21 27 c12 16 25 45 28
67 7 43 14 46 38 19z"/>
<path d="M1480 1926 c0 -2 15 -13 33 -24 17 -10 61 -45 97 -77 46 -40 41 -33
-19 24 -70 68 -111 96 -111 77z"/>
<path d="M68 1897 c12 -12 35 -52 51 -87 30 -65 44 -60 17 5 -17 40 -67 105
-80 105 -5 0 0 -10 12 -23z"/>
<path d="M4132 1895 c0 -16 2 -22 5 -12 2 9 2 23 0 30 -3 6 -5 -1 -5 -18z"/>
<path d="M4143 1805 c0 -27 2 -38 4 -22 2 15 2 37 0 50 -2 12 -4 0 -4 -28z"/>
<path d="M2194 1826 c-3 -9 -9 -14 -13 -11 -13 8 -171 -173 -193 -220 -11 -25
-10 -29 22 -56 19 -16 47 -32 63 -35 25 -6 26 -8 10 -20 -14 -11 -14 -13 -2
-9 21 8 72 -12 64 -25 -3 -5 1 -10 11 -10 13 0 14 -3 4 -15 -14 -17 -5 -35 16
-35 8 0 12 -4 9 -10 -3 -5 -3 -15 1 -21 10 -16 24 10 24 44 0 39 -16 65 -53
87 l-32 20 29 0 c38 0 27 11 -32 31 -46 16 -46 17 -22 27 32 14 10 15 -24 2
-35 -13 -33 -6 7 19 34 22 26 28 -17 11 -47 -18 -27 1 29 26 30 14 57 29 60
34 5 8 -72 -12 -98 -25 -7 -4 -1 3 13 14 14 11 29 21 34 21 5 0 6 3 3 6 -3 4
12 27 33 52 43 49 54 77 18 46 l-23 -19 19 22 c10 12 21 22 25 21 3 -1 14 2
24 7 10 4 21 4 25 0 14 -14 6 -180 -12 -247 -16 -62 -16 -69 -2 -90 9 -12 17
-36 17 -53 1 -20 3 -24 6 -11 3 11 0 35 -7 55 -9 29 -9 49 3 101 23 98 29 199
14 240 -13 37 -43 52 -53 26z m-77 -312 c-3 -3 -12 -4 -19 -1 -8 3 -5 6 6 6
11 1 17 -2 13 -5z"/>
<path d="M1253 1795 c-57 -41 -59 -234 -4 -390 6 -16 13 -42 16 -57 6 -33 21
-36 30 -8 3 11 13 20 21 20 8 0 14 5 14 11 0 5 5 7 11 3 6 -3 3 6 -7 22 l-18
29 24 -20 24 -20 -16 26 c-20 31 -14 43 14 28 10 -6 16 -15 12 -22 -4 -7 -3
-9 1 -4 5 4 17 0 27 -10 24 -21 25 3 1 29 -18 21 -4 24 28 7 19 -9 19 -9 10
10 -6 11 -21 27 -34 37 l-22 16 25 -7 c14 -3 37 -8 52 -9 24 -2 26 -1 15 13
-22 29 -41 39 -85 46 -46 7 -123 -12 -102 -25 9 -5 8 -9 -3 -13 -10 -4 -14 0
-13 10 8 52 112 58 195 13 67 -37 76 -38 32 -1 -32 26 -33 28 -12 34 13 3 19
1 14 -6 -4 -6 0 -8 10 -4 9 3 18 0 21 -9 6 -15 26 -10 26 6 0 14 -167 206
-199 229 -41 29 -81 35 -108 16z m66 -31 c13 -12 -8 -10 -29 2 l-25 15 25 -7
c14 -3 27 -8 29 -10z m82 -61 c8 -9 -5 -2 -28 17 -24 18 -43 35 -43 37 0 7 56
-35 71 -54z m-61 22 c28 -15 68 -55 70 -70 1 -5 11 -15 23 -22 12 -7 17 -12
11 -13 -19 0 -124 80 -124 96 0 7 -5 14 -11 14 -5 0 -7 -6 -4 -12 4 -7 1 -6
-7 3 -7 9 -19 14 -27 11 -9 -3 -11 0 -7 7 8 12 33 8 76 -14z m121 -82 c13 -16
12 -17 -3 -4 -17 13 -22 21 -14 21 2 0 10 -8 17 -17z m-26 -45 c36 -18 42 -24
28 -29 -10 -3 -33 -2 -52 3 -19 6 -51 8 -72 6 -20 -2 -35 1 -32 6 3 4 35 6 70
3 76 -6 76 -3 2 17 -45 12 -49 15 -22 15 18 1 53 -9 78 -21z m-92 -75 c-7 -2
-19 -2 -25 0 -7 3 -2 5 12 5 14 0 19 -2 13 -5z"/>
<path d="M1330 1715 c0 -8 53 -54 63 -55 5 0 6 4 2 10 -8 13 -65 53 -65 45z"/>
<path d="M3841 1676 c-7 -8 -41 -26 -77 -42 -35 -15 -62 -29 -59 -32 7 -7 155
67 155 79 0 13 -6 11 -19 -5z"/>
<path d="M3261 1642 c0 -7 4 -22 10 -33 8 -16 14 -18 24 -9 19 15 147 9 153
-8 3 -9 -3 -11 -20 -7 -19 5 -27 1 -36 -17 -8 -18 -11 -19 -11 -5 -1 9 -7 17
-15 17 -18 0 -26 -32 -14 -54 17 -31 5 -69 -31 -93 -49 -33 -104 -46 -154 -36
-47 10 -51 7 -197 -136 l-65 -64 69 61 c39 34 72 60 74 57 2 -2 -7 -19 -21
-37 -66 -89 -44 -72 36 29 32 39 65 74 74 77 14 6 14 3 -1 -20 -17 -25 -17
-25 2 -15 11 6 22 16 24 23 2 6 9 8 16 4 9 -5 5 -21 -14 -58 -14 -27 -24 -52
-21 -54 2 -2 16 23 32 56 23 49 33 60 53 60 14 0 51 12 83 26 l59 27 59 -27
c32 -14 68 -26 79 -26 52 0 35 -36 -36 -77 -36 -21 -58 -27 -106 -27 -65 0
-94 11 -140 53 l-30 26 16 -25 c24 -38 93 -70 153 -70 68 0 150 40 177 87 l20
34 51 -66 c47 -62 67 -78 67 -54 0 5 -4 8 -9 4 -5 -3 -29 24 -52 59 -39 59
-45 64 -85 69 -100 11 -179 79 -146 125 7 9 15 25 18 35 4 9 13 16 21 15 9 -2
20 5 27 15 20 33 -17 49 -106 45 -62 -2 -78 0 -82 12 -2 10 -4 11 -5 2z m-161
-275 c0 -2 -12 -14 -27 -28 l-28 -24 24 28 c23 25 31 32 31 24z"/>
<path d="M790 1625 c0 -12 48 -85 56 -85 3 0 -3 12 -14 28 -10 15 -24 36 -30
47 -6 11 -12 15 -12 10z"/>
<path d="M3300 1587 c0 -7 9 -18 20 -25 17 -11 20 -10 20 7 0 10 -7 22 -16 25
-22 8 -24 8 -24 -7z"/>
<path d="M4341 1580 c-1 -3 8 -27 19 -55 10 -27 19 -43 19 -35 0 14 -36 101
-38 90z"/>
<path d="M3148 1563 c7 -3 16 -2 19 1 4 3 -2 6 -13 5 -11 0 -14 -3 -6 -6z"/>
<path d="M1680 1483 c0 -44 -2 -102 -5 -129 l-4 -49 9 40 c10 40 13 205 5 214
-3 2 -5 -32 -5 -76z"/>
<path d="M3698 1553 c29 -2 74 -2 100 0 26 2 2 3 -53 3 -55 0 -76 -1 -47 -3z"/>
<path d="M2980 1540 l-45 -7 45 -1 c25 0 65 3 90 7 l45 8 -45 0 c-25 0 -65 -3
-90 -7z"/>
<path d="M1731 1524 c0 -11 3 -14 6 -6 3 7 2 16 -1 19 -3 4 -6 -2 -5 -13z"/>
<path d="M2898 1523 c6 -2 18 -2 25 0 6 3 1 5 -13 5 -14 0 -19 -2 -12 -5z"/>
<path d="M3178 1523 c6 -2 18 -2 25 0 6 3 1 5 -13 5 -14 0 -19 -2 -12 -5z"/>
<path d="M3118 1513 c7 -3 16 -2 19 1 4 3 -2 6 -13 5 -11 0 -14 -3 -6 -6z"/>
<path d="M3573 1513 c9 -2 23 -2 30 0 6 3 -1 5 -18 5 -16 0 -22 -2 -12 -5z"/>
<path d="M3673 1512 c-17 -11 69 -40 93 -32 13 5 6 8 -25 13 -24 3 -47 10 -50
16 -4 5 -12 7 -18 3z"/>
<path d="M3858 1513 c7 -3 16 -2 19 1 4 3 -2 6 -13 5 -11 0 -14 -3 -6 -6z"/>
<path d="M3763 1503 c15 -2 37 -2 50 0 12 2 0 4 -28 4 -27 0 -38 -2 -22 -4z"/>
<path d="M3898 1503 c6 -2 18 -2 25 0 6 3 1 5 -13 5 -14 0 -19 -2 -12 -5z"/>
<path d="M3848 1493 c6 -2 18 -2 25 0 6 3 1 5 -13 5 -14 0 -19 -2 -12 -5z"/>
<path d="M1721 1474 c0 -11 3 -14 6 -6 3 7 2 16 -1 19 -3 4 -6 -2 -5 -13z"/>
<path d="M1930 1485 c0 -5 5 -17 10 -25 5 -8 10 -10 10 -5 0 6 -5 17 -10 25
-5 8 -10 11 -10 5z"/>
<path d="M3167 1479 c7 -7 15 -10 18 -7 3 3 -2 9 -12 12 -14 6 -15 5 -6 -5z"/>
<path d="M3798 1473 c7 -3 16 -2 19 1 4 3 -2 6 -13 5 -11 0 -14 -3 -6 -6z"/>
<path d="M2034 1448 l-19 -23 23 19 c21 18 27 26 19 26 -2 0 -12 -10 -23 -22z"/>
<path d="M3578 1463 c7 -3 16 -2 19 1 4 3 -2 6 -13 5 -11 0 -14 -3 -6 -6z"/>
<path d="M3622 1458 c9 -7 25 -19 35 -25 10 -7 14 -12 8 -11 -5 1 -22 -4 -36
-11 -21 -11 -31 -11 -50 -1 -22 12 -22 11 4 -15 15 -15 36 -43 48 -61 31 -51
35 -41 5 11 -40 68 -11 57 68 -24 84 -88 120 -161 121 -248 0 -52 -4 -66 -25
-88 -23 -25 -23 -26 -3 -14 35 21 46 52 41 117 -6 84 -47 163 -130 246 -37 37
-68 70 -68 73 0 3 9 3 20 0 11 -3 18 -1 14 4 -9 15 10 10 32 -7 19 -15 19 -16
-1 -9 -25 8 -20 3 76 -73 86 -68 173 -176 193 -242 8 -25 15 -36 15 -25 1 38
-47 122 -108 187 -33 36 -57 68 -53 72 4 4 2 6 -4 4 -10 -3 -104 58 -104 68 0
10 20 2 72 -30 l56 -34 39 42 c64 67 71 85 11 28 l-55 -53 -94 56 c-89 54
-167 93 -127 63z"/>
<path d="M3838 1463 c7 -3 16 -2 19 1 4 3 -2 6 -13 5 -11 0 -14 -3 -6 -6z"/>
<path d="M4070 1450 c19 -11 40 -19 45 -19 6 0 -6 8 -25 19 -19 11 -39 19 -45
19 -5 0 6 -8 25 -19z"/>
<path d="M3051 1433 c-7 -8 -16 -11 -22 -8 -5 4 -9 1 -9 -5 0 -6 -4 -8 -10 -5
-5 3 -10 1 -10 -5 0 -6 -4 -8 -10 -5 -5 3 -10 1 -10 -5 0 -6 -5 -8 -12 -4 -7
5 -8 3 -3 -6 6 -10 4 -12 -7 -7 -9 3 -24 -1 -35 -9 -10 -9 -12 -12 -4 -8 10 5
12 3 7 -5 -5 -7 -14 -10 -22 -7 -8 3 -13 1 -11 -3 1 -5 -28 -36 -65 -70 -73
-67 -159 -178 -183 -234 -28 -68 -15 -62 19 9 58 122 222 277 374 353 37 19
46 20 60 9 15 -11 15 -11 4 4 -10 13 -10 17 0 21 7 3 1 5 -13 4 -14 0 -31 -7
-38 -14z"/>
<path d="M1921 1415 c0 -5 8 -26 19 -45 11 -19 19 -30 19 -25 0 6 -8 26 -19
45 -11 19 -19 31 -19 25z"/>
<path d="M2216 1365 c-9 -26 -7 -32 5 -12 6 10 9 21 6 23 -2 3 -7 -2 -11 -11z"/>
<path d="M670 1346 c0 -4 12 -28 27 -53 39 -67 257 -281 267 -264 3 5 -12 22
-34 40 -87 70 -165 149 -211 215 -27 38 -49 66 -49 62z"/>
<path d="M1962 1310 c0 -14 2 -19 5 -12 2 6 2 18 0 25 -3 6 -5 1 -5 -13z"/>
<path d="M1992 1299 c-7 -11 -11 -23 -9 -25 7 -7 29 24 25 36 -2 6 -9 1 -16
-11z"/>
<path d="M1500 1253 c-90 -21 -115 -32 -59 -26 46 5 46 5 70 -38 34 -60 84
-85 149 -72 56 11 60 10 60 -26 0 -21 2 -23 10 -11 7 12 10 8 10 -15 0 -16 5
-37 10 -45 27 -42 -6 134 -36 192 -29 57 -92 69 -214 41z m75 -93 c13 -20 23
-9 30 33 11 64 19 68 25 9 l5 -54 28 22 c32 26 36 16 5 -17 -30 -32 -70 -30
-113 8 -38 34 -45 62 -17 78 15 8 18 4 24 -30 4 -22 10 -44 13 -49z"/>
<path d="M1966 1219 c-40 -34 -54 -82 -38 -126 l10 -28 1 33 1 33 30 -16 c48
-25 97 -19 131 14 16 16 29 36 29 45 0 8 6 13 13 10 7 -2 13 3 14 13 2 23 -67
53 -119 53 -27 0 -47 -8 -72 -31z m104 4 c0 -5 -4 -25 -9 -45 -11 -46 8 -43
32 5 l16 32 0 -32 c1 -38 -28 -63 -76 -63 -39 0 -65 24 -61 58 5 42 25 37 33
-7 4 -23 11 -41 16 -41 15 0 31 42 27 71 -3 20 0 29 9 29 7 0 13 -3 13 -7z"/>
<path d="M3700 1185 c0 -5 5 -17 10 -25 5 -8 10 -10 10 -5 0 6 -5 17 -10 25
-5 8 -10 11 -10 5z"/>
<path d="M930 1169 c0 -4 11 -36 24 -72 23 -60 86 -173 86 -151 -1 10 -110
232 -110 223z"/>
<path d="M2956 1145 c-3 -9 -6 -22 -5 -28 0 -7 5 -1 10 12 5 13 8 26 5 28 -2
2 -6 -3 -10 -12z"/>
<path d="M4884 1048 c2 -58 9 -89 28 -125 24 -48 77 -93 107 -93 9 1 0 9 -19
19 -35 19 -69 58 -84 96 -4 11 -14 56 -22 100 l-13 80 3 -77z"/>
<path d="M2941 1084 c0 -11 3 -14 6 -6 3 7 2 16 -1 19 -3 4 -6 -2 -5 -13z"/>
<path d="M2108 1033 c7 -3 16 -2 19 1 4 3 -2 6 -13 5 -11 0 -14 -3 -6 -6z"/>
<path d="M2942 1020 c0 -14 2 -19 5 -12 2 6 2 18 0 25 -3 6 -5 1 -5 -13z"/>
<path d="M3992 1010 c0 -14 2 -19 5 -12 2 6 2 18 0 25 -3 6 -5 1 -5 -13z"/>
<path d="M1365 1005 c11 -9 32 -19 48 -22 15 -3 30 -10 33 -14 3 -5 26 -9 52
-8 47 1 47 1 -22 15 -38 9 -83 22 -100 30 -29 14 -30 14 -11 -1z"/>
<path d="M1930 1011 c0 -5 -19 -6 -42 -4 -48 6 -110 -7 -115 -24 -2 -6 13 -20
33 -32 33 -20 36 -25 30 -54 -3 -18 -18 -42 -32 -53 -31 -26 -96 -47 -117 -38
-11 4 -24 -7 -41 -35 -34 -53 -34 -67 -1 -18 22 31 31 37 63 37 20 0 57 9 81
20 53 25 59 25 112 0 24 -11 57 -20 73 -20 21 0 27 -4 22 -16 -4 -10 -2 -13 7
-9 6 4 1 -3 -13 -15 -48 -41 -109 -63 -162 -57 -49 6 -138 51 -138 70 0 6 -3
7 -7 4 -10 -10 27 -47 69 -68 25 -13 58 -19 101 -19 54 0 71 5 107 29 24 16
50 26 58 23 12 -4 14 -1 8 14 -18 44 -20 57 -5 49 8 -5 11 -5 7 0 -10 10 21
34 44 35 10 0 37 -16 60 -36 36 -30 35 -28 -5 10 -50 47 -49 58 3 31 16 -8 31
-11 34 -7 3 5 -15 16 -40 25 -24 9 -44 12 -44 7 0 -6 -5 -10 -11 -10 -7 0 -18
-8 -25 -17 -20 -29 -109 -24 -156 7 -21 14 -38 32 -38 42 0 9 20 38 45 65 39
42 56 73 40 73 -3 0 -5 -4 -5 -9z m-38 -31 c-12 -5 -25 -17 -29 -26 -5 -15 -7
-15 -15 0 -5 9 -21 16 -36 16 -21 0 -24 2 -12 10 8 5 38 9 65 9 40 0 46 -2 27
-9z"/>
<path d="M2208 973 c6 -2 18 -2 25 0 6 3 1 5 -13 5 -14 0 -19 -2 -12 -5z"/>
<path d="M2622 955 c0 -16 2 -22 5 -12 2 9 2 23 0 30 -3 6 -5 -1 -5 -18z"/>
<path d="M2135 949 c56 -11 97 -11 90 1 -3 6 -34 9 -68 9 -59 -1 -60 -2 -22
-10z"/>
<path d="M4771 873 c44 -43 112 -99 150 -125 66 -45 75 -48 135 -48 l64 0 -1
88 c-1 82 -1 85 -14 57 -8 -16 -14 -52 -15 -79 l0 -48 -55 4 c-64 5 -146 55
-263 162 -40 36 -75 66 -77 66 -3 0 32 -35 76 -77z"/>
<path d="M1535 930 c-85 -9 -186 -34 -223 -56 -15 -8 -18 -12 -7 -8 73 25 160
45 223 51 40 3 75 10 78 14 3 5 4 8 2 8 -2 -1 -34 -5 -73 -9z"/>
<path d="M1648 933 c6 -2 18 -2 25 0 6 3 1 5 -13 5 -14 0 -19 -2 -12 -5z"/>
<path d="M2108 923 c7 -3 16 -2 19 1 4 3 -2 6 -13 5 -11 0 -14 -3 -6 -6z"/>
<path d="M2173 913 c9 -2 23 -2 30 0 6 3 -1 5 -18 5 -16 0 -22 -2 -12 -5z"/>
<path d="M2092 903 c-16 -6 -5 -23 16 -23 14 0 14 2 3 9 -11 7 -7 10 15 14 25
3 25 4 4 5 -14 0 -31 -2 -38 -5z"/>
<path d="M2168 893 c7 -3 16 -2 19 1 4 3 -2 6 -13 5 -11 0 -14 -3 -6 -6z"/>
<path d="M1553 877 c7 -5 -4 -6 -23 -3 -26 5 -30 4 -15 -3 12 -6 14 -10 6 -10
-8 -1 -12 -3 -9 -6 2 -3 31 3 64 14 l59 19 -47 -1 c-27 -1 -41 -5 -35 -10z"/>
<path d="M2138 873 c7 -3 16 -2 19 1 4 3 -2 6 -13 5 -11 0 -14 -3 -6 -6z"/>
<path d="M1445 860 c-13 -5 -14 -9 -5 -9 8 0 24 4 35 9 13 5 14 9 5 9 -8 0
-24 -4 -35 -9z"/>
<path d="M2180 860 c8 -5 20 -10 25 -10 6 0 3 5 -5 10 -8 5 -19 10 -25 10 -5
0 -3 -5 5 -10z"/>
<path d="M1254 844 c-18 -14 -18 -15 4 -4 12 6 22 13 22 15 0 8 -5 6 -26 -11z"/>
<path d="M1580 853 c0 -6 5 -13 12 -15 7 -3 -8 -18 -33 -35 -24 -17 -62 -51
-84 -75 l-40 -43 45 43 c25 23 49 42 54 42 5 0 24 14 43 30 18 17 38 30 43 30
6 0 10 5 10 11 0 6 -6 9 -14 6 -7 -3 -19 0 -25 6 -8 8 -11 8 -11 0z"/>
<path d="M1653 843 c9 -2 23 -2 30 0 6 3 -1 5 -18 5 -16 0 -22 -2 -12 -5z"/>
<path d="M3317 809 c-26 -23 -54 -54 -62 -70 -17 -32 -20 -99 -5 -99 6 0 10 9
10 20 0 28 43 110 70 135 19 18 45 55 38 55 -2 0 -24 -19 -51 -41z"/>
<path d="M1365 796 c-84 -41 -235 -148 -235 -168 0 -5 12 3 28 17 82 78 276
191 247 145 -4 -6 1 -7 11 -3 14 5 15 8 4 11 -8 3 0 12 21 23 67 36 12 18 -76
-25z"/>
<path d="M1548 833 c7 -3 16 -2 19 1 4 3 -2 6 -13 5 -11 0 -14 -3 -6 -6z"/>
<path d="M3040 820 c6 -11 13 -20 16 -20 2 0 0 9 -6 20 -6 11 -13 20 -16 20
-2 0 0 -9 6 -20z"/>
<path d="M1485 820 c-13 -5 -14 -9 -5 -9 8 0 24 4 35 9 13 5 14 9 5 9 -8 0
-24 -4 -35 -9z"/>
<path d="M1607 801 c-20 -18 -55 -56 -79 -84 -36 -46 -32 -43 36 23 60 58 73
67 57 40 -12 -19 -21 -39 -21 -45 0 -5 12 9 26 33 34 58 26 72 -19 33z"/>
<path d="M1499 723 c-41 -45 -63 -73 -56 -73 2 0 26 25 52 55 53 63 56 73 4
18z"/>
<path d="M4705 741 c6 -4 30 -11 55 -14 27 -4 37 -3 25 2 -33 13 -90 22 -80
12z"/>
<path d="M1112 720 c0 -14 2 -19 5 -12 2 6 2 18 0 25 -3 6 -5 1 -5 -13z"/>
<path d="M1581 689 c-6 -18 -11 -39 -10 -48 0 -9 7 4 14 29 16 51 13 67 -4 19z"/>
<path d="M4720 697 c-19 -5 -28 -12 -20 -14 8 -2 35 3 60 11 31 10 37 14 20
14 -14 0 -41 -5 -60 -11z"/>
<path d="M1121 664 c0 -11 3 -14 6 -6 3 7 2 16 -1 19 -3 4 -6 -2 -5 -13z"/>
<path d="M1899 633 l-24 -28 28 24 c15 14 27 26 27 28 0 8 -8 1 -31 -24z"/>
<path d="M4581 644 c0 -11 3 -14 6 -6 3 7 2 16 -1 19 -3 4 -6 -2 -5 -13z"/>
<path d="M1592 630 c0 -14 2 -19 5 -12 2 6 2 18 0 25 -3 6 -5 1 -5 -13z"/>
<path d="M1450 609 c-7 -11 -10 -23 -7 -25 2 -2 9 7 15 21 14 30 7 33 -8 4z"/>
<path d="M660 613 c8 -3 24 -10 35 -15 20 -9 20 -9 1 6 -11 9 -27 16 -35 15
-14 0 -14 -1 -1 -6z"/>
<path d="M321 600 c0 -8 4 -24 9 -35 5 -13 9 -14 9 -5 0 8 -4 24 -9 35 -5 13
-9 14 -9 5z"/>
<path d="M2513 575 c0 -22 2 -30 4 -17 2 12 2 30 0 40 -3 9 -5 -1 -4 -23z"/>
<path d="M5032 562 c-1 -29 -11 -78 -22 -109 -11 -32 -19 -69 -19 -83 l2 -25
4 25 c2 14 13 52 24 85 13 39 19 78 16 110 l-3 50 -2 -53z"/>
<path d="M2797 590 c5 -8 40 -54 76 -102 67 -89 94 -133 108 -178 6 -20 7 -21
8 -5 1 35 -35 99 -104 186 -63 79 -115 137 -88 99z"/>
<path d="M1140 587 c0 -5 12 -34 28 -64 54 -112 165 -195 278 -209 43 -5 55
-13 97 -57 27 -29 40 -38 29 -22 -38 57 -74 82 -127 89 -109 14 -206 88 -270
206 -19 36 -35 61 -35 57z"/>
<path d="M2726 575 c3 -11 26 -76 51 -145 24 -69 57 -190 73 -269 16 -79 34
-149 41 -155 9 -8 10 -7 6 7 -13 36 -58 279 -53 284 2 3 16 -6 29 -19 17 -17
32 -56 51 -135 16 -62 34 -120 41 -130 22 -29 -62 260 -98 339 -29 62 -74 138
-135 224 -12 18 -13 18 -6 -1z"/>
<path d="M1385 569 c-4 -6 -5 -12 -2 -15 2 -3 7 2 10 11 7 17 1 20 -8 4z"/>
<path d="M4739 559 l-24 -20 24 11 c13 7 38 9 55 6 l31 -6 -25 15 c-33 19 -34
19 -61 -6z"/>
<path d="M1851 554 c0 -11 3 -14 6 -6 3 7 2 16 -1 19 -3 4 -6 -2 -5 -13z"/>
<path d="M112 540 c0 -14 2 -19 5 -12 2 6 2 18 0 25 -3 6 -5 1 -5 -13z"/>
<path d="M4603 543 c3 -10 8 -28 12 -40 7 -24 29 -31 40 -13 8 14 -12 47 -36
61 -18 9 -20 8 -16 -8z"/>
<path d="M3566 484 c-40 -40 -78 -91 -96 -128 -37 -76 -102 -356 -82 -356 5 0
14 35 20 78 31 195 67 282 168 398 35 40 63 74 60 74 -3 0 -34 -30 -70 -66z"/>
<path d="M342 520 c0 -14 2 -19 5 -12 2 6 2 18 0 25 -3 6 -5 1 -5 -13z"/>
<path d="M4689 523 c-13 -16 -12 -17 4 -4 9 7 17 15 17 17 0 8 -8 3 -21 -13z"/>
<path d="M121 499 c-1 -9 -10 -45 -21 -79 -11 -34 -20 -74 -19 -89 1 -20 3
-17 11 14 5 22 16 64 24 92 9 29 13 58 11 65 -4 9 -6 7 -6 -3z"/>
<path d="M4674 463 c-17 -40 -7 -83 20 -83 22 0 27 29 11 60 -8 16 -12 36 -9
44 13 33 -8 14 -22 -21z"/>
<path d="M201 473 c0 -12 -4 -30 -7 -40 -5 -17 -5 -17 6 0 6 10 9 28 7 40 -4
22 -4 22 -6 0z"/>
<path d="M1352 470 c0 -14 2 -19 5 -12 2 6 2 18 0 25 -3 6 -5 1 -5 -13z"/>
<path d="M252 450 c0 -14 2 -19 5 -12 2 6 2 18 0 25 -3 6 -5 1 -5 -13z"/>
<path d="M3201 390 c-1 -25 -8 -63 -16 -85 -12 -35 -12 -38 0 -21 19 25 28 73
22 117 -3 30 -4 29 -6 -11z"/>
<path d="M241 404 c0 -11 3 -14 6 -6 3 7 2 16 -1 19 -3 4 -6 -2 -5 -13z"/>
<path d="M10 370 c6 -11 13 -20 16 -20 2 0 0 9 -6 20 -6 11 -13 20 -16 20 -2
0 0 -9 6 -20z"/>
<path d="M417 360 c9 -53 25 -84 17 -35 -3 22 -10 47 -15 55 -5 10 -6 2 -2
-20z"/>
<path d="M232 350 c0 -14 2 -19 5 -12 2 6 2 18 0 25 -3 6 -5 1 -5 -13z"/>
<path d="M2591 310 c-1 -44 78 -310 92 -310 4 0 6 4 2 9 -3 5 -25 78 -50 163
-24 84 -44 146 -44 138z"/>
<path d="M0 279 c0 -6 11 -20 25 -31 32 -25 32 -62 0 -94 -33 -33 -32 -44 6
-44 24 0 41 -10 67 -37 l35 -38 -6 68 c-8 84 -30 131 -76 163 -39 27 -51 30
-51 13z"/>
<path d="M2992 260 c0 -14 2 -19 5 -12 2 6 2 18 0 25 -3 6 -5 1 -5 -13z"/>
<path d="M4805 260 c-22 -11 -53 -25 -70 -29 l-30 -9 37 -1 c32 -1 38 -5 48
-35 6 -18 22 -44 36 -57 22 -20 35 -24 82 -22 32 1 66 4 77 5 25 4 33 -35 13
-60 -9 -13 -7 -12 10 2 46 39 15 166 -50 206 -42 26 -103 26 -153 0z m62 -38
c-12 -45 -3 -92 18 -92 17 0 26 14 35 54 4 22 12 31 25 31 28 0 30 -35 5 -68
-29 -37 -72 -36 -111 2 -35 35 -38 74 -7 95 38 27 46 21 35 -22z"/>
<path d="M3755 233 c-14 -21 -25 -42 -25 -48 0 -9 9 3 45 58 26 41 9 32 -20
-10z"/>
<path d="M500 251 c-53 -16 -91 -43 -116 -81 -29 -44 -40 -104 -25 -140 l10
-25 0 28 c1 45 18 69 41 57 28 -15 97 -12 130 5 30 16 52 49 64 98 5 23 12 27
44 28 l37 1 -40 8 c-22 5 -53 13 -68 19 -32 12 -41 13 -77 2z m76 -77 c-7 -25
-51 -74 -67 -74 -4 0 -2 12 6 27 8 15 11 39 8 56 -5 24 -3 29 9 25 8 -4 21 -2
29 3 18 11 23 -3 15 -37z m-141 -24 c4 -18 17 -36 33 -45 32 -17 17 -19 -27
-4 -31 11 -50 46 -36 68 11 19 23 12 30 -19z"/>
<path d="M3750 175 c-7 -8 -16 -12 -21 -9 -5 3 -9 2 -8 -3 2 -4 -5 -35 -15
-68 -10 -33 -20 -68 -22 -77 -3 -10 -1 -18 4 -18 5 0 17 30 26 67 10 36 26 79
37 95 21 29 20 39 -1 13z"/>
<path d="M1579 147 c13 -21 27 -61 31 -90 l8 -52 1 43 c1 47 -20 102 -47 124
-10 8 -8 0 7 -25z"/>
<path d="M1938 47 c-32 -22 -56 -43 -53 -45 6 -6 77 43 101 69 24 26 18 23
-48 -24z"/>
<path d="M4739 63 c15 -30 65 -63 93 -62 20 1 20 2 -6 9 -16 5 -45 24 -64 42
-25 24 -32 27 -23 11z"/>
<path d="M650 50 c-6 -11 -23 -26 -38 -34 -16 -9 -21 -15 -11 -16 8 0 25 10
36 23 23 26 36 47 29 47 -3 0 -10 -9 -16 -20z"/>
<path d="M4344 38 l-29 -33 33 29 c17 17 32 31 32 33 0 8 -8 1 -36 -29z"/>
<path d="M2132 25 c-6 -14 -7 -25 -2 -25 9 0 25 39 18 46 -3 2 -10 -7 -16 -21z"/>
</g>
</svg>